<svg xmlns="http://www.w3.org/2000/svg" width="16" height="16" viewBox="0 0 16 16">
  <path id="Path_54279" data-name="Path 54279" d="M12.168,6.232a.8.8,0,0,0-1.136,0L9.2,8.072,7.368,6.232A.8.8,0,0,0,6.232,7.368L8.072,9.2l-1.84,1.832a.8.8,0,1,0,1.136,1.136L9.2,10.328l1.832,1.84a.8.8,0,1,0,1.136-1.136L10.328,9.2l1.84-1.832a.8.8,0,0,0,0-1.136ZM6,14.8a2.4,2.4,0,0,1-2.4-2.4V6A2.4,2.4,0,0,1,6,3.6.8.8,0,0,0,6,2,4,4,0,0,0,2,6v6.4a4,4,0,0,0,4,4,.8.8,0,1,0,0-1.6ZM14.8,6v4.8a.8.8,0,0,0,1.6,0V6a4,4,0,0,0-4-4,.8.8,0,1,0,0,1.6A2.4,2.4,0,0,1,14.8,6Zm2.4,8.8h-.8V14a.8.8,0,1,0-1.6,0v.8H14a.8.8,0,1,0,0,1.6h.8v.8a.8.8,0,0,0,1.6,0v-.8h.8a.8.8,0,0,0,0-1.6Z" transform="translate(-2 -2)" fill="#fff"/>
</svg>
