<?xml version="1.0" encoding="utf-8"?>
<!-- Generator: Adobe Illustrator 26.2.1, SVG Export Plug-In . SVG Version: 6.00 Build 0)  -->
<svg version="1.1" xmlns="http://www.w3.org/2000/svg" xmlns:xlink="http://www.w3.org/1999/xlink" x="0px" y="0px"
	 viewBox="0 0 16 16" style="enable-background:new 0 0 16 16;" xml:space="preserve">
<style type="text/css">
	.st0{fill:none;}
	.st1{fill:#606060;}
</style>
<path class="st0" d="M16,16H0V0h16V16z"/>
<path class="st1" d="M14.75,2.7265h-1.6088H3.0049H1.25c-0.1381,0-0.25,0.1119-0.25,0.25v0.4977c0,0.1381,0.1119,0.25,0.25,0.25
	h1.5049v10.3453C2.7549,14.5825,3.1782,15,3.6981,15h8.75c0.52,0,0.9431-0.4175,0.9431-0.9305V3.7242H14.75
	c0.1381,0,0.25-0.1119,0.25-0.25V2.9765C15,2.8384,14.8881,2.7265,14.75,2.7265z M12.3799,3.9742v10.0286l-8.6137,0.0667V3.9742
	c0-0.1381,0.1119-0.25,0.25-0.25h8.1137C12.2681,3.7242,12.3799,3.8361,12.3799,3.9742z M5.625,1.9977h4.75
	c0.1381,0,0.25-0.1119,0.25-0.25V1.25c0-0.1381-0.1119-0.25-0.25-0.25h-4.75c-0.1381,0-0.25,0.1119-0.25,0.25v0.4977
	C5.375,1.8858,5.4869,1.9977,5.625,1.9977z M6.4097,12.2661H6.921c0.1381,0,0.25-0.1119,0.25-0.25V5.689
	c0-0.1381-0.1119-0.25-0.25-0.25H6.4097c-0.1381,0-0.25,0.1119-0.25,0.25v6.327C6.1597,12.1542,6.2716,12.2661,6.4097,12.2661z
	 M9.0687,12.2661H9.58c0.1381,0,0.25-0.1119,0.25-0.25V5.689c0-0.1381-0.1119-0.25-0.25-0.25H9.0687
	c-0.1381,0-0.25,0.1119-0.25,0.25v6.327C8.8187,12.1542,8.9307,12.2661,9.0687,12.2661z"/>
</svg>
