<svg id="Group_circle" data-name="Group circle" xmlns="http://www.w3.org/2000/svg" width="22" height="22" viewBox="0 0 22 22">
  <g id="Bg">
    <g id="Ellipse_2971_00000059311779718107778690000007581510150684077200_" opacity="0.15">
      <circle id="Ellipse_2951" data-name="Ellipse 2951" cx="11" cy="11" r="11" fill="#0072c6"/>
    </g>
  </g>
  <g id="Layer_3">
    <g id="Group_68764" data-name="Group 68764">
      <g id="Group_68760" data-name="Group 68760">
        <path id="Path_56270" data-name="Path 56270" d="M13.828,11.213a1.5,1.5,0,1,0-1.5-1.5A1.5,1.5,0,0,0,13.828,11.213Z" fill="#0072c6"/>
      </g>
      <g id="Group_68761" data-name="Group 68761">
        <path id="Path_56271" data-name="Path 56271" d="M9.516,9.991h0a2.375,2.375,0,0,0,0-4.749h0a2.375,2.375,0,0,0,0,4.749Z" fill="#0072c6"/>
      </g>
      <g id="Group_68762" data-name="Group 68762">
        <path id="Path_56272" data-name="Path 56272" d="M11.282,11.4c-.029-.006-.059-.009-.088-.014-.051-.008-.1-.017-.152-.022a2.811,2.811,0,0,0-.311-.019h-.007l-1.208,0-1.208,0H8.3a2.811,2.811,0,0,0-.311.019c-.049,0-.1.014-.145.021-.032.005-.064.008-.095.014a2.786,2.786,0,0,0-2.266,2.733v2.62l4.033,0,4.032,0v-2.62A2.786,2.786,0,0,0,11.282,11.4Z" fill="#0072c6"/>
      </g>
      <g id="Group_68763" data-name="Group 68763">
        <path id="Path_56273" data-name="Path 56273" d="M14.234,12.344H14.04a3.446,3.446,0,0,1,.519,1.814V16.75h1.958V14.622A2.277,2.277,0,0,0,14.234,12.344Z" fill="#0072c6"/>
      </g>
    </g>
  </g>
</svg>
