<?xml version="1.0" encoding="utf-8"?>
<!-- Generator: Adobe Illustrator 26.2.1, SVG Export Plug-In . SVG Version: 6.00 Build 0)  -->
<svg version="1.1" id="Layer_1" xmlns="http://www.w3.org/2000/svg" xmlns:xlink="http://www.w3.org/1999/xlink" x="0px" y="0px"
	 viewBox="0 0 16 16" style="enable-background:new 0 0 16 16;" xml:space="preserve">
<style type="text/css">
	.st0{display:none;}
	.st1{display:inline;opacity:0.5;}
	.st2{clip-path:url(#SVGID_00000140698062131125582360000017564549574072260997_);}
	.st3{clip-path:url(#SVGID_00000000203979731637675180000006735983866129179805_);fill:#606060;}
	.st4{clip-path:url(#SVGID_00000075161987577506030830000011289164660812705723_);fill:#606060;}
	.st5{fill:#606060;}
	.st6{fill:none;}
</style>
<g id="Rough" class="st0">
	<g id="Exit_00000121975284085985941200000013875935096002730932_" class="st1">
		<g>
			<g>
				<defs>
					<rect id="SVGID_1_" x="1" y="0.9784" width="14" height="14.0432"/>
				</defs>
				<clipPath id="SVGID_00000131337865808149786190000007603361448456311715_">
					<use xlink:href="#SVGID_1_"  style="overflow:visible;"/>
				</clipPath>
				<g style="clip-path:url(#SVGID_00000131337865808149786190000007603361448456311715_);">
					<g>
						<defs>
							<rect id="SVGID_00000058576103118632548800000006681795787122625927_" x="1" y="0.9787" width="14" height="14.0429"/>
						</defs>
						<clipPath id="SVGID_00000171706247250506002500000005148965286253247617_">
							<use xlink:href="#SVGID_00000058576103118632548800000006681795787122625927_"  style="overflow:visible;"/>
						</clipPath>
						<path style="clip-path:url(#SVGID_00000171706247250506002500000005148965286253247617_);fill:#606060;" d="M1,14.1439V1.8563
							c0-0.4847,0.3929-0.8776,0.8776-0.8776h6.51c0.4847,0,0.8785,0.3929,0.8785,0.8776v0.658
							c0,0.1216-0.0989,0.2196-0.2196,0.2196H8.6073c-0.1208,0-0.2196-0.098-0.2196-0.2196v-0.658h-6.51v12.2876h6.51v-0.658
							c0-0.1216,0.0989-0.2196,0.2196-0.2196h0.4392c0.1207,0,0.2196,0.098,0.2196,0.2196v0.658
							c0,0.4847-0.3938,0.8776-0.8785,0.8776h-6.51C1.3929,15.0215,1,14.6287,1,14.1439"/>
					</g>
					<g>
						<defs>
							<rect id="SVGID_00000045590282384267139160000004981497698072696215_" x="1" y="0.9787" width="14" height="14.0429"/>
						</defs>
						<clipPath id="SVGID_00000101821917483784352180000001907066263694751935_">
							<use xlink:href="#SVGID_00000045590282384267139160000004981497698072696215_"  style="overflow:visible;"/>
						</clipPath>
						<path style="clip-path:url(#SVGID_00000101821917483784352180000001907066263694751935_);fill:#606060;" d="M11.8325,11.3214
							l3.1027-3.1036c0.0858-0.0849,0.0858-0.224,0-0.3098l-3.1027-3.1027c-0.0858-0.0858-0.2249-0.0858-0.3106,0L11.2121,5.115
							c-0.0857,0.0857-0.0857,0.2249,0,0.3106l2.1989,2.1989H5.9131c-0.1216,0-0.2196,0.098-0.2196,0.2188v0.4392
							c0,0.1207,0.098,0.2196,0.2196,0.2196h7.4979l-2.1989,2.1989c-0.0857,0.0858-0.0857,0.2249,0,0.3098l0.3097,0.3106
							C11.6076,11.4072,11.7467,11.4072,11.8325,11.3214"/>
					</g>
				</g>
			</g>
		</g>
	</g>
</g>
<g id="Layer_1_00000049209769052438607050000006844757502506515871_">
	<g>
		<path class="st5" d="M8.3159,13.9991l-6.2654,0.0068L2.0416,1.9991L8.307,1.9923v0.5635c0,0.1381,0.1119,0.25,0.25,0.25h0.5001
			c0.1381,0,0.25-0.1119,0.25-0.25V1.9922c0-0.5462-0.447-0.9932-0.9933-0.9932H2.0436c-0.5486,0-0.9933,0.4447-0.9933,0.9932
			v12.0136c0,0.5462,0.447,0.9932,0.9933,0.9932h6.2723c0.5475,0,0.9913-0.4438,0.9913-0.9912v-0.5713
			c0-0.1381-0.1119-0.25-0.25-0.25H8.5599c-0.1391,0-0.2515,0.1136-0.25,0.2527L8.3159,13.9991z"/>
		<path class="st5" d="M11.4839,4.8265L11.1295,5.179c-0.098,0.0974-0.0983,0.2559-0.0008,0.3538l2.0351,2.0415H5.9455
			c-0.1381,0-0.25,0.1119-0.25,0.25v0.5c0,0.1381,0.1119,0.25,0.25,0.25h7.1698l-2.0004,2.0073
			c-0.0975,0.0979-0.0972,0.2563,0.0008,0.3537l0.3545,0.3525c0.0978,0.0973,0.256,0.0969,0.3534-0.0008l3.2265-3.2372
			l-3.2128-3.2226C11.74,4.7296,11.5819,4.7292,11.4839,4.8265z"/>
	</g>
</g>
<rect class="st6" width="16" height="16"/>
</svg>
