<?xml version="1.0" encoding="utf-8"?>
<!-- Generator: Adobe Illustrator 26.3.1, SVG Export Plug-In . SVG Version: 6.00 Build 0)  -->
<svg version="1.1" xmlns="http://www.w3.org/2000/svg" xmlns:xlink="http://www.w3.org/1999/xlink" x="0px" y="0px"
	 viewBox="0 0 190 180" style="enable-background:new 0 0 190 180;" xml:space="preserve">
<style type="text/css">
	.st0{fill:#0561AC;}
	.st1{fill:none;stroke:#E6E6E6;stroke-width:3;stroke-miterlimit:10;}
	.st2{fill:#F1F1F1;}
	.st3{fill:#D2D2D2;}
	.st4{fill:#FFFFFF;}
	.st5{fill:none;stroke:#FFFFFF;stroke-width:5.7481;stroke-miterlimit:10;}
	.st6{fill:#F1F0EE;}
	.st7{opacity:0.15;fill:#A6A4A4;}
	.st8{opacity:0.1;fill:#A6A4A4;}
	.st9{fill:#FFFFFF;stroke:#A5A4A3;stroke-width:6.9798;stroke-miterlimit:10;}
	.st10{fill:#A5A4A3;}
	.st11{opacity:0.2;fill:#FFFFFF;}
	.st12{fill:#D3D3D3;}
	.st13{opacity:0.5;fill:#D3D3D3;}
	.st14{fill:#F6F5F5;}
	.st15{fill:#949393;}
	.st16{fill:none;stroke:#A5A4A3;stroke-width:2.8904;stroke-miterlimit:10;stroke-dasharray:6.7744;}
	.st17{fill:#21B6BE;}
	.st18{display:none;}
	.st19{fill:none;stroke:#A5A4A3;stroke-width:4;stroke-miterlimit:10;}
	.st20{fill:#FFFFFF;stroke:#A5A4A3;stroke-width:4;stroke-miterlimit:10;}
	.st21{fill:none;stroke:#FFFFFF;stroke-width:2;stroke-miterlimit:10;}
	.st22{fill:#F68B28;}
	.st23{fill:#FCD2B1;}
	.st24{fill:#FFEDE1;}
	.st25{fill:#F7931E;}
	.st26{fill:#FBB03B;}
	.st27{fill:#E6E6E6;}
	.st28{fill:#DDDDDD;}
	.st29{fill:none;}
	.st30{clip-path:url(#SVGID_00000172411151694948392330000013001867115098295982_);}
	.st31{fill:#F2F1EF;}
	.st32{fill:#C2C1C0;}
	.st33{fill:#B5B4B3;}
	.st34{fill:#A6A4A4;}
	.st35{fill:none;stroke:#A6A4A4;stroke-width:5;stroke-miterlimit:10;}
	.st36{fill:#CECECE;}
	.st37{fill:#A6A5A5;}
	.st38{clip-path:url(#SVGID_00000119094385464309562640000004272453685668234625_);}
	.st39{clip-path:url(#SVGID_00000114059409774774149380000016821101040124996263_);}
	.st40{clip-path:url(#SVGID_00000147216588760447780310000015990490169344328863_);}
	.st41{fill:none;stroke:#B4B4B2;stroke-width:0.773;stroke-miterlimit:10;}
	.st42{fill:#E2E2E2;}
	.st43{fill:#EFEDEC;}
	.st44{fill:#F4F4F4;}
	.st45{fill:#F7F5F5;}
	.st46{fill:#959494;}
	.st47{opacity:0.1;fill:#FFFFFF;enable-background:new    ;}
	.st48{fill:#818386;}
	.st49{clip-path:url(#SVGID_00000109009118571622347460000013340715207785581503_);fill:#B5B4B3;}
	.st50{fill:none;stroke:#FFFFFF;stroke-width:6;stroke-miterlimit:10;}
	.st51{fill:#C9C9C9;}
	.st52{fill:none;stroke:#B5B4B3;stroke-width:1.0316;stroke-miterlimit:10;}
	.st53{clip-path:url(#SVGID_00000012437235939032794120000015187507770581510843_);}
	.st54{opacity:0.2;}
</style>
<g id="Layer_2">
</g>
<g id="Layer_3">
</g>
<g id="Layer_1">
	<path class="st31" d="M175.6777,79.5277c1.838,37.469-36.922,57.714-70.732,69.022c-32.686,10.932-71.933,14.816-91.991-14.598
		c-19.93-29.222-5.988-69.084,16.408-96.234c17.006-20.615,44.779-15.338,69.747-8.204
		C131.1228,38.6627,173.9598,44.4877,175.6777,79.5277"/>
	<ellipse class="st12" cx="166.7098" cy="2.9007" rx="2.935" ry="2.901"/>
	<ellipse class="st12" cx="168.9188" cy="19.9667" rx="1.467" ry="1.451"/>
	<polygon class="st32" points="3.4648,8.0807 2.2438,8.0807 2.2438,6.8787 1.2208,6.8787 1.2208,8.0807 -0.0002,8.0807 
		-0.0002,9.1027 1.2208,9.1027 1.2208,10.3037 2.2438,10.3037 2.2438,9.1027 3.4648,9.1027 	"/>
	<ellipse class="st12" cx="20.9098" cy="14.8867" rx="1.467" ry="1.451"/>
	<ellipse class="st12" cx="2.9928" cy="30.2607" rx="1.467" ry="1.451"/>
	<ellipse class="st12" cx="86.3208" cy="176.3897" rx="2.935" ry="2.901"/>
	<ellipse class="st12" cx="56.8838" cy="171.3667" rx="1.467" ry="1.451"/>
	<ellipse class="st12" cx="2.9928" cy="145.0817" rx="1.467" ry="1.451"/>
	<path class="st4" d="M153.8547,33.7443v95.95c0,5.64-4.5801,10.22-10.22,10.22H28.3046c-5.64,0-10.22-4.58-10.22-10.22v-95.95
		c0-5.65,4.58-10.22,10.22-10.22h115.3301C149.2846,23.5243,153.8547,28.0943,153.8547,33.7443z"/>
	<path class="st12" d="M18.0838,34.7017h135.771v-0.96c0-5.644-4.576-10.22-10.22-10.22H28.3038c-5.644,0-10.22,4.576-10.22,10.22
		V34.7017z"/>
	<ellipse class="st4" cx="146.2588" cy="29.1117" rx="2.753" ry="2.721"/>
	<ellipse class="st4" cx="138.0078" cy="29.1117" rx="2.753" ry="2.721"/>
	<polygon class="st33" points="178.7428,140.4007 176.7357,140.4007 176.7357,138.4217 175.7148,138.4217 175.7148,140.4007 
		173.7068,140.4007 173.7068,141.4217 175.7148,141.4217 175.7148,143.3997 176.7357,143.3997 176.7357,141.4217 178.7428,141.4217 
			"/>
	<polygon class="st48" points="153.3988,144.7757 154.7218,143.4687 161.6678,150.3347 160.3448,151.6427 	"/>
	<g>
		<defs>
			<path id="SVGID_00000079474796634427751720000005271985474808835249_" d="M155.6978,153.7367l24.993,24.711
				c2.155,2.095,5.62,2.066,7.739-0.064c2.094-2.105,2.094-5.481,0-7.586l-24.993-24.708L155.6978,153.7367z"/>
		</defs>
		<clipPath id="SVGID_00000142861523149152114580000001165269821045171135_">
			<use xlink:href="#SVGID_00000079474796634427751720000005271985474808835249_"  style="overflow:visible;"/>
		</clipPath>
		<polygon style="clip-path:url(#SVGID_00000142861523149152114580000001165269821045171135_);fill:#B5B4B3;" points="
			152.4798,156.7727 157.1628,152.1437 186.1578,180.8077 181.4748,185.4367 		"/>
	</g>
	<path class="st43" d="M95.5094,124.3597H39.3876c-3.3791,0-6.1184-2.7393-6.1184-6.1184V50.7105
		c0-3.3791,2.7393-6.1184,6.1184-6.1184h56.1218c3.3791,0,6.1184,2.7393,6.1184,6.1184v67.5309
		C101.6277,121.6204,98.8885,124.3597,95.5094,124.3597z"/>
	<path class="st4" d="M55.3864,74.5892h-7.4109c-1.6372,0-2.9644-1.3272-2.9644-2.9644v-8.8931
		c0-1.6372,1.3272-2.9644,2.9644-2.9644h7.4109c1.6372,0,2.9644,1.3272,2.9644,2.9644v8.8931
		C58.3508,73.262,57.0236,74.5892,55.3864,74.5892z"/>
	<line class="st50" x1="44.8554" y1="88.0043" x2="89.5569" y2="88.0043"/>
	<line class="st50" x1="44.8554" y1="103.0043" x2="89.5569" y2="103.0043"/>
	<path class="st43" d="M116.7507,61.4391h19.1938c1.1395,0,2.0632-0.9237,2.0632-2.0632v-4.4588
		c0-1.1395-0.9237-2.0632-2.0632-2.0632h-19.1938c-1.1395,0-2.0632,0.9237-2.0632,2.0632v4.4588
		C114.6875,60.5154,115.6113,61.4391,116.7507,61.4391z"/>
	<path class="st43" d="M116.7507,81.4391h19.1938c1.1395,0,2.0632-0.9237,2.0632-2.0632v-4.4588
		c0-1.1395-0.9237-2.0632-2.0632-2.0632h-19.1938c-1.1395,0-2.0632,0.9237-2.0632,2.0632v4.4588
		C114.6875,80.5154,115.6113,81.4391,116.7507,81.4391z"/>
	<path class="st43" d="M116.7507,101.4391h19.1938c1.1395,0,2.0632-0.9237,2.0632-2.0632v-4.4588
		c0-1.1395-0.9237-2.0632-2.0632-2.0632h-19.1938c-1.1395,0-2.0632,0.9237-2.0632,2.0632v4.4588
		C114.6875,100.5154,115.6113,101.4391,116.7507,101.4391z"/>
	<g>
		<ellipse class="st4" cx="133.5028" cy="124.1687" rx="28.809" ry="28.48"/>
		<path class="st33" d="M165.3768,124.1687c0-17.395-14.299-31.546-31.874-31.546c-17.576,0-31.875,14.151-31.875,31.546
			s14.299,31.546,31.875,31.546c8,0,15.315-2.939,20.917-7.774l5.925,5.857l3.503-3.463l-5.956-5.887
			C162.5588,138.9597,165.3768,131.8857,165.3768,124.1687z M107.7588,124.1687c0-14.014,11.549-25.415,25.744-25.415
			c14.194,0,25.743,11.401,25.743,25.415s-11.549,25.415-25.743,25.415C119.3078,149.5837,107.7588,138.1827,107.7588,124.1687z"/>
		<path class="st33" d="M155.6978,153.7367l24.993,24.711c2.155,2.095,5.62,2.066,7.739-0.064c2.094-2.105,2.094-5.481,0-7.586
			l-24.993-24.708L155.6978,153.7367z"/>
		<polygon class="st33" points="147.7068,113.6547 144.8338,110.7477 133.9707,121.4867 123.1068,110.7467 120.2338,113.6537 
			131.0638,124.3597 120.2338,135.0657 123.1068,137.9717 133.9707,127.2327 144.8338,137.9727 147.7068,135.0667 
			136.8768,124.3597 		"/>
	</g>
</g>
</svg>
