<?xml version="1.0" encoding="utf-8"?>
<!-- Generator: Adobe Illustrator 26.5.0, SVG Export Plug-In . SVG Version: 6.00 Build 0)  -->
<svg version="1.1" xmlns="http://www.w3.org/2000/svg" xmlns:xlink="http://www.w3.org/1999/xlink" x="0px" y="0px"
	 viewBox="0 0 24 24" enable-background="new 0 0 24 24" xml:space="preserve">
<g id="Outline">
</g>
<g id="Icons">
	<g>
		<path d="M11.9999,11.868c-2.8945,0-5.25-2.3555-5.25-5.25s2.3555-5.25,5.25-5.25s5.25,2.3555,5.25,5.25
			S14.8945,11.868,11.9999,11.868z M11.9999,2.868c-2.0674,0-3.75,1.6826-3.75,3.75s1.6826,3.75,3.75,3.75s3.75-1.6826,3.75-3.75
			S14.0673,2.868,11.9999,2.868z"/>
	</g>
	<g>
		<path d="M20.0673,23.159h-1.5v-3.9268c0-2.7295-2.1182-4.9502-4.7207-4.9502h-3.6924c-2.6035,0-4.7217,2.2207-4.7217,4.9502
			v3.9268h-1.5v-3.9268c0-3.5566,2.791-6.4502,6.2217-6.4502h3.6924c3.4297,0,6.2207,2.8936,6.2207,6.4502V23.159z"/>
	</g>
</g>
<g id="Layer_3">
</g>
</svg>
