<?xml version="1.0" encoding="utf-8"?>
<!-- Generator: Adobe Illustrator 27.1.1, SVG Export Plug-In . SVG Version: 6.00 Build 0)  -->
<svg version="1.1" id="Layer_1" xmlns="http://www.w3.org/2000/svg" xmlns:xlink="http://www.w3.org/1999/xlink" x="0px" y="0px"
	 viewBox="0 0 21 21" style="enable-background:new 0 0 21 21;" xml:space="preserve">
<style type="text/css">
	.st0{fill:none;}
	.st1{fill:#606060;}
	.st2{display:none;}
</style>
<g id="Outline">
	<g>
		<rect class="st0" width="21" height="21"/>
	</g>
</g>
<g id="Icons">
	<g>
		<path class="st1" d="M15.9,18.8H5.1c-1,0-1.8-0.8-1.8-1.8V3.8C3.2,2.9,4,2,5.1,2H16c1,0,1.8,0.8,1.8,1.8V17
			C17.8,18,17,18.8,15.9,18.8z M5.1,3.1c-0.5,0-0.9,0.4-0.9,0.8v13.1c0,0.4,0.3,0.8,0.8,0.8h10.9c0.4,0,0.8-0.4,0.8-0.8V3.9
			c0-0.4-0.3-0.8-0.8-0.8H5.1z"/>
	</g>
	<g>
		<rect x="11.4" y="6.8" class="st1" width="3.9" height="1"/>
	</g>
	<g>
		<rect x="11.4" y="13.2" class="st1" width="3.9" height="1"/>
	</g>
	<g>
		<polygon class="st1" points="7.2,9.3 5.5,7.6 6.2,6.9 7.2,7.9 9.4,5.6 10.1,6.3 		"/>
	</g>
	<g>
		<g>
			<rect x="6.1" y="12.6" transform="matrix(0.7071 -0.7071 0.7071 0.7071 -6.9152 9.4804)" class="st1" width="3.7" height="1"/>
		</g>
		<g>
			<rect x="6.1" y="12.6" transform="matrix(0.7071 -0.7071 0.7071 0.7071 -6.9152 9.4804)" class="st1" width="3.7" height="1"/>
		</g>
		<g>
			<rect x="7.5" y="11.2" transform="matrix(0.7072 -0.7071 0.7071 0.7072 -6.8717 9.4624)" class="st1" width="1" height="3.7"/>
		</g>
	</g>
</g>
<g id="Stroked">
</g>
<g id="Rough" class="st2">
</g>
</svg>
