<?xml version="1.0" encoding="utf-8"?>
<!-- Generator: Adobe Illustrator 27.1.1, SVG Export Plug-In . SVG Version: 6.00 Build 0)  -->
<svg version="1.1" id="Layer_1" xmlns="http://www.w3.org/2000/svg" xmlns:xlink="http://www.w3.org/1999/xlink" x="0px" y="0px"
	 viewBox="0 0 24 24" style="enable-background:new 0 0 24 24;" xml:space="preserve">
<style type="text/css">
	.st0{fill:none;}
	.st1{fill:#FFFFFF;}
	.st2{fill:#606060;}
	.st3{display:none;}
</style>
<g id="Outline">
	<g>
		<rect class="st0" width="24" height="24"/>
	</g>
</g>
<g id="Icons">
	<g>
		<path class="st1" d="M18.9,20H5.1c-0.8,0-1.5-0.7-1.5-1.5V4h16.9v14.6C20.4,19.4,19.8,20,18.9,20z"/>
		<path class="st2" d="M18.9,20.6H5.1c-1.1,0-2.1-0.9-2.1-2.1V3.4h18v15.1C21,19.7,20.1,20.6,18.9,20.6z M4.1,4.5v14
			c0,0.5,0.4,0.9,0.9,0.9h13.9c0.5,0,0.9-0.4,0.9-0.9v-14H4.1z"/>
	</g>
	<g>
		<path class="st1" d="M21.8,7.5H2.2c-0.4,0-0.8-0.3-0.8-0.8v-2C1.4,4.3,1.7,4,2.2,4h19.7c0.4,0,0.8,0.3,0.8,0.8v2
			C22.6,7.1,22.3,7.5,21.8,7.5z"/>
		<path class="st2" d="M21.8,8H2.2C1.4,8,0.8,7.4,0.8,6.7v-2c0-0.7,0.6-1.3,1.3-1.3h19.7c0.7,0,1.3,0.6,1.3,1.3v2
			C23.2,7.4,22.6,8,21.8,8z M2.2,4.5C2.1,4.5,2,4.6,2,4.7v2c0,0.1,0.1,0.2,0.2,0.2h19.7c0.1,0,0.2-0.1,0.2-0.2v-2
			c0-0.1-0.1-0.2-0.2-0.2H2.2z"/>
	</g>
	<g>
		<path class="st2" d="M15.1,12.1H9c-0.5,0-0.9-0.4-0.9-0.9l0,0c0-0.5,0.4-0.9,0.9-0.9h6c0.5,0,0.9,0.4,0.9,0.9l0,0
			C16,11.7,15.6,12.1,15.1,12.1z"/>
	</g>
</g>
<g id="Stroked">
</g>
<g id="Rough" class="st3">
</g>
</svg>
