<?xml version="1.0" encoding="utf-8"?>
<!-- Generator: Adobe Illustrator 27.1.1, SVG Export Plug-In . SVG Version: 6.00 Build 0)  -->
<svg version="1.1" id="Layer_1" xmlns="http://www.w3.org/2000/svg" xmlns:xlink="http://www.w3.org/1999/xlink" x="0px" y="0px"
	 viewBox="0 0 24 24" style="enable-background:new 0 0 24 24;" xml:space="preserve">
<style type="text/css">
	.st0{fill:none;}
	.st1{fill:#606060;}
	.st2{display:none;}
</style>
<g id="Outline">
	<g>
		<rect class="st0" width="24" height="24"/>
	</g>
</g>
<g id="Icons">
	<g>
		<g>
			<path class="st1" d="M12,10.2c-0.3,0-0.7-0.1-0.9-0.4L8.7,7.4C8.4,7.2,8.3,6.9,8.3,6.5c0-0.4,0.1-0.7,0.4-0.9l2.4-2.4
				c0.5-0.5,1.3-0.5,1.9,0l2.4,2.4c0.2,0.2,0.4,0.6,0.4,0.9c0,0.4-0.1,0.7-0.4,0.9l-2.4,2.4C12.7,10.1,12.3,10.2,12,10.2z M12,3.9
				c0,0-0.1,0-0.1,0.1L9.5,6.4c0,0-0.1,0.1-0.1,0.1c0,0,0,0.1,0.1,0.1l2.4,2.4c0.1,0.1,0.2,0.1,0.3,0l2.4-2.4c0,0,0.1-0.1,0.1-0.1
				c0,0,0-0.1-0.1-0.1L12.1,4C12.1,3.9,12,3.9,12,3.9z"/>
		</g>
		<g>
			<path class="st1" d="M12,21.2c-0.3,0-0.7-0.1-0.9-0.4l-2.4-2.4c-0.2-0.2-0.4-0.6-0.4-0.9c0-0.4,0.1-0.7,0.4-0.9l2.4-2.4
				c0.5-0.5,1.3-0.5,1.9,0l2.4,2.4c0.2,0.2,0.4,0.6,0.4,0.9c0,0.4-0.1,0.7-0.4,0.9l-2.4,2.4C12.7,21.1,12.3,21.2,12,21.2z M12,14.9
				c0,0-0.1,0-0.1,0.1l-2.4,2.4c0,0-0.1,0.1-0.1,0.1c0,0,0,0.1,0.1,0.1l2.4,2.4c0.1,0.1,0.2,0.1,0.3,0l2.4-2.4c0,0,0.1-0.1,0.1-0.1
				c0,0,0-0.1-0.1-0.1l-2.4-2.4C12.1,14.9,12,14.9,12,14.9z"/>
		</g>
		<g>
			<path class="st1" d="M17.5,15.7C17.5,15.7,17.5,15.7,17.5,15.7c-0.4,0-0.7-0.1-0.9-0.4l-2.4-2.4c-0.5-0.5-0.5-1.3,0-1.9l2.4-2.4
				c0.2-0.2,0.6-0.4,0.9-0.4c0,0,0,0,0,0c0.4,0,0.7,0.1,0.9,0.4l2.4,2.4c0.5,0.5,0.5,1.3,0,1.9l-2.4,2.4
				C18.2,15.6,17.8,15.7,17.5,15.7z M17.5,9.4c0,0-0.1,0-0.1,0.1l-2.4,2.4c-0.1,0.1-0.1,0.2,0,0.3l2.4,2.4c0,0,0.1,0.1,0.1,0.1h0
				c0,0,0.1,0,0.1-0.1l2.4-2.4c0.1-0.1,0.1-0.2,0-0.3l-2.4-2.4C17.6,9.4,17.5,9.4,17.5,9.4z"/>
		</g>
		<g>
			<path class="st1" d="M6.5,15.7c-0.4,0-0.7-0.1-0.9-0.4l-2.4-2.4c-0.5-0.5-0.5-1.3,0-1.9l2.4-2.4c0.2-0.2,0.6-0.4,0.9-0.4
				c0,0,0,0,0,0c0.4,0,0.7,0.1,0.9,0.4l2.4,2.4c0.5,0.5,0.5,1.3,0,1.9l-2.4,2.4C7.2,15.6,6.9,15.7,6.5,15.7
				C6.5,15.7,6.5,15.7,6.5,15.7z M6.5,9.4c0,0-0.1,0-0.1,0.1L4,11.9c-0.1,0.1-0.1,0.2,0,0.3l2.4,2.4c0.1,0.1,0.2,0.1,0.3,0l2.4-2.4
				c0.1-0.1,0.1-0.2,0-0.3L6.6,9.5C6.6,9.4,6.5,9.4,6.5,9.4C6.5,9.4,6.5,9.4,6.5,9.4z"/>
		</g>
	</g>
</g>
<g id="Stroked">
</g>
<g id="Rough" class="st2">
</g>
</svg>
