<?xml version="1.0" encoding="utf-8"?>
<!-- Generator: Adobe Illustrator 27.1.1, SVG Export Plug-In . SVG Version: 6.00 Build 0)  -->
<svg version="1.1" id="Layer_1" xmlns="http://www.w3.org/2000/svg" xmlns:xlink="http://www.w3.org/1999/xlink" x="0px" y="0px"
	 viewBox="0 0 24 24" style="enable-background:new 0 0 24 24;" xml:space="preserve">
<style type="text/css">
	.st0{fill:none;}
	.st1{fill:#606060;}
	.st2{display:none;}
</style>
<g id="Outline">
	<g>
		<rect class="st0" width="24" height="24"/>
	</g>
</g>
<g id="Icons">
	<g>
		<g id="XMLID_00000012437354300946024520000013164366244461328058_">
			<path class="st1" d="M18.2,21.4H5.8c-1.1,0-2.1-0.9-2.1-2.1V4.7c0-1.1,0.9-2.1,2.1-2.1h8.8c0.6,0,1.3,0.3,1.6,0.8l3.6,4.7
				c0.3,0.4,0.4,0.8,0.4,1.3v9.9C20.2,20.4,19.3,21.4,18.2,21.4z M5.8,3.8c-0.5,0-0.9,0.4-0.9,0.9v14.6c0,0.5,0.4,0.9,0.9,0.9h12.4
				c0.5,0,0.9-0.4,0.9-0.9V9.4c0-0.2-0.1-0.4-0.2-0.6l-3.6-4.7c-0.2-0.2-0.5-0.4-0.7-0.4H5.8z"/>
		</g>
	</g>
	<g>
		<path class="st1" d="M19.7,9.7h-4.4c-0.7,0-1.3-0.6-1.3-1.3V3.2h1.1v5.2c0,0.1,0.1,0.2,0.2,0.2h4.4V9.7z"/>
	</g>
	<g>
		<rect x="9.8" y="11.5" class="st1" width="6.3" height="1.1"/>
	</g>
	<g>
		<circle class="st1" cx="7.6" cy="12.1" r="0.9"/>
	</g>
	<g>
		<rect x="9.8" y="15.1" class="st1" width="6.3" height="1.1"/>
	</g>
	<g>
		<circle class="st1" cx="7.6" cy="15.7" r="0.9"/>
	</g>
</g>
<g id="Stroked">
</g>
<g id="Rough" class="st2">
</g>
</svg>
