<?xml version="1.0" encoding="utf-8"?>
<!-- Generator: Adobe Illustrator 27.1.1, SVG Export Plug-In . SVG Version: 6.00 Build 0)  -->
<svg version="1.1" id="Layer_1" xmlns="http://www.w3.org/2000/svg" xmlns:xlink="http://www.w3.org/1999/xlink" x="0px" y="0px"
	 viewBox="0 0 24 24" style="enable-background:new 0 0 24 24;" xml:space="preserve">
<style type="text/css">
	.st0{fill:none;}
	.st1{fill:#606060;}
	.st2{display:none;}
</style>
<g id="Outline">
	<g>
		<rect class="st0" width="24" height="24"/>
	</g>
</g>
<g id="Icons">
	<g>
		<circle class="st1" cx="12" cy="16.8" r="0.8"/>
	</g>
	<g>
		<path class="st1" d="M20.4,20.6H3.6c-0.6,0-1.2-0.3-1.5-0.8c-0.3-0.5-0.3-1.2,0-1.7l8.4-13.8c0.3-0.5,0.8-0.8,1.4-0.8
			s1.1,0.3,1.4,0.8L21.8,18c0.3,0.5,0.3,1.1,0,1.7C21.6,20.3,21,20.6,20.4,20.6z M11.5,4.8L3.1,18.6c-0.1,0.2-0.1,0.5,0,0.5
			c0,0.1,0.2,0.3,0.5,0.3h16.8c0.3,0,0.4-0.2,0.5-0.3c0-0.1,0.1-0.3,0-0.5L12.5,4.8c-0.1-0.2-0.4-0.3-0.5-0.3S11.7,4.6,11.5,4.8z"/>
	</g>
	<g>
		<path class="st1" d="M12,14.5c-0.3,0-0.6-0.3-0.6-0.6V8.9c0-0.3,0.3-0.6,0.6-0.6c0.3,0,0.6,0.3,0.6,0.6v5.1
			C12.6,14.2,12.3,14.5,12,14.5z"/>
	</g>
</g>
<g id="Stroked">
</g>
<g id="Rough" class="st2">
</g>
</svg>
