<?xml version="1.0" encoding="utf-8"?>
<!-- Generator: Adobe Illustrator 27.1.1, SVG Export Plug-In . SVG Version: 6.00 Build 0)  -->
<svg version="1.1" id="Layer_1" xmlns="http://www.w3.org/2000/svg" xmlns:xlink="http://www.w3.org/1999/xlink" x="0px" y="0px"
	 viewBox="0 0 24 24" style="enable-background:new 0 0 24 24;" xml:space="preserve">
<style type="text/css">
	.st0{fill:none;}
	.st1{fill:#606060;}
	.st2{display:none;}
</style>
<g id="Outline">
	<g>
		<rect class="st0" width="24" height="24"/>
	</g>
</g>
<g id="Icons">
	<g>
		<g>
			<path class="st1" d="M13.8,19.8H3.7C2.8,19.8,2,19,2,18V6c0-1,0.8-1.8,1.8-1.8h10.1c1,0,1.8,0.8,1.8,1.8V18
				C15.6,19,14.8,19.8,13.8,19.8z M3.7,5.3C3.4,5.3,3.1,5.6,3.1,6V18c0,0.4,0.3,0.6,0.6,0.6h10.1c0.4,0,0.6-0.3,0.6-0.6V6
				c0-0.4-0.3-0.6-0.6-0.6C13.8,5.3,3.7,5.3,3.7,5.3z"/>
		</g>
		<g>
			<rect x="5" y="8.5" class="st1" width="7.5" height="1.1"/>
		</g>
		<g>
			<rect x="5" y="11.4" class="st1" width="7.5" height="1.1"/>
		</g>
		<g>
			<rect x="5" y="14.4" class="st1" width="5.2" height="1.1"/>
		</g>
		<g>
			<g id="XMLID_00000064331655044888761400000015744727609177581995_">
				<path class="st1" d="M19.3,19.1c-0.3,0-0.5-0.1-0.7-0.3l-1.7-1.7c-0.2-0.2-0.3-0.4-0.3-0.7l0-9.1c0-0.3,0.1-0.5,0.3-0.7
					c0.2-0.2,0.4-0.3,0.7-0.3l3.4,0c0,0,0,0,0,0c0.3,0,0.5,0.1,0.7,0.3C21.9,6.8,22,7,22,7.3l0,9c0,0.3-0.1,0.5-0.3,0.7l-1.7,1.8
					C19.9,19,19.6,19.1,19.3,19.1C19.3,19.1,19.3,19.1,19.3,19.1z M17.7,16.3l1.6,1.6l1.6-1.7l0-8.9l-3.2,0L17.7,16.3z M17.7,16.3
					L17.7,16.3C17.7,16.3,17.7,16.3,17.7,16.3z M21,7.4L21,7.4L21,7.4L21,7.4z"/>
			</g>
			<g id="XMLID_00000029744378766432785100000017708709960430311570_">
				
					<rect x="17.2" y="8.4" transform="matrix(1 -1.299999e-03 1.299999e-03 1 -1.162614e-02 2.513098e-02)" class="st1" width="4.3" height="1.1"/>
			</g>
		</g>
	</g>
</g>
<g id="Stroked">
</g>
<g id="Rough" class="st2">
</g>
</svg>
