<?xml version="1.0" encoding="utf-8"?>
<!-- Generator: Adobe Illustrator 27.1.1, SVG Export Plug-In . SVG Version: 6.00 Build 0)  -->
<svg version="1.1" id="Layer_1" xmlns="http://www.w3.org/2000/svg" xmlns:xlink="http://www.w3.org/1999/xlink" x="0px" y="0px"
	 viewBox="0 0 24 24" style="enable-background:new 0 0 24 24;" xml:space="preserve">
<style type="text/css">
	.st0{fill:none;}
	.st1{fill:#606060;}
	.st2{fill:#FFFFFF;}
	.st3{display:none;}
</style>
<g id="Outline">
	<g>
		<rect class="st0" width="24" height="24"/>
	</g>
</g>
<g id="Icons">
	<g>
		<path class="st1" d="M16,21H8c-1.1,0-2.1-0.9-2.1-2.1V5.1C5.9,3.9,6.8,3,8,3H16c1.1,0,2.1,0.9,2.1,2.1v13.9
			C18.1,20.1,17.2,21,16,21z M8,4.1C7.5,4.1,7,4.5,7,5.1v13.9c0,0.5,0.4,0.9,0.9,0.9H16c0.5,0,0.9-0.4,0.9-0.9V5.1
			c0-0.5-0.4-0.9-0.9-0.9H8z"/>
	</g>
	<g>
		<path class="st1" d="M13.6,5.3h-3.6C9.8,5.3,9.5,5,9.5,4.7c0-0.3,0.3-0.6,0.6-0.6h3.6c0.3,0,0.6,0.3,0.6,0.6
			C14.2,5,14,5.3,13.6,5.3z"/>
	</g>
	<g>
		<rect x="6.5" y="17.8" class="st1" width="11" height="2.2"/>
	</g>
	<g>
		<rect x="6.5" y="3.9" class="st1" width="11" height="0.8"/>
	</g>
	<g>
		<circle class="st2" cx="12" cy="19.3" r="0.8"/>
	</g>
</g>
<g id="Stroked">
</g>
<g id="Rough" class="st3">
</g>
</svg>
