<?xml version="1.0" encoding="utf-8"?>
<!-- Generator: Adobe Illustrator 27.1.1, SVG Export Plug-In . SVG Version: 6.00 Build 0)  -->
<svg version="1.1" id="Layer_1" xmlns="http://www.w3.org/2000/svg" xmlns:xlink="http://www.w3.org/1999/xlink" x="0px" y="0px"
	 viewBox="0 0 24 24" style="enable-background:new 0 0 24 24;" xml:space="preserve">
<style type="text/css">
	.st0{fill:none;}
	.st1{fill:#606060;}
	.st2{fill:#FFFFFF;}
	.st3{enable-background:new    ;}
	.st4{display:none;}
	.st5{display:inline;fill:#FFFFFF;stroke:#606060;stroke-width:1.5;stroke-miterlimit:10;}
</style>
<rect class="st0" width="24" height="24"/>
<g id="Outline">
</g>
<g id="Icons">
	<g>
		<path class="st1" d="M19.3,21.4H4.7c-0.8,0-1.5-0.7-1.5-1.5V9.6c0-0.2,0.1-0.4,0.1-0.6c0.1-0.2,0.2-0.4,0.4-0.5
			c1.3-1,2.6-2.1,3.9-3.1C8.8,4.5,9.9,3.7,11,2.9c0.6-0.4,1.4-0.4,2,0c1.1,0.8,2.2,1.6,3.3,2.5l0.2,0.2c0.2,0.2,0.4,0.3,1.7,1.3
			C19,7.5,19.6,8,20.2,8.4c0.4,0.3,0.6,0.7,0.6,1.2l0,10.3C20.8,20.8,20.1,21.4,19.3,21.4z M12,3.7c-0.1,0-0.2,0-0.3,0.1
			c-1.1,0.8-2.2,1.6-3.3,2.5c-1.3,1-2.6,2.1-3.9,3.1c0,0-0.1,0.1-0.1,0.1c0,0.1,0,0.1,0,0.2v10.3c0,0.2,0.2,0.4,0.4,0.4h14.6
			c0.2,0,0.4-0.2,0.4-0.4l0-10.3c0-0.1-0.1-0.2-0.2-0.3c-0.6-0.4-1.2-1-2-1.5c-1.3-1-1.5-1.2-1.7-1.3l-0.3-0.2
			c-1.1-0.8-2.2-1.7-3.2-2.5C12.2,3.7,12.1,3.7,12,3.7z"/>
	</g>
	<g id="Path_60990_00000172401638722241826900000013870760304580688262_">
		<path class="st2" d="M16.8,5.4v5.8c-1.6,1.2-3.2,2.4-4.8,3.6c-1.6-1.2-3.2-2.4-4.8-3.6V5.4c0-0.5,0.4-0.8,0.8-0.8l0,0h7.9
			C16.4,4.6,16.8,4.9,16.8,5.4L16.8,5.4"/>
		<path class="st1" d="M12,15.5l-5.4-4V5.4C6.6,4.6,7.3,4,8,4h7.9c0.8,0,1.4,0.6,1.4,1.4h-1.1c0-0.1-0.1-0.3-0.3-0.3H8
			c-0.1,0-0.3,0.1-0.3,0.3v5.5l4.2,3.2l4.2-3.2V5.4h1.1v6.1L12,15.5z"/>
	</g>
	<g>
		<rect x="7.4" y="7.1" transform="matrix(0.5657 -0.8246 0.8246 0.5657 -6.4493 11.7687)" class="st1" width="1.1" height="9.8"/>
	</g>
	<g>
		
			<rect x="10.8" y="11.4" transform="matrix(0.8244 -0.5661 0.5661 0.8244 -4.0291 11.0296)" class="st1" width="9.8" height="1.1"/>
	</g>
	<g class="st3">
		<path class="st1" d="M14.4,8.9c0,0.3,0,0.5-0.1,0.8c-0.1,0.2-0.2,0.4-0.4,0.5s-0.4,0.2-0.6,0.2c-0.1,0-0.3,0-0.4-0.1
			c-0.1-0.1-0.2-0.2-0.2-0.3h0c-0.2,0.3-0.5,0.4-0.8,0.4c-0.3,0-0.6-0.1-0.8-0.3c-0.2-0.2-0.3-0.5-0.3-0.9c0-0.4,0.1-0.7,0.4-1
			c0.3-0.3,0.6-0.4,1-0.4c0.2,0,0.4,0,0.6,0S13,8,13.2,8l-0.1,1.4c0,0.3,0.1,0.4,0.2,0.4c0.1,0,0.2-0.1,0.3-0.3
			c0.1-0.2,0.1-0.4,0.1-0.7c0-0.3-0.1-0.6-0.2-0.8c-0.1-0.2-0.3-0.4-0.6-0.6c-0.2-0.1-0.5-0.2-0.8-0.2c-0.4,0-0.7,0.1-1,0.2
			s-0.5,0.4-0.7,0.7s-0.2,0.7-0.2,1.1c0,0.5,0.1,1,0.4,1.2s0.7,0.4,1.3,0.4c0.2,0,0.4,0,0.7-0.1c0.2,0,0.5-0.1,0.7-0.2v0.6
			c-0.4,0.2-0.9,0.3-1.4,0.3c-0.7,0-1.3-0.2-1.7-0.6S9.6,10,9.6,9.3c0-0.5,0.1-0.9,0.3-1.3s0.5-0.7,0.9-0.9s0.8-0.3,1.4-0.3
			c0.4,0,0.8,0.1,1.2,0.3c0.3,0.2,0.6,0.4,0.8,0.8C14.3,8.1,14.4,8.4,14.4,8.9z M11.4,9.2c0,0.4,0.2,0.6,0.5,0.6
			c0.2,0,0.3-0.1,0.4-0.2c0.1-0.1,0.1-0.3,0.2-0.6l0-0.6c-0.1,0-0.2,0-0.3,0c-0.2,0-0.4,0.1-0.6,0.2S11.4,9,11.4,9.2z"/>
	</g>
</g>
<g id="Stroked">
</g>
<g id="Rough" class="st4">
	<path id="Path_60990_00000014623842675177323700000017330072499458119581_" class="st5" d="M41.3-11.8v7.7
		c-2.1,1.6-4.2,3.2-6.4,4.8c-2.1-1.6-4.3-3.2-6.4-4.8v-7.7c0-0.6,0.5-1.1,1.1-1.1l0,0h10.6C40.8-12.9,41.3-12.4,41.3-11.8L41.3-11.8
		"/>
</g>
</svg>
