<?xml version="1.0" encoding="utf-8"?>
<!-- Generator: Adobe Illustrator 27.1.1, SVG Export Plug-In . SVG Version: 6.00 Build 0)  -->
<svg version="1.1" id="Layer_1" xmlns="http://www.w3.org/2000/svg" xmlns:xlink="http://www.w3.org/1999/xlink" x="0px" y="0px"
	 viewBox="0 0 24 24" style="enable-background:new 0 0 24 24;" xml:space="preserve">
<style type="text/css">
	.st0{fill:none;}
	.st1{fill:#606060;}
	.st2{display:none;}
</style>
<g id="Outline">
	<g>
		<rect class="st0" width="24" height="24"/>
	</g>
</g>
<g id="Icons">
	<g>
		<g>
			<path class="st1" d="M7.5,12.3c-0.3-0.4-0.9-0.7-1.8-1c-0.5-0.2-0.8-0.3-1-0.4c-0.2-0.1-0.3-0.2-0.4-0.3
				c-0.1-0.1-0.1-0.3-0.1-0.5c0-0.3,0.1-0.4,0.3-0.6C4.7,9.3,5,9.2,5.4,9.2c0.6,0,1.1,0.1,1.7,0.4l0.3,0.1l0.5-1.4L7.6,8.2
				C7,7.9,6.2,7.7,5.4,7.7c-0.8,0-1.5,0.2-2,0.6c-0.5,0.4-0.8,1-0.8,1.7c0,0.6,0.2,1.2,0.5,1.6c0.3,0.4,0.9,0.7,1.7,1
				c0.5,0.2,0.9,0.3,1.1,0.5c0.2,0.1,0.3,0.2,0.4,0.4c0.1,0.1,0.1,0.3,0.1,0.5c0,0.3-0.1,0.5-0.3,0.7c-0.2,0.2-0.6,0.3-1.1,0.3
				c-0.3,0-0.7,0-1-0.1c-0.3-0.1-0.7-0.2-1-0.3l-0.5-0.2v1.6l0.2,0.1C3.3,16.2,4,16.3,5,16.3c0.9,0,1.7-0.2,2.2-0.6
				C7.7,15.2,8,14.6,8,13.8C8,13.2,7.9,12.7,7.5,12.3z"/>
		</g>
		<g>
			<path class="st1" d="M11.6,7.9L11.6,7.9L11.6,7.9H11l-3.3,8.4h1.6l0.9-2.4h2.6l1,2.4h1.6l-3.3-8.4H11.6z M10.9,12.4l0.7-1.9
				c0,0,0,0,0-0.1c0,0,0,0.1,0,0.1l0.7,1.9L10.9,12.4L10.9,12.4z"/>
		</g>
		<g>
			<path class="st1" d="M18.3,7.9h-2.3v8.4h1.6v-3h0.6c1.1,0,1.9-0.2,2.5-0.7c0.6-0.5,0.9-1.2,0.9-2.1C21.5,9.3,20.9,7.9,18.3,7.9z
				 M17.5,9.4h0.7c0.6,0,1.1,0.1,1.4,0.3c0.2,0.2,0.4,0.5,0.4,0.9c0,0.5-0.1,0.8-0.4,1c-0.3,0.2-0.8,0.3-1.5,0.3h-0.5L17.5,9.4
				L17.5,9.4L17.5,9.4z"/>
		</g>
	</g>
</g>
<g id="Stroked">
</g>
<g id="Rough" class="st2">
</g>
</svg>
