<?xml version="1.0" encoding="utf-8"?>
<!-- Generator: Adobe Illustrator 27.1.1, SVG Export Plug-In . SVG Version: 6.00 Build 0)  -->
<svg version="1.1" id="Layer_1" xmlns="http://www.w3.org/2000/svg" xmlns:xlink="http://www.w3.org/1999/xlink" x="0px" y="0px"
	 viewBox="0 0 24 24" style="enable-background:new 0 0 24 24;" xml:space="preserve">
<style type="text/css">
	.st0{fill:none;}
	.st1{fill:#616160;}
	.st2{display:none;}
</style>
<rect class="st0" width="24" height="24"/>
<g id="Outline">
</g>
<g id="Icons">
	<g>
		<path class="st1" d="M3.6,8.3H2.5V4.5c0-1.1,0.9-2.1,2.1-2.1h3.9v1.1H4.5C4,3.6,3.6,4,3.6,4.5V8.3z"/>
	</g>
	<g>
		<path class="st1" d="M8.3,21.5H4.5c-1.1,0-2.1-0.9-2.1-2.1v-3.9h1.1v3.9c0,0.5,0.4,0.9,0.9,0.9h3.8L8.3,21.5L8.3,21.5z"/>
	</g>
	<g>
		<path class="st1" d="M19.5,21.5h-3.9v-1.1h3.9c0.5,0,0.9-0.4,0.9-0.9v-3.9h1.1v3.9C21.5,20.6,20.6,21.5,19.5,21.5z"/>
	</g>
	<g>
		<path class="st1" d="M21.5,8.3h-1.1V4.5c0-0.5-0.4-0.9-0.9-0.9h-3.8V2.5h3.8c1.1,0,2.1,0.9,2.1,2.1V8.3z"/>
	</g>
	<g>
		<rect x="3.5" y="12.7" class="st1" width="17" height="1.1"/>
	</g>
	<g>
		<path class="st1" d="M15.9,11.7h-1.1V8.1c0-0.1-0.1-0.2-0.2-0.2H9.4C9.3,7.9,9.2,8,9.2,8.1v3.5H8.1V8.1c0-0.7,0.6-1.3,1.3-1.3h5.3
			c0.7,0,1.3,0.6,1.3,1.3V11.7z"/>
	</g>
	<g>
		<path class="st1" d="M14.6,17.2H9.4c-0.7,0-1.3-0.6-1.3-1.3v-1.1h1.1v1.1c0,0.1,0.1,0.2,0.2,0.2h5.3c0.1,0,0.2-0.1,0.2-0.2v-1.1
			h1.1v1.1C15.9,16.6,15.4,17.2,14.6,17.2z"/>
	</g>
</g>
<g id="Stroked">
</g>
<g id="Rough" class="st2">
</g>
</svg>
