<?xml version="1.0" encoding="utf-8"?>
<!-- Generator: Adobe Illustrator 27.1.1, SVG Export Plug-In . SVG Version: 6.00 Build 0)  -->
<svg version="1.1" id="Layer_1" xmlns="http://www.w3.org/2000/svg" xmlns:xlink="http://www.w3.org/1999/xlink" x="0px" y="0px"
	 viewBox="0 0 24 24" style="enable-background:new 0 0 24 24;" xml:space="preserve">
<style type="text/css">
	.st0{fill:none;}
	.st1{fill:#606060;}
	.st2{display:none;}
</style>
<g id="Outline">
	<g>
		<rect class="st0" width="24" height="24"/>
	</g>
</g>
<g id="Icons">
	<g>
		<path class="st1" d="M18.2,21.5H5.8c-1.1,0-2.1-0.9-2.1-2.1v-15c0-1.1,0.9-2.1,2.1-2.1h12.5c1.1,0,2.1,0.9,2.1,2.1v15
			C20.3,20.6,19.4,21.5,18.2,21.5z M5.8,3.6C5.2,3.6,4.8,4,4.8,4.5v15c0,0.5,0.4,0.9,0.9,0.9h12.5c0.5,0,0.9-0.4,0.9-0.9v-15
			c0-0.5-0.4-0.9-0.9-0.9H5.8z"/>
	</g>
	<g>
		<g>
			<g>
				<rect x="10.6" y="7.8" class="st1" width="6.3" height="1.1"/>
			</g>
			<g>
				<circle class="st1" cx="8" cy="8.4" r="0.9"/>
			</g>
		</g>
		<g>
			<g>
				<rect x="10.6" y="11.4" class="st1" width="6.3" height="1.1"/>
			</g>
			<g>
				<circle class="st1" cx="8" cy="12" r="0.9"/>
			</g>
		</g>
		<g>
			<g>
				<rect x="10.6" y="15.1" class="st1" width="6.3" height="1.1"/>
			</g>
			<g>
				<circle class="st1" cx="8" cy="15.6" r="0.9"/>
			</g>
		</g>
	</g>
</g>
<g id="Stroked">
</g>
<g id="Rough" class="st2">
</g>
</svg>
