<?xml version="1.0" encoding="utf-8"?>
<!-- Generator: Adobe Illustrator 27.1.0, SVG Export Plug-In . SVG Version: 6.00 Build 0)  -->
<svg version="1.1" id="Layer_1" xmlns="http://www.w3.org/2000/svg" xmlns:xlink="http://www.w3.org/1999/xlink" x="0px" y="0px"
	 viewBox="0 0 100 100" enable-background="new 0 0 100 100" xml:space="preserve">
<g>
	<g>
		<path fill="#BABABA" d="M28.4892,16.6861l-0.1889,57.0883c-0.0148,4.4519,3.5741,8.0755,8.026,8.0903l39.9464,0.1321
			c4.4519,0.0148,8.0647-3.5851,8.0794-8.037l0.1442-43.569L62.9959,8.7477L36.5686,8.6603
			C32.1166,8.6456,28.5039,12.2344,28.4892,16.6861z"/>
		<path fill="#E8E8E8" d="M84.6319,30.6494L63.3155,8.8059l-0.0612,13.6293c-0.0201,4.4879,3.538,8.1341,7.9574,8.1539
			L84.6319,30.6494z"/>
		<path fill="#A6A4A4" d="M42.0223,49.1504h-3c-1.1046,0-2-0.8954-2-2v-3c0-1.1046,0.8954-2,2-2h3c1.1046,0,2,0.8954,2,2v3
			C44.0223,48.255,43.1269,49.1504,42.0223,49.1504z"/>
		<path fill="#A6A4A4" d="M42.0223,61.6622h-3c-1.1046,0-2-0.8954-2-2v-3c0-1.1046,0.8954-2,2-2h3c1.1046,0,2,0.8954,2,2v3
			C44.0223,60.7668,43.1269,61.6622,42.0223,61.6622z"/>
		<path fill="#A6A4A4" d="M75.2953,60.6391H51.0807c-0.9292,0-1.6825-0.7533-1.6825-1.6825v-1.5888
			c0-0.9292,0.7533-1.6825,1.6825-1.6825h24.2146c0.9292,0,1.6825,0.7533,1.6825,1.6825v1.5888
			C76.9778,59.8859,76.2245,60.6391,75.2953,60.6391z"/>
		<path fill="#A6A4A4" d="M75.2953,48.1273H51.0807c-0.9292,0-1.6825-0.7533-1.6825-1.6825V44.856
			c0-0.9292,0.7533-1.6825,1.6825-1.6825h24.2146c0.9292,0,1.6825,0.7533,1.6825,1.6825v1.5888
			C76.9778,47.374,76.2245,48.1273,75.2953,48.1273z"/>
	</g>
	<g>
		<path fill="#E8E8E8" d="M15.557,26.029l-0.1889,57.0883c-0.0148,4.4519,3.5741,8.0755,8.026,8.0903l39.9464,0.1321
			c4.4519,0.0148,8.0647-3.5851,8.0794-8.037l0.1442-43.569L50.0637,18.0906l-26.4273-0.0874
			C19.1845,17.9885,15.5717,21.5773,15.557,26.029z"/>
		<path fill="#F4F4F4" d="M71.6997,39.9923L50.3833,18.1487l-0.0612,13.6293c-0.0201,4.4879,3.538,8.1341,7.9574,8.1539
			L71.6997,39.9923z"/>
		<path fill="#BABABA" d="M29.0901,58.4933h-3c-1.1046,0-2-0.8954-2-2v-3c0-1.1046,0.8954-2,2-2h3c1.1046,0,2,0.8954,2,2v3
			C31.0901,57.5979,30.1947,58.4933,29.0901,58.4933z"/>
		<path fill="#BABABA" d="M29.0901,71.0051h-3c-1.1046,0-2-0.8954-2-2v-3c0-1.1046,0.8954-2,2-2h3c1.1046,0,2,0.8954,2,2v3
			C31.0901,70.1097,30.1947,71.0051,29.0901,71.0051z"/>
		<path fill="#BABABA" d="M62.3632,69.982H38.1486c-0.9292,0-1.6825-0.7533-1.6825-1.6825v-1.5888
			c0-0.9292,0.7533-1.6825,1.6825-1.6825h24.2146c0.9292,0,1.6825,0.7533,1.6825,1.6825v1.5888
			C64.0456,69.2287,63.2924,69.982,62.3632,69.982z"/>
		<path fill="#BABABA" d="M62.3632,57.4702H38.1486c-0.9292,0-1.6825-0.7533-1.6825-1.6825v-1.5888
			c0-0.9292,0.7533-1.6825,1.6825-1.6825h24.2146c0.9292,0,1.6825,0.7533,1.6825,1.6825v1.5888
			C64.0456,56.7169,63.2924,57.4702,62.3632,57.4702z"/>
	</g>
</g>
<rect fill="none" width="100" height="100"/>
</svg>
