<?xml version="1.0" encoding="utf-8"?>
<!-- Generator: Adobe Illustrator 27.1.0, SVG Export Plug-In . SVG Version: 6.00 Build 0)  -->
<svg version="1.1" id="Layer_1" xmlns="http://www.w3.org/2000/svg" xmlns:xlink="http://www.w3.org/1999/xlink" x="0px" y="0px"
	 viewBox="0 0 100 100" enable-background="new 0 0 100 100" xml:space="preserve">
<g>
	<path fill="#E8E8E8" d="M22.0231,21.3575l-0.1889,57.0883c-0.0148,4.4519,3.5741,8.0755,8.026,8.0903l39.9464,0.1321
		c4.4519,0.0148,8.0647-3.5851,8.0794-8.037l0.1442-43.569L56.5298,13.4192l-26.4273-0.0874
		C25.6506,13.317,22.0378,16.9059,22.0231,21.3575z"/>
	<path fill="#F4F4F4" d="M78.1658,35.3208L56.8494,13.4773l-0.0612,13.6293c-0.0201,4.4879,3.538,8.1341,7.9574,8.1539
		L78.1658,35.3208z"/>
	<path fill="#BABABA" d="M35.5562,53.8219h-3c-1.1046,0-2-0.8954-2-2v-3c0-1.1046,0.8954-2,2-2h3c1.1046,0,2,0.8954,2,2v3
		C37.5562,52.9264,36.6608,53.8219,35.5562,53.8219z"/>
	<path fill="#BABABA" d="M35.5562,66.3337h-3c-1.1046,0-2-0.8954-2-2v-3c0-1.1046,0.8954-2,2-2h3c1.1046,0,2,0.8954,2,2v3
		C37.5562,65.4382,36.6608,66.3337,35.5562,66.3337z"/>
	<path fill="#BABABA" d="M68.8293,65.3106H44.6147c-0.9292,0-1.6825-0.7533-1.6825-1.6825v-1.5888
		c0-0.9292,0.7533-1.6825,1.6825-1.6825h24.2146c0.9292,0,1.6825,0.7533,1.6825,1.6825v1.5888
		C70.5117,64.5573,69.7585,65.3106,68.8293,65.3106z"/>
	<path fill="#BABABA" d="M68.8293,52.7987H44.6147c-0.9292,0-1.6825-0.7533-1.6825-1.6825v-1.5888
		c0-0.9292,0.7533-1.6825,1.6825-1.6825h24.2146c0.9292,0,1.6825,0.7533,1.6825,1.6825v1.5888
		C70.5117,52.0455,69.7585,52.7987,68.8293,52.7987z"/>
</g>
<rect fill="none" width="100" height="100"/>
</svg>
