<svg xmlns="http://www.w3.org/2000/svg" width="16" height="16" viewBox="0 0 16 16">
  <g id="Group_82176" data-name="Group 82176" transform="translate(-482 -288)">
    <rect id="Rectangle_26722" data-name="Rectangle 26722" width="16" height="16" rx="2" transform="translate(482 288)" fill="none"/>
    <g id="Group_64074" data-name="Group 64074" transform="translate(483 288.952)">
      <g id="Pin" transform="translate(0 0)">
        <path id="Path_55663" data-name="Path 55663" d="M13.627,7.163l.31-.31a.219.219,0,0,0,0-.309L7.455.064a.219.219,0,0,0-.309,0l-.31.31a.218.218,0,0,0,0,.309l.874.874L4.9,4.367l-.634-.634a.851.851,0,0,0-1-.27L.635,4.763a1.234,1.234,0,0,0-.619.879A.858.858,0,0,0,.23,6.42L3.687,9.876a.3.3,0,0,0-.039.029L.405,13.519a.175.175,0,0,0,.248.248l3.615-3.243L4.3,10.49l3.452,3.453h0a.867.867,0,0,0,.622.249,1.028,1.028,0,0,0,.2-.021,1.054,1.054,0,0,0,.773-.6l1.212-2.9a.9.9,0,0,0-.325-.961L9.633,9.1l2.811-2.81.874.874A.218.218,0,0,0,13.627,7.163ZM8.4,9.1l1.226,1.227c.022.022.065.064.1.1L8.545,13.231a.233.233,0,0,1-.181.086L.877,5.844a.406.406,0,0,1,.139-.292L3.58,4.286l.069.067L4.9,5.6,8.329,2.176l3.5,3.5Z" fill="#0072c6"/>
      </g>
    </g>
  </g>
</svg>
