<?xml version="1.0" encoding="utf-8"?>
<!-- Generator: Adobe Illustrator 26.4.1, SVG Export Plug-In . SVG Version: 6.00 Build 0)  -->
<svg version="1.1" id="Layer_1" xmlns="http://www.w3.org/2000/svg" xmlns:xlink="http://www.w3.org/1999/xlink" x="0px" y="0px"
	 viewBox="0 0 24 24" style="enable-background:new 0 0 24 24;" xml:space="preserve">
<style type="text/css">
	.st0{fill:none;stroke:#616160;stroke-miterlimit:10;}
	.st1{fill:#FFFFFF;}
	.st2{fill:none;stroke:#606060;stroke-linecap:round;stroke-miterlimit:10;}
	.st3{fill:none;stroke:#606060;stroke-miterlimit:10;}
	.st4{fill:#606060;}
	.st5{fill:none;}
	.st6{fill-rule:evenodd;clip-rule:evenodd;fill:#0D6F08;}
	.st7{fill:none;stroke:#FFFFFF;stroke-width:0.5;stroke-miterlimit:10;}
	.st8{fill:#FFFFFF;stroke:#606060;stroke-miterlimit:10;}
	.st9{fill:none;stroke:#FFFFFF;stroke-miterlimit:10;}
	.st10{display:none;}
	.st11{fill:none;stroke:#FFFFFF;stroke-width:3;stroke-miterlimit:10;}
	.st12{fill:#616160;}
	.st13{fill:#009900;}
</style>
<g>
	<path class="st12" d="M17.165,5.325c-0.12-1.6-3.81-2.33-7.24-2.33s-7.12,0.73-7.24,2.33c-0.01,0.03-0.01,0.05-0.01,0.08v11.18
		c0,1.66,3.76,2.41,7.25,2.41c1.31,0,2.64-0.11,3.81-0.32c-0.04-0.24-0.06-0.49-0.06-0.74c0-0.09,0-0.18,0.01-0.27
		c-0.97,0.19-2.22,0.33-3.76,0.33c-4.12,0-6.25-0.99-6.25-1.41v-4.45c1.35,0.75,3.86,1.11,6.25,1.11c0.49,0,0.99-0.01,1.48-0.04
		l-0.97-0.97c-0.17,0.01-0.34,0.01-0.51,0.01c-4.12,0-6.25-0.99-6.25-1.42v-4.11c1.35,0.75,3.86,1.11,6.25,1.11s4.9-0.36,6.25-1.11
		v7.14c0.03-0.01,0.05-0.03,0.08-0.04c0.29-0.14,0.6-0.26,0.92-0.33v-8.08C17.175,5.375,17.175,5.355,17.165,5.325z M9.925,6.825
		c-4.12,0-6.25-0.9901-6.25-1.42c0-0.42,2.13-1.41,6.25-1.41c4.13,0,6.25,0.99,6.25,1.41C16.175,5.835,14.055,6.825,9.925,6.825z"/>
</g>
<g id="XMLID_00000023965686305327185940000012514579484744727482_">
	<path class="st12" d="M17.175,5.325v0.08c0-0.03,0-0.05-0.01-0.08H17.175z"/>
</g>
<g id="XMLID_00000105407578806612709120000018322306867820983959_">
	<path class="st12" d="M2.685,5.325c-0.01,0.03-0.01,0.05-0.01,0.08v-0.08H2.685z"/>
</g>
<g>
	<path class="st4" d="M7.275,9.855c0,0.59-0.47,1.07-1.06,1.07c-0.59,0-1.07-0.48-1.07-1.07c0-0.6,0.48-1.08,1.07-1.08
		C6.805,8.775,7.275,9.255,7.275,9.855z"/>
</g>
<g>
	<path class="st4" d="M7.275,15.415c0,0.59-0.47,1.07-1.06,1.07c-0.59,0-1.07-0.48-1.07-1.07c0-0.59,0.48-1.07,1.07-1.07
		C6.805,14.345,7.275,14.825,7.275,15.415z"/>
</g>
<g>
	<path class="st4" d="M18.255,14.855c-0.67,0-1.3,0.22-1.8,0.58l-3.5-3.5l1.26-1.26l-0.7-0.71l-1.26,1.26l-0.85-0.85l-0.71,0.71
		l5.06,5.05c-0.37,0.5-0.58,1.13-0.58,1.8c0,1.69,1.38,3.07,3.08,3.07c1.69,0,3.07-1.38,3.07-3.07
		C21.325,16.235,19.945,14.855,18.255,14.855z M18.255,20.005c-1.15,0-2.08-0.93-2.08-2.07c0-1.15,0.93-2.08,2.08-2.08
		c1.14,0,2.07,0.93,2.07,2.08C20.325,19.075,19.395,20.005,18.255,20.005z"/>
</g>
<circle class="st4" cx="18.2501" cy="17.9304" r="0.5716"/>
</svg>
