<?xml version="1.0" encoding="UTF-8"?><svg id="Layer_6" xmlns="http://www.w3.org/2000/svg" viewBox="0 0 24 24"><rect width="24" height="24" style="fill:none;"/><rect x="10" y="3.41" width="4" height="4" rx=".5" ry=".5" style="fill:#606060;"/><rect x="10.5" y="17.41" width="3" height="3" rx=".5" ry=".5" style="fill:#606060;"/><rect x="4" y="17.41" width="3" height="3" rx=".5" ry=".5" style="fill:#606060;"/><rect x="17" y="17.41" width="3" height="3" rx=".5" ry=".5" style="fill:#606060;"/><rect x="11.46" y="5.45" width="1" height="12.24" style="fill:#606060;"/><path d="M6.06,18.15h-1v-4.61c0-.23,.13-.44,.36-.56l6.33-3.37,.47,.88-6.15,3.28v4.38Z" style="fill:#606060;"/><path d="M19.06,18.15h-1v-4.38l-6.15-3.28,.47-.88,6.32,3.37c.22,.12,.36,.33,.36,.56v4.61Z" style="fill:#606060;"/></svg>