<?xml version="1.0" encoding="utf-8"?>
<!-- Generator: Adobe Illustrator 26.2.1, SVG Export Plug-In . SVG Version: 6.00 Build 0)  -->
<svg version="1.1" id="Layer_1" xmlns="http://www.w3.org/2000/svg" xmlns:xlink="http://www.w3.org/1999/xlink" x="0px" y="0px"
	 viewBox="0 0 16 16" style="enable-background:new 0 0 16 16;" xml:space="preserve">
<style type="text/css">
	.st0{fill:#616160;}
	.st1{fill:none;}
</style>
<g>
	<path class="st0" d="M11.244,8.8018l-0.3547-0.3533c-0.0978-0.0974-0.2561-0.0971-0.3535,0.0007L8.5023,10.49V1.2498
		c0-0.1381-0.1119-0.25-0.25-0.25h-0.5c-0.1381,0-0.25,0.1119-0.25,0.25v9.2431L5.4648,8.445
		C5.3674,8.3472,5.2091,8.3468,5.1112,8.4442L4.7566,8.7971C4.6587,8.8944,4.6584,9.0527,4.7557,9.1506l3.2446,3.2603l3.2444-3.2555
		C11.3422,9.0576,11.3419,8.8993,11.244,8.8018z"/>
	<path class="st0" d="M14.0003,9.741v4.2588h-12V9.741c0-0.1381-0.1119-0.25-0.25-0.25h-0.5c-0.1381,0-0.25,0.1119-0.25,0.25v4.2588
		c0,0.5523,0.4477,1,1,1h12c0.5523,0,1-0.4477,1-1V9.741c0-0.1381-0.1119-0.25-0.25-0.25h-0.5
		C14.1122,9.491,14.0003,9.6029,14.0003,9.741z"/>
	<rect class="st1" width="16" height="16"/>
</g>
</svg>
