<?xml version="1.0" encoding="UTF-8"?><svg xmlns="http://www.w3.org/2000/svg" viewBox="0 0 24 24"><g id="Layer_6"><rect width="24" height="24" style="fill:none;"/></g><g id="Layer_7"><path d="M18.32,20.86h-3.5c-.41,0-.75-.34-.75-.75v-7.5c0-.41,.34-.75,.75-.75h3.5c.41,0,.75,.34,.75,.75v7.5c0,.41-.34,.75-.75,.75Zm-3.25-1h3v-7h-3v7Z" style="fill:#0072c6;"/><path d="M10.32,20.86h-3.5c-.41,0-.75-.34-.75-.75v-4.5c0-.41,.34-.75,.75-.75h3.5c.41,0,.75,.34,.75,.75v4.5c0,.41-.34,.75-.75,.75Zm-3.25-1h3v-4h-3v4Z" style="fill:#0072c6;"/><g><rect x="5.19" y="7.45" width="13.76" height="1" rx=".25" ry=".25" transform="translate(-2.39 7.96) rotate(-33.41)" style="fill:#0072c6;"/><path d="M17.71,8.97c-.03,.13-.16,.22-.3,.19l-.49-.11c-.13-.03-.22-.16-.19-.3l.94-4.33c.03-.13-.06-.27-.19-.3l-4.18-.89c-.13-.03-.22-.16-.19-.3l.1-.49c.03-.13,.16-.22,.3-.19l4.42,.94c.13,.03,.35,.1,.47,.15,0,0,.13,.06,.24,.23s.11,.32,.11,.32c0,.14-.03,.36-.06,.49l-1,4.58Z" style="fill:#0072c6;"/></g></g></svg>