<?xml version="1.0" encoding="UTF-8"?><svg xmlns="http://www.w3.org/2000/svg" viewBox="0 0 24 24"><g id="Layer_6"><rect width="24" height="24" style="fill:none;"/></g><g id="Layer_7"><g id="Layer_1"><path d="M11.08,21.26L2.7,12.91c-.51-.5-.51-1.32,0-1.83L11.08,2.74c.51-.5,1.33-.5,1.84,0l8.38,8.35c.51,.5,.51,1.32,0,1.83l-8.38,8.35c-.51,.5-1.33,.5-1.84,0Z" style="fill:none;"/><path d="M12,22c-.42,0-.85-.16-1.17-.48L2.45,13.17c-.31-.31-.49-.73-.49-1.17s.17-.86,.49-1.17L10.83,2.48c.65-.64,1.7-.64,2.34,0l8.38,8.35c.31,.31,.49,.73,.49,1.17s-.17,.86-.49,1.17l-8.38,8.35c-.32,.32-.75,.48-1.17,.48Zm-.67-.99c.37,.37,.96,.37,1.33,0l8.38-8.35c.18-.18,.27-.41,.27-.66s-.1-.48-.27-.66L12.67,2.99c-.37-.37-.96-.37-1.33,0L2.96,11.34c-.18,.18-.27,.41-.27,.66s.1,.48,.27,.66l8.38,8.35Z" style="fill:#606060;"/><path d="M12.03,17.33c-2.97,0-5.38-2.41-5.38-5.38s2.41-5.38,5.38-5.38,5.38,2.41,5.38,5.38c0,2.97-2.41,5.37-5.38,5.38Zm0-9.4c-2.22,0-4.02,1.8-4.02,4.02s1.8,4.02,4.02,4.02,4.02-1.8,4.02-4.02c0-2.22-1.8-4.02-4.02-4.02Z" style="fill:#606060;"/></g></g></svg>