<?xml version="1.0" encoding="utf-8"?>
<!-- Generator: Adobe Illustrator 27.3.1, SVG Export Plug-In . SVG Version: 6.00 Build 0)  -->
<svg version="1.1" id="Layer_1" xmlns="http://www.w3.org/2000/svg" xmlns:xlink="http://www.w3.org/1999/xlink" x="0px" y="0px"
	 viewBox="0 0 16 16" style="enable-background:new 0 0 16 16;" xml:space="preserve">
<style type="text/css">
	.st0{fill:#0072C6;}
	.st1{fill:none;}
</style>
<g id="Outline">
</g>
<g id="Icons">
	<g>
		<g>
			<path class="st0" d="M8.3,3.4c0.1,0.3,0.2,0.5,0.3,0.7s0.2,0.3,0.3,0.6C9,5,9,5.3,9,5.6c0,0.3-0.2,0.6-0.4,0.8
				c0-0.3-0.1-0.5-0.2-0.7c0-0.3-0.1-0.5-0.2-0.7c0-0.1-0.1-0.2-0.1-0.4C8,4.5,8,4.4,8,4.2C8,3.9,8.1,3.7,8.3,3.4z"/>
		</g>
	</g>
	<g>
		<g>
			<path class="st0" d="M7.5,4.5C7.6,4.8,7.6,5,7.7,5.1C7.8,5.2,7.9,5.3,8,5.5c0.1,0.1,0.1,0.2,0.2,0.4c0,0.1,0,0.3,0,0.4
				c0,0.3-0.2,0.5-0.4,0.6C7.7,6.7,7.7,6.5,7.6,6.3c0-0.1-0.1-0.1-0.1-0.2C7.5,6,7.4,6,7.4,5.9C7.3,5.8,7.1,5.5,7.2,5.2
				C7.2,4.9,7.3,4.7,7.5,4.5z"/>
		</g>
	</g>
	<g>
		<polygon class="st0" points="2.8,9.5 2.8,6.5 4.3,8 		"/>
	</g>
	<g>
		<path class="st0" d="M12.6,8.5c-0.1-0.5-0.5-0.8-1-0.8c-0.1,0-0.2,0-0.3,0.1V7.6c0-0.2-0.2-0.3-0.3-0.3H5.2C5,7.3,4.8,7.4,4.8,7.6
			v0.8c0,1.2,0.7,2.3,1.6,2.8h-1c-0.2,0-0.4,0.2-0.4,0.4S5.2,12,5.4,12h5.4c0.2,0,0.4-0.2,0.4-0.4s-0.2-0.4-0.4-0.4H9.7
			c0.4-0.2,0.8-0.6,1-0.9c0.1,0,0.1,0,0.2,0c0.5,0,1-0.1,1.4-0.7C12.6,9.3,12.7,8.9,12.6,8.5z M11.9,9.3c-0.2,0.3-0.5,0.4-0.9,0.4
			c0.2-0.4,0.3-0.9,0.3-1.4l0,0c0.1,0,0.2-0.1,0.4-0.1c0.3,0,0.4,0.2,0.4,0.3C12.1,8.8,12.1,9.1,11.9,9.3z"/>
	</g>
	<g>
		<path class="st0" d="M8,15c-3.9,0-7-3.2-7-7s3.2-7,7-7s7,3.2,7,7S11.9,15,8,15z M8,1.9C4.6,1.9,1.9,4.6,1.9,8s2.7,6.1,6.1,6.1
			s6.1-2.7,6.1-6.1S11.4,1.9,8,1.9z"/>
	</g>
</g>
<g id="Layer_3">
</g>
<rect class="st1" width="16" height="16"/>
</svg>
