<?xml version="1.0" encoding="utf-8"?>
<!-- Generator: Adobe Illustrator 27.3.1, SVG Export Plug-In . SVG Version: 6.00 Build 0)  -->
<svg version="1.1" id="Layer_1" xmlns="http://www.w3.org/2000/svg" xmlns:xlink="http://www.w3.org/1999/xlink" x="0px" y="0px"
	 viewBox="0 0 16 16" style="enable-background:new 0 0 16 16;" xml:space="preserve">
<style type="text/css">
	.st0{fill:#0072C6;}
	.st1{fill:none;}
</style>
<g id="Outline">
</g>
<g>
	<path class="st0" d="M6.9,3.6C6.9,3.8,7,4,7.1,4.3c0.2,0.4,0.4,0.6,0.4,0.8c0.1,0.3,0.1,0.7-0.4,1.4c0-0.1,0-0.2,0-0.4
		C7,5.7,6.8,5.6,6.7,5.2C6.6,4.9,6.5,4.7,6.6,4.4c0-0.2,0.1-0.4,0.1-0.5C6.7,3.8,6.8,3.7,6.9,3.6z"/>
</g>
<g>
	<path class="st0" d="M6,4.7C6.1,4.8,6.2,5,6.3,5.2c0.2,0.3,0.3,0.4,0.4,0.6c0.1,0.3,0,0.5,0,0.6C6.6,6.7,6.4,6.9,6.3,7
		c0-0.1,0-0.2-0.1-0.3C6.1,6.4,6,6.4,5.9,6.1C5.8,6,5.7,5.8,5.7,5.4C5.7,5.2,5.7,5.1,6,4.7z"/>
</g>
<g>
	<polygon class="st0" points="11.7,9.6 11.7,6.7 13.2,8.2 	"/>
</g>
<g>
	<path class="st0" d="M11.1,8.7c-0.1-0.5-0.5-0.8-1-0.8c-0.1,0-0.2,0-0.3,0.1V7.8c0-0.2-0.2-0.3-0.3-0.3H3.7c-0.2,0-0.3,0.2-0.3,0.3
		v0.8c0,1.2,0.7,2.3,1.6,2.8H3.9c-0.2,0-0.4,0.2-0.4,0.4s0.2,0.4,0.4,0.4h5.4c0.2,0,0.4-0.2,0.4-0.4s-0.2-0.4-0.4-0.4H8.2
		c0.4-0.2,0.8-0.5,1-0.9c0.1,0,0.1,0,0.2,0c0.5,0,1-0.1,1.4-0.7C11.1,9.5,11.2,9.1,11.1,8.7z M10.4,9.5C10.2,9.8,10,9.9,9.6,9.9
		C9.8,9.5,9.9,9,9.9,8.5l0,0c0.1,0,0.2-0.1,0.4-0.1c0.3,0,0.4,0.2,0.4,0.3C10.7,9,10.6,9.3,10.4,9.5z"/>
</g>
<g>
	<path class="st0" d="M8,15.2c-3.9,0-7-3.1-7-7s3.2-7,7-7s7,3.1,7,7C15,12,11.9,15.2,8,15.2z M8,2.1c-3.4,0-6.1,2.7-6.1,6.1
		s2.7,6.1,6.1,6.1s6.1-2.7,6.1-6.1S11.4,2.1,8,2.1z"/>
</g>
<g id="Layer_3">
</g>
<rect class="st1" width="16" height="16"/>
</svg>
