<?xml version="1.0" encoding="UTF-8"?><svg xmlns="http://www.w3.org/2000/svg" viewBox="0 0 24 24"><g id="Layer_6"><rect width="24" height="24" style="fill:none;"/></g><g id="Layer_7"><g id="Layer_1"><path d="M11.09,21.23L2.74,12.91c-.5-.5-.5-1.32,0-1.82L11.09,2.77c.5-.5,1.32-.5,1.83,0l8.35,8.32c.5,.5,.5,1.32,0,1.82l-8.35,8.32c-.5,.5-1.32,.5-1.83,0Z" style="fill:none;"/><path d="M12,21.96c-.42,0-.84-.16-1.17-.48L2.48,13.16c-.31-.31-.48-.72-.48-1.16s.17-.85,.48-1.16L10.83,2.52c.64-.64,1.69-.64,2.33,0l8.35,8.32c.31,.31,.48,.72,.48,1.16s-.17,.85-.48,1.16l-8.35,8.32c-.32,.32-.74,.48-1.17,.48Zm-.66-.99c.37,.36,.96,.36,1.33,0l8.35-8.32c.18-.18,.27-.41,.27-.66s-.1-.48-.27-.66L12.66,3.02c-.37-.36-.96-.36-1.33,0L2.99,11.34c-.18,.18-.27,.41-.27,.66s.1,.48,.27,.66l8.35,8.32Z" style="fill:#0072c6;"/><g id="Path_55598"><path d="M17.42,11.26h-4.69V6.58c0-.14-.11-.25-.25-.25h-.98c-.14,0-.25,.11-.25,.25v4.69H6.58c-.14,0-.25,.11-.25,.25v.98c0,.14,.11,.25,.25,.25h4.69v4.69c0,.14,.11,.25,.25,.25h.98c.14,0,.25-.11,.25-.25v-4.69h4.69c.14,0,.25-.11,.25-.25v-.98c0-.14-.11-.25-.25-.25,0,0,0,0,0,0Z" style="fill:#0072c6;"/></g></g></g></svg>