<svg xmlns="http://www.w3.org/2000/svg" width="16" height="16" viewBox="0 0 16 16">
  <g id="Group_82177" data-name="Group 82177" transform="translate(-798 -288)">
    <rect id="Rectangle_26725" data-name="Rectangle 26725" width="16" height="16" rx="2" transform="translate(798 288)" fill="none"/>
    <g id="Component_152_1" data-name="Component 152 – 1" transform="translate(799 289)">
      <path id="Union_15" data-name="Union 15" d="M-4765.268,1028.943h0l-3.451-3.452-.033.034-3.615,3.243a.175.175,0,0,1-.248-.014.177.177,0,0,1,0-.234l3.243-3.614a.369.369,0,0,1,.04-.029l-3.456-3.456a.854.854,0,0,1-.214-.777,1.231,1.231,0,0,1,.618-.879l2.634-1.3a.853.853,0,0,1,1,.27l.633.634,2.809-2.811-.875-.873a.219.219,0,0,1,0-.309l.311-.309a.217.217,0,0,1,.309,0l6.48,6.481a.219.219,0,0,1,0,.309l-.309.309a.217.217,0,0,1-.309,0l-.875-.873-2.81,2.809.606.609a.9.9,0,0,1,.325.959l-1.212,2.9a1.055,1.055,0,0,1-.772.6.993.993,0,0,1-.2.02A.865.865,0,0,1-4765.268,1028.943Z" transform="translate(4773.022 -1015)" fill="#0072c6"/>
    </g>
  </g>
</svg>
