<?xml version="1.0" encoding="utf-8"?>
<!-- Generator: Adobe Illustrator 27.3.1, SVG Export Plug-In . SVG Version: 6.00 Build 0)  -->
<svg version="1.1" id="Layer_1" xmlns="http://www.w3.org/2000/svg" xmlns:xlink="http://www.w3.org/1999/xlink" x="0px" y="0px"
	 viewBox="0 0 20 20" style="enable-background:new 0 0 20 20;" xml:space="preserve">
<style type="text/css">
	.st0{fill:#606060;}
	.st1{fill:none;}
</style>
<g>
	<path class="st0" d="M8.5,4.4c-0.2-0.8-1-1.3-1.8-1.3S5.1,3.6,4.9,4.4h-3v1.2h3c0.3,0.8,1,1.3,1.8,1.3c0.8,0,1.6-0.6,1.8-1.3h9.6
		V4.4H8.5z M6.7,5.7C6.3,5.7,6,5.4,6,5s0.3-0.7,0.7-0.7c0.4,0,0.7,0.3,0.7,0.7S7.1,5.7,6.7,5.7z"/>
	<path class="st0" d="M14.4,9.4c-0.2-0.8-1-1.3-1.8-1.3c-0.9,0-1.6,0.6-1.8,1.3H1.9v1.2h8.9c0.3,0.8,1,1.3,1.8,1.3
		c0.9,0,1.6-0.5,1.8-1.3h3.7V9.4H14.4z M12.6,10.7c-0.4,0-0.7-0.3-0.7-0.7c0-0.4,0.3-0.7,0.7-0.7c0.4,0,0.7,0.3,0.7,0.7
		C13.3,10.4,13,10.7,12.6,10.7z"/>
	<path class="st0" d="M7.5,14.4c-0.2-0.8-1-1.3-1.8-1.3c-0.9,0-1.6,0.5-1.8,1.3h-2v1.2h2c0.3,0.8,1,1.3,1.8,1.3
		c0.8,0,1.6-0.5,1.8-1.3h10.6v-1.2C18.1,14.4,7.5,14.4,7.5,14.4z M5.7,15.7C5.3,15.7,5,15.4,5,15c0-0.4,0.3-0.7,0.7-0.7
		c0.4,0,0.7,0.3,0.7,0.7C6.4,15.4,6.1,15.7,5.7,15.7z"/>
</g>
<rect class="st1" width="20" height="20"/>
</svg>
