<?xml version="1.0" encoding="UTF-8"?><svg id="Layer_7" xmlns="http://www.w3.org/2000/svg" viewBox="0 0 24 24"><g id="Layer_1"><g><path d="M17.17,14.65h-5.72c-.21,0-.38-.17-.38-.38v-5.72c0-.21,.17-.38,.38-.38h.76c.21,0,.38,.17,.38,.38v4.58h4.58c.21,0,.38,.17,.38,.38v.76c0,.21-.17,.38-.38,.38Z" style="fill:#0072c6;"/><path d="M12,23.11c-5.14,0-9.33-4.18-9.33-9.33S6.86,4.45,12,4.45s9.33,4.18,9.33,9.33-4.18,9.33-9.33,9.33Zm0-17.14c-4.31,0-7.82,3.51-7.82,7.82s3.51,7.82,7.82,7.82,7.82-3.51,7.82-7.82-3.51-7.82-7.82-7.82Z" style="fill:#0072c6;"/><path d="M2.26,8.4l-.54-.54c-.15-.15-.15-.39,0-.53L6.84,2.22c.15-.15,.39-.15,.53,0l.54,.54c.15,.15,.15,.39,0,.53L2.79,8.4c-.15,.15-.39,.15-.53,0Z" style="fill:#0072c6;"/><path d="M21.21,8.45l-5.12-5.12c-.15-.15-.15-.39,0-.53l.54-.54c.15-.15,.39-.15,.53,0l5.12,5.12c.15,.15,.15,.39,0,.53l-.54,.54c-.15,.15-.39,.15-.53,0Z" style="fill:#0072c6;"/></g></g><rect width="24" height="24" style="fill:none;"/></svg>