<?xml version="1.0" encoding="UTF-8"?><svg id="Layer_6" xmlns="http://www.w3.org/2000/svg" viewBox="0 0 24 24"><rect y="0" width="24" height="24" style="fill:none;"/><g id="Layer_1"><g><polygon points="10.8 3.89 10.02 4.67 12.26 6.91 7.2 6.91 7.2 8.01 12.29 8.01 10.02 10.3 10.8 11.07 14.37 7.48 10.8 3.89" style="fill:#606060;"/><polygon points="14.12 3.89 13.35 4.67 16.15 7.48 13.35 10.3 14.12 11.07 17.7 7.48 14.12 3.89" style="fill:#606060;"/></g></g><g><path d="M4.98,18.3c0,.55-.19,.99-.58,1.31-.39,.32-.94,.49-1.65,.5-.65,0-1.23-.11-1.73-.35v-1.2c.4,.18,.75,.3,1.04,.38,.29,.07,.55,.11,.78,.1,.28,0,.5-.06,.65-.17,.15-.11,.23-.27,.22-.49,0-.12-.04-.23-.1-.32-.07-.09-.17-.18-.3-.27-.13-.08-.4-.22-.8-.4-.38-.17-.66-.34-.85-.5-.19-.16-.34-.35-.45-.56-.12-.21-.17-.46-.18-.75,0-.54,.17-.97,.53-1.28,.36-.31,.87-.47,1.52-.48,.32,0,.62,.03,.91,.1,.29,.07,.59,.17,.91,.31l-.41,1.01c-.33-.13-.6-.22-.81-.27-.21-.05-.42-.07-.63-.07-.25,0-.43,.06-.56,.18-.13,.12-.19,.27-.19,.45,0,.11,.03,.21,.08,.3,.05,.08,.14,.17,.26,.24,.12,.08,.39,.22,.83,.42,.57,.27,.97,.54,1.18,.81,.21,.27,.33,.61,.33,1.01Z" style="fill:#606060;"/><path d="M11.62,16.85c.01,1.01-.23,1.79-.73,2.34-.5,.55-1.21,.83-2.15,.84-.94,.01-1.66-.25-2.17-.79-.51-.54-.77-1.32-.78-2.33-.01-1.02,.23-1.8,.73-2.34,.5-.54,1.21-.82,2.15-.83,.94-.01,1.66,.25,2.17,.79,.5,.54,.76,1.31,.77,2.32Zm-4.46,.05c0,.68,.14,1.2,.41,1.54,.26,.34,.65,.51,1.17,.5,1.03-.01,1.54-.7,1.53-2.08-.02-1.38-.54-2.06-1.57-2.05-.52,0-.9,.18-1.16,.53-.26,.35-.38,.87-.38,1.55Z" style="fill:#606060;"/><path d="M16.66,19.86l-.46-1.45-2.23,.03-.43,1.46-1.4,.02,2.09-6.16,1.58-.02,2.24,6.11-1.4,.02Zm-.78-2.53c-.43-1.31-.66-2.06-.72-2.23s-.09-.31-.12-.41c-.09,.36-.34,1.24-.76,2.65l1.59-.02Z" style="fill:#606060;"/><path d="M23,15.58c0,.66-.19,1.16-.6,1.52s-.99,.53-1.75,.54h-.56s.03,2.18,.03,2.18l-1.3,.02-.07-6.11,1.95-.02c.74,0,1.31,.14,1.7,.46,.39,.31,.59,.79,.6,1.42Zm-2.91,1h.43c.4,0,.7-.09,.89-.25s.29-.39,.29-.69c0-.3-.09-.53-.26-.67-.17-.14-.43-.21-.78-.21h-.59s.02,1.82,.02,1.82Z" style="fill:#606060;"/></g></svg>