<?xml version="1.0" encoding="utf-8"?>
<!-- Generator: Adobe Illustrator 27.3.1, SVG Export Plug-In . SVG Version: 6.00 Build 0)  -->
<svg version="1.1" id="Layer_1" xmlns="http://www.w3.org/2000/svg" xmlns:xlink="http://www.w3.org/1999/xlink" x="0px" y="0px"
	 viewBox="0 0 16 16" style="enable-background:new 0 0 16 16;" xml:space="preserve">
<g id="Outline">
</g>
<g id="Layer_3">
</g>
<g>
	<rect style="fill:none;" width="16" height="16"/>
</g>
<g style="enable-background:new    ;">
	<path style="fill:#606060;" d="M1.7,8.5v1.8h-1V5.7h1.4c0.6,0,1.1,0.1,1.4,0.3c0.3,0.2,0.5,0.6,0.5,1c0,0.3-0.1,0.5-0.2,0.7
		C3.5,8,3.3,8.2,3.1,8.3c0.7,1,1.2,1.7,1.4,2H3.3L2.2,8.5H1.7z M1.7,7.7H2c0.3,0,0.5-0.1,0.7-0.2c0.1-0.1,0.2-0.3,0.2-0.5
		c0-0.2-0.1-0.4-0.2-0.5S2.3,6.5,2,6.5H1.7V7.7z"/>
	<path style="fill:#606060;" d="M7.7,10.3H5V5.7h2.7v0.8H6v1h1.6v0.8H6v1.2h1.7V10.3z"/>
	<path style="fill:#606060;" d="M11.4,9c0,0.4-0.2,0.7-0.5,1c-0.3,0.2-0.7,0.4-1.3,0.4c-0.5,0-0.9-0.1-1.3-0.3V9.2
		c0.3,0.1,0.6,0.2,0.8,0.3c0.2,0.1,0.4,0.1,0.6,0.1c0.2,0,0.4,0,0.5-0.1c0.1-0.1,0.2-0.2,0.2-0.4c0-0.1,0-0.2-0.1-0.2
		c-0.1-0.1-0.1-0.1-0.2-0.2S9.8,8.5,9.5,8.3C9.2,8.2,9,8.1,8.9,7.9S8.6,7.7,8.5,7.5C8.5,7.3,8.4,7.2,8.4,6.9c0-0.4,0.1-0.7,0.4-1
		C9.1,5.7,9.5,5.6,10,5.6c0.2,0,0.5,0,0.7,0.1c0.2,0.1,0.4,0.1,0.7,0.2l-0.3,0.8c-0.2-0.1-0.5-0.2-0.6-0.2c-0.2,0-0.3-0.1-0.5-0.1
		c-0.2,0-0.3,0-0.4,0.1C9.4,6.7,9.4,6.8,9.4,6.9c0,0.1,0,0.2,0.1,0.2c0,0.1,0.1,0.1,0.2,0.2s0.3,0.2,0.6,0.3
		c0.4,0.2,0.7,0.4,0.9,0.6C11.3,8.5,11.4,8.7,11.4,9z"/>
	<path style="fill:#606060;" d="M14,10.3h-1V6.5h-1.3V5.7h3.5v0.8H14V10.3z"/>
</g>
</svg>
