<?xml version="1.0" encoding="utf-8"?>
<!-- Generator: Adobe Illustrator 27.3.1, SVG Export Plug-In . SVG Version: 6.00 Build 0)  -->
<svg version="1.1" id="Layer_1" xmlns="http://www.w3.org/2000/svg" xmlns:xlink="http://www.w3.org/1999/xlink" x="0px" y="0px"
	 viewBox="0 0 16 16" style="enable-background:new 0 0 16 16;" xml:space="preserve">
<g id="Outline">
</g>
<g id="Layer_3">
</g>
<rect style="fill:none;" width="16" height="16"/>
<g style="enable-background:new    ;">
	<path style="fill:#0072C6;" d="M3.1,8.9c0,0.4-0.1,0.7-0.4,0.9S2,10.2,1.5,10.2s-0.9-0.1-1.2-0.3V9.1C0.6,9.2,0.8,9.3,1,9.3
		s0.4,0.1,0.6,0.1c0.2,0,0.2,0,0.3,0C2.1,9.3,2.2,9.2,2.2,9c0-0.2-0.1-0.3-0.3-0.5C1.5,8.2,1.3,8.3,0.8,7.9C0.6,7.8,0.5,7.6,0.4,7.5
		C0.3,7.4,0.3,7.2,0.3,7c0-0.4,0.1-0.7,0.4-0.9s0.6-0.3,1.1-0.3c0.2,0,0.4,0,0.6,0.1C2.6,6,2.8,6,3,6.1L2.8,6.9
		C2.5,6.8,2.3,6.6,2.2,6.6S1.9,6.5,1.8,6.5c-0.1,0-0.2,0-0.3,0C1.4,6.6,1.2,6.8,1.2,6.9c0,0.3,0.3,0.5,0.4,0.5
		C1.8,7.6,1.9,7.6,2,7.6C2.4,7.8,2.7,8,2.8,8.2C2.9,8.4,3.1,8.6,3.1,8.9z"/>
	<path style="fill:#0072C6;" d="M7.7,7.9c0,0.7-0.2,1.3-0.5,1.6c-0.3,0.5-0.8,0.7-1.5,0.7s-1.2-0.2-1.5-0.6C3.8,9.2,3.7,8.8,3.7,7.9
		s0.2-1.3,0.5-1.6C4.5,5.9,5,5.8,5.7,5.8s1.2,0.2,1.5,0.6S7.7,7.2,7.7,7.9z M4.6,7.9c0,0.1,0,0.4,0.1,0.8c0,0.1,0.1,0.2,0.2,0.3
		c0.2,0.3,0.4,0.4,0.8,0.4c0.7,0,1.1-0.5,1.1-1.4c0-1-0.4-1.4-1.1-1.4c-0.1,0-0.3,0-0.5,0.1C4.7,7,4.6,7.8,4.6,7.9z"/>
	<path style="fill:#0072C6;" d="M11.2,10.1l-0.3-1H9.4l-0.3,1h-1l1.5-4.3h1.1l1.5,4.3H11.2z M10.7,8.4c-0.2-0.6-0.4-1.2-0.6-1.8
		C9.9,7.1,9.7,7.7,9.5,8.4H10.7z"/>
	<path style="fill:#0072C6;" d="M15.7,7.1c0,0.1,0,0.7-0.5,1.2c-0.5,0.4-1,0.3-1.1,0.3h-0.4v1.5h-0.9V5.9h1.4c0.1,0,0.7-0.1,1.1,0.4
		C15.7,6.6,15.7,7,15.7,7.1z M13.7,7.9H14c0.3,0,0.5-0.1,0.6-0.2c0,0,0.2-0.2,0.2-0.5c0-0.3-0.3-0.6-0.7-0.7h-0.4
		C13.7,6.9,13.7,7.4,13.7,7.9z"/>
</g>
</svg>
