<?xml version="1.0" encoding="utf-8"?>
<!-- Generator: Adobe Illustrator 27.3.1, SVG Export Plug-In . SVG Version: 6.00 Build 0)  -->
<svg version="1.1" id="Layer_1" xmlns="http://www.w3.org/2000/svg" xmlns:xlink="http://www.w3.org/1999/xlink" x="0px" y="0px"
	 viewBox="0 0 16 16" style="enable-background:new 0 0 16 16;" xml:space="preserve">
<path style="fill:#0072C6;stroke:#0072C6;stroke-miterlimit:10;" d="M4,14.5H2c-0.276142,0-0.5-0.223858-0.5-0.5V2
	c0-0.276142,0.223858-0.5,0.5-0.5h2c0.276143,0,0.5,0.223858,0.5,0.5v12C4.5,14.276142,4.276143,14.5,4,14.5z"/>
<path style="fill:#0072C6;stroke:#0072C6;stroke-miterlimit:10;" d="M14,4.5h-2c-0.276142,0-0.5-0.223857-0.5-0.5V2
	c0-0.276142,0.223858-0.5,0.5-0.5h2c0.276142,0,0.5,0.223858,0.5,0.5v2C14.5,4.276143,14.276142,4.5,14,4.5z"/>
<path style="fill:#0072C6;stroke:#0072C6;stroke-miterlimit:10;" d="M14,9.5h-2c-0.276142,0-0.5-0.223858-0.5-0.5V7
	c0-0.276143,0.223858-0.5,0.5-0.5h2c0.276142,0,0.5,0.223857,0.5,0.5v2C14.5,9.276142,14.276142,9.5,14,9.5z"/>
<path style="fill:#0072C6;stroke:#0072C6;stroke-miterlimit:10;" d="M14,14.5h-2c-0.276142,0-0.5-0.223858-0.5-0.5v-2
	c0-0.276142,0.223858-0.5,0.5-0.5h2c0.276142,0,0.5,0.223858,0.5,0.5v2C14.5,14.276142,14.276142,14.5,14,14.5z"/>
<line style="fill:none;stroke:#0072C6;stroke-miterlimit:10;" x1="6" y1="8.5" x2="9" y2="8.5"/>
<polyline style="fill:none;stroke:#0072C6;stroke-miterlimit:10;" points="7.946973,10.011758 9.458731,8.5 7.946973,6.988243 "/>
<rect style="fill:none;" width="16" height="16"/>
</svg>
