<?xml version="1.0" encoding="utf-8"?>
<!-- Generator: Adobe Illustrator 27.3.1, SVG Export Plug-In . SVG Version: 6.00 Build 0)  -->
<svg version="1.1" id="Layer_1" xmlns="http://www.w3.org/2000/svg" xmlns:xlink="http://www.w3.org/1999/xlink" x="0px" y="0px"
	 viewBox="0 0 16 16" style="enable-background:new 0 0 16 16;" xml:space="preserve">
<g id="Layer_1_00000109022576928331811720000000974561884447246986_">
	<rect style="fill:none;" width="16" height="16"/>
</g>
<path style="fill:#0072C6;stroke:#0072C6;stroke-miterlimit:10;" d="M12.204266,14.5H3.795734
	c-0.52753,0-0.955178-0.427648-0.955178-0.955178V3.486185c0-0.52753,0.427648-0.955178,0.955178-0.955178h8.408531
	c0.52753,0,0.955178,0.427648,0.955178,0.955178v10.058637C13.159444,14.072352,12.731795,14.5,12.204266,14.5z"/>
<path style="fill:#FFFFFF;stroke:#0072C6;stroke-miterlimit:10;" d="M10.091105,3.562014H5.712194
	c-0.262329,0-0.474988-0.21266-0.474988-0.474988V1.975702C5.237206,1.712979,5.450184,1.5,5.712907,1.5H10.0897
	c0.264051,0,0.478107,0.214056,0.478107,0.478107v1.107205C10.567807,3.348587,10.354381,3.562014,10.091105,3.562014z"/>
<line style="fill:none;stroke:#FFFFFF;stroke-miterlimit:10;" x1="7.486641" y1="7.459653" x2="11.63271" y2="7.459654"/>
<line style="fill:none;stroke:#FFFFFF;stroke-miterlimit:10;" x1="7.486641" y1="10.593631" x2="11.63271" y2="10.593632"/>
<path style="fill:#FFFFFF;" d="M5.715439,8.419445H4.758972c-0.263765,0-0.477589-0.213824-0.477589-0.477589V6.977452
	c0-0.263765,0.213824-0.477589,0.477589-0.477589H5.71544c0.263765,0,0.477589,0.213824,0.477589,0.477589v0.964404
	C6.193028,8.205621,5.979205,8.419445,5.715439,8.419445z"/>
<path style="fill:#FFFFFF;" d="M5.715439,11.553423H4.758972c-0.263765,0-0.477589-0.213824-0.477589-0.47759v-0.964404
	c0-0.263765,0.213824-0.477589,0.477589-0.477589H5.71544c0.263765,0,0.477589,0.213823,0.477589,0.477589v0.964404
	C6.193028,11.339599,5.979205,11.553423,5.715439,11.553423z"/>
</svg>
