<svg id="Text_from_Clipboard" data-name="Text from Clipboard" xmlns="http://www.w3.org/2000/svg" width="16" height="16" viewBox="0 0 16 16">
  <g id="Icons">
    <path id="Path_2513" data-name="Path 2513" d="M12.574,1.6H11A1,1,0,0,0,10,.6H6A1,1,0,0,0,5,1.6H3.426a1.5,1.5,0,0,0-1.5,1.5V13.465a1.5,1.5,0,0,0,1.5,1.5h9.148a1.5,1.5,0,0,0,1.5-1.5V3.1A1.5,1.5,0,0,0,12.574,1.6ZM6,1.6h4v1H6Zm7.074,11.86a.5.5,0,0,1-.5.5H3.426a.5.5,0,0,1-.5-.5V3.1a.5.5,0,0,1,.5-.5H5V2.6a1,1,0,0,0,1,1h4a1,1,0,0,0,1-1V2.6h1.574a.5.5,0,0,1,.5.5Z" fill="#606060"/>
    <g id="Group_1669" data-name="Group 1669">
      <g id="Group_1663" data-name="Group 1663">
        <rect id="Rectangle_1035" data-name="Rectangle 1035" width="4.688" height="1" transform="translate(7.069 5.447)" fill="#606060"/>
      </g>
      <g id="Group_1664" data-name="Group 1664">
        <rect id="Rectangle_1036" data-name="Rectangle 1036" width="4.688" height="1" transform="translate(7.069 8.015)" fill="#606060"/>
      </g>
      <g id="Group_1665" data-name="Group 1665">
        <path id="Path_2514" data-name="Path 2514" d="M5.492,6.7h-1a.25.25,0,0,1-.25-.25v-1a.25.25,0,0,1,.25-.25h1a.25.25,0,0,1,.25.25v1A.25.25,0,0,1,5.492,6.7Z" fill="#606060"/>
      </g>
      <g id="Group_1666" data-name="Group 1666">
        <path id="Path_2515" data-name="Path 2515" d="M5.492,9.265h-1a.25.25,0,0,1-.25-.25v-1a.25.25,0,0,1,.25-.25h1a.25.25,0,0,1,.25.25v1A.25.25,0,0,1,5.492,9.265Z" fill="#606060"/>
      </g>
      <g id="Group_1667" data-name="Group 1667">
        <rect id="Rectangle_1037" data-name="Rectangle 1037" width="4.688" height="1" transform="translate(7.069 10.583)" fill="#606060"/>
      </g>
      <g id="Group_1668" data-name="Group 1668">
        <path id="Path_2516" data-name="Path 2516" d="M5.492,11.833h-1a.25.25,0,0,1-.25-.25v-1a.25.25,0,0,1,.25-.25h1a.25.25,0,0,1,.25.25v1A.25.25,0,0,1,5.492,11.833Z" fill="#606060"/>
      </g>
    </g>
  </g>
  <g id="Outline">
    <rect id="Rectangle_1038" data-name="Rectangle 1038" width="16" height="16" fill="none"/>
  </g>
</svg>
