<?xml version="1.0" encoding="utf-8"?>
<!-- Generator: Adobe Illustrator 25.4.1, SVG Export Plug-In . SVG Version: 6.00 Build 0)  -->
<svg version="1.1" id="Layer_1" xmlns="http://www.w3.org/2000/svg" xmlns:xlink="http://www.w3.org/1999/xlink" x="0px" y="0px"
	 viewBox="0 0 190 180" style="enable-background:new 0 0 190 180;" xml:space="preserve">
<style type="text/css">
	.st0{fill:#EFEDEC;}
	.st1{fill:#FFFFFF;}
	.st2{fill:#C9C9C9;}
	.st3{fill:none;stroke:#B5B4B3;stroke-width:1.0316;stroke-miterlimit:10;}
	.st4{fill:#D3D3D3;}
	.st5{fill:#F2F1EF;}
	.st6{fill:#B5B4B3;}
	.st7{clip-path:url(#SVGID_00000162313842474371263080000001494698866407755450_);}
	.st8{opacity:0.2;}
</style>
<path id="Path_55482_00000106119530007528201360000013874132496900398208_" class="st0" d="M177.4509,77.6393
	c1.8673,37.5762-37.5148,57.8801-71.8683,69.2196c-33.21,10.9636-73.0871,14.8593-93.4684-14.6392
	C-8.1355,102.914,6.0299,62.938,28.7861,35.7099c17.2807-20.6738,45.4987-15.382,70.8689-8.2275
	c32.527,9.1711,76.0519,15.0162,77.8033,50.1569"/>
<path class="st1" d="M145.8744,23.5831H28.8102c-5.7677,0-10.4434,4.5622-10.4434,10.1901v96.3449
	c0,5.6279,4.6757,10.1902,10.4434,10.1902h117.0642c5.7677,0,10.4434-4.5623,10.4434-10.1902V33.7733
	C156.3178,28.1454,151.6421,23.5831,145.8744,23.5831z M55.7234,121.9554c0,1.1395-0.9237,2.0632-2.0632,2.0632H34.4664
	c-1.1395,0-2.0632-0.9237-2.0632-2.0632v-4.4588c0-1.1395,0.9237-2.0632,2.0632-2.0632h19.1938
	c1.1395,0,2.0632,0.9237,2.0632,2.0632V121.9554z M55.7234,105.7437c0,1.1395-0.9237,2.0632-2.0632,2.0632H34.4664
	c-1.1395,0-2.0632-0.9237-2.0632-2.0632v-4.4588c0-1.1395,0.9237-2.0632,2.0632-2.0632h19.1938
	c1.1395,0,2.0632,0.9237,2.0632,2.0632V105.7437z M55.7234,89.532c0,1.1395-0.9237,2.0632-2.0632,2.0632H34.4664
	c-1.1395,0-2.0632-0.9238-2.0632-2.0632v-4.4588c0-1.1395,0.9237-2.0632,2.0632-2.0632h19.1938
	c1.1395,0,2.0632,0.9237,2.0632,2.0632V89.532z M55.7234,73.3203c0,1.1395-0.9237,2.0632-2.0632,2.0632H34.4664
	c-1.1395,0-2.0632-0.9238-2.0632-2.0632v-4.4588c0-1.1395,0.9237-2.0632,2.0632-2.0632h19.1938
	c1.1395,0,2.0632,0.9237,2.0632,2.0632V73.3203z M108.4152,121.9554c0,1.1395-0.9237,2.0632-2.0632,2.0632H65.5032
	c-1.1395,0-2.0632-0.9237-2.0632-2.0632v-4.4588c0-1.1395,0.9237-2.0632,2.0632-2.0632h40.8488
	c1.1395,0,2.0632,0.9237,2.0632,2.0632V121.9554z M108.4152,105.7437c0,1.1395-0.9237,2.0632-2.0632,2.0632H65.5032
	c-1.1395,0-2.0632-0.9237-2.0632-2.0632v-4.4588c0-1.1395,0.9237-2.0632,2.0632-2.0632h40.8488
	c1.1395,0,2.0632,0.9237,2.0632,2.0632V105.7437z M108.4152,89.532c0,1.1395-0.9237,2.0632-2.0632,2.0632H65.5032
	c-1.1395,0-2.0632-0.9238-2.0632-2.0632v-4.4588c0-1.1395,0.9237-2.0632,2.0632-2.0632h40.8488
	c1.1395,0,2.0632,0.9237,2.0632,2.0632V89.532z M108.4152,73.3203c0,1.1395-0.9237,2.0632-2.0632,2.0632H65.5032
	c-1.1395,0-2.0632-0.9238-2.0632-2.0632v-4.4588c0-1.1395,0.9237-2.0632,2.0632-2.0632h40.8488
	c1.1395,0,2.0632,0.9237,2.0632,2.0632V73.3203z M145.5978,89.532c0,1.1395-0.9237,2.0632-2.0632,2.0632h-25.3758
	c-1.1395,0-2.0632-0.9238-2.0632-2.0632v-4.4588c0-1.1395,0.9237-2.0632,2.0632-2.0632h25.3758
	c1.1395,0,2.0632,0.9237,2.0632,2.0632V89.532z M145.5978,73.3203c0,1.1395-0.9237,2.0632-2.0632,2.0632h-25.3758
	c-1.1395,0-2.0632-0.9238-2.0632-2.0632v-4.4588c0-1.1395,0.9237-2.0632,2.0632-2.0632h25.3758
	c1.1395,0,2.0632,0.9237,2.0632,2.0632V73.3203z"/>
<path id="Rectangle_16762_00000014633589221064543720000003469444456538622854_" class="st2" d="M28.8185,23.5892h117.0642
	c5.7677,0,10.4434,4.5623,10.4434,10.1901v1.019l0,0H18.3752l0,0v-1.019C18.3752,28.1515,23.0508,23.5892,28.8185,23.5892z"/>
<ellipse id="Ellipse_3499_00000128481516555906288930000010433134292570741135_" class="st1" cx="148.6064" cy="29.1948" rx="2.7967" ry="2.7289"/>
<ellipse id="Ellipse_3500_00000059301956746862318440000003501532081877953716_" class="st1" cx="140.2245" cy="29.1948" rx="2.7967" ry="2.7289"/>
<ellipse id="Ellipse_3504_00000106131722672163209010000017699081634996102571_" class="st2" cx="169.3866" cy="2.9093" rx="2.9816" ry="2.9093"/>
<ellipse id="Ellipse_3505_00000136397206280630674690000013072536902894612914_" class="st2" cx="171.6309" cy="20.0247" rx="1.4913" ry="1.4552"/>
<line id="Line_3296_00000060723762917630188490000017651289086863854988_" class="st3" x1="3.5205" y1="8.6158" x2="0" y2="8.6158"/>
<line id="Line_3297_00000034798447636767636400000014949495174239943090_" class="st3" x1="1.7608" y1="6.8987" x2="1.7608" y2="10.3338"/>
<ellipse id="Ellipse_3506_00000145763841318175711960000007896163527020287379_" class="st2" cx="21.246" cy="14.9296" rx="1.4913" ry="1.4552"/>
<ellipse id="Ellipse_3507_00000076568746712699547340000017275007664408997806_" class="st2" cx="3.0411" cy="30.3483" rx="1.4913" ry="1.4552"/>
<ellipse id="Ellipse_3508_00000042710304284860754740000006972031183264453511_" class="st2" cx="87.7068" cy="176.8949" rx="2.9816" ry="2.9093"/>
<ellipse id="Ellipse_3509_00000145048093649155460610000018341476677590451104_" class="st2" cx="57.7979" cy="171.8579" rx="1.4913" ry="1.4552"/>
<ellipse id="Ellipse_3510_00000136399731920895120920000002063083604679245477_" class="st2" cx="3.0411" cy="145.497" rx="1.4913" ry="1.4552"/>
<path class="st4" d="M118.1588,59.1717h25.3758c1.1395,0,2.0632-0.9237,2.0632-2.0632v-4.4588c0-1.1395-0.9237-2.0632-2.0632-2.0632
	h-25.3758c-1.1395,0-2.0632,0.9237-2.0632,2.0632v4.4588C116.0956,58.248,117.0193,59.1717,118.1588,59.1717z"/>
<path class="st4" d="M65.5032,59.1717h40.8488c1.1395,0,2.0632-0.9237,2.0632-2.0632v-4.4588c0-1.1395-0.9237-2.0632-2.0632-2.0632
	H65.5032c-1.1395,0-2.0632,0.9237-2.0632,2.0632v4.4588C63.44,58.248,64.3637,59.1717,65.5032,59.1717z"/>
<path class="st4" d="M34.4664,59.1717h19.1938c1.1395,0,2.0632-0.9237,2.0632-2.0632v-4.4588c0-1.1395-0.9237-2.0632-2.0632-2.0632
	H34.4664c-1.1395,0-2.0632,0.9237-2.0632,2.0632v4.4588C32.4032,58.248,33.3269,59.1717,34.4664,59.1717z"/>
<path class="st5" d="M118.1588,107.8069h25.3758c1.1395,0,2.0632-0.9237,2.0632-2.0632v-4.4588
	c0-1.1395-0.9237-2.0632-2.0632-2.0632h-25.3758c-1.1395,0-2.0632,0.9237-2.0632,2.0632v4.4588
	C116.0956,106.8832,117.0193,107.8069,118.1588,107.8069z"/>
<path class="st5" d="M118.1588,124.0186h25.3758c1.1395,0,2.0632-0.9237,2.0632-2.0632v-4.4588
	c0-1.1395-0.9237-2.0632-2.0632-2.0632h-25.3758c-1.1395,0-2.0632,0.9237-2.0632,2.0632v4.4588
	C116.0956,123.0949,117.0193,124.0186,118.1588,124.0186z"/>
<line id="Line_3298_00000125566858130347310560000008021622846853280677_" class="st3" x1="178.5622" y1="140.7993" x2="173.446" y2="140.7993"/>
<line id="Line_3299_00000135672544316750600720000011582985851732823722_" class="st3" x1="176.0046" y1="138.3027" x2="176.0046" y2="143.2949"/>
<ellipse class="st1" cx="132.5956" cy="124.009" rx="29.2718" ry="28.562"/>
<path id="Path_55442_00000074427658089713502180000017250095513995405481_" class="st6" d="M155.1474,153.6617l25.3941,24.7814
	c2.1895,2.1008,5.7098,2.0719,7.8628-0.0645c2.1275-2.1111,2.1275-5.4966,0-7.6077l-25.3941-24.7784L155.1474,153.6617z"/>
<path class="st6" d="M188.4043,170.7709l-25.3941-24.7784l-1.9725,1.9239l-3.6616-3.5724
	c4.7296-5.5049,7.5858-12.5985,7.5858-20.335c0-17.4551-14.5195-31.6562-32.3662-31.6562s-32.3662,14.2012-32.3662,31.6562
	c0,17.4561,14.5195,31.6572,32.3662,31.6572c8.1305,0,15.5645-2.954,21.2556-7.8138l3.6255,3.5373l-2.3294,2.272l25.3941,24.7814
	c2.1895,2.1008,5.7098,2.0719,7.8628-0.0645C190.5318,176.2675,190.5318,172.882,188.4043,170.7709z M106.4189,124.009
	c0-14.042,11.7432-25.4668,26.1768-25.4668s26.1768,11.4248,26.1768,25.4668c0,14.043-11.7432,25.4678-26.1768,25.4678
	S106.4189,138.0519,106.4189,124.009z"/>
<g>
	<g>
		<defs>
			<ellipse id="SVGID_1_" cx="131.6676" cy="122.921" rx="32.4633" ry="31.8391"/>
		</defs>
		<clipPath id="SVGID_00000024680204427700814980000007275743816118129050_">
			<use xlink:href="#SVGID_1_"  style="overflow:visible;"/>
		</clipPath>
		
			<g id="Group_63405_00000130624707928001070310000012806794113455144615_" transform="translate(-0.928 -1.088)" style="clip-path:url(#SVGID_00000024680204427700814980000007275743816118129050_);">
			<g id="Group_63404_00000075863569010653149990000009888071992155574925_" transform="translate(123.572 109.056)" class="st8">
				<path id="Path_55445_00000018195202426959237140000004002774516009677222_" class="st1" d="M13.7561-24.958l7.6979,2.9412
					L-9.8117,56.704l-7.6979-2.9412L13.7561-24.958z"/>
				<path id="Path_55446_00000017477038250788913250000009350762302154801569_" class="st1" d="M24.7603-20.7536l5.1716,1.9755
					L-1.3338,59.9427l-5.1716-1.9756L24.7603-20.7536z"/>
				<path id="Path_55447_00000137853048502440050310000008870906492258890400_" class="st1" d="M32.7401-17.7047l5.1716,1.9755
					L6.646,62.9916L1.4744,61.016L32.7401-17.7047z"/>
			</g>
		</g>
	</g>
</g>
<polygon class="st6" points="147.0088,113.4836 144.1279,110.5305 133.0708,121.3193 122.0137,110.5305 119.1328,113.4836 
	130.1171,124.2014 119.1338,134.9182 122.0146,137.8713 133.0708,127.0834 144.1279,137.8723 147.0088,134.9191 136.0245,124.2014 
	"/>
</svg>
