<?xml version="1.0" encoding="utf-8"?>
<!-- Generator: Adobe Illustrator 26.2.1, SVG Export Plug-In . SVG Version: 6.00 Build 0)  -->
<svg version="1.1" id="Layer_1" xmlns="http://www.w3.org/2000/svg" xmlns:xlink="http://www.w3.org/1999/xlink" x="0px" y="0px"
	 viewBox="0 0 16 16" style="enable-background:new 0 0 16 16;" xml:space="preserve">
<style type="text/css">
	.st0{fill:#616160;stroke:#606060;stroke-width:0.1;stroke-miterlimit:10;}
	.st1{fill:none;}
</style>
<g id="Icons">
	<path class="st0" d="M2.5107,6.0119V6.369c0,0.1381,0.1119,0.25,0.25,0.25h2.945c0.5164,0,0.935-0.4186,0.935-0.935V2.739
		c0-0.1381-0.1119-0.25-0.25-0.25H6.0335c-0.1381,0-0.25,0.1119-0.25,0.25v2.4386L2.7829,2.177
		c-0.0976-0.0976-0.2559-0.0976-0.3536,0L2.1769,2.4294c-0.0976,0.0976-0.0976,0.2559,0,0.3536l2.9789,2.9789H2.7607
		C2.6226,5.7619,2.5107,5.8738,2.5107,6.0119z"/>
	<path class="st0" d="M10.1965,10.8026l3.0208,3.0208c0.0976,0.0976,0.2559,0.0976,0.3536,0l0.2524-0.2524
		c0.0976-0.0976,0.0976-0.2559,0-0.3536l-2.9714-2.9714h2.3675c0.1381,0,0.25-0.1119,0.25-0.25V9.6389
		c0-0.1381-0.1119-0.25-0.25-0.25h-2.945c-0.5164,0-0.935,0.4186-0.935,0.935v2.945c0,0.1381,0.1119,0.25,0.25,0.25h0.3571
		c0.1381,0,0.25-0.1119,0.25-0.25L10.1965,10.8026z"/>
	<path class="st0" d="M10.2744,6.619h2.945c0.1381,0,0.25-0.1119,0.25-0.25V6.0119c0-0.1381-0.1119-0.25-0.25-0.25h-2.375
		l2.9789-2.9789c0.0976-0.0976,0.0976-0.2559,0-0.3536L13.5709,2.177c-0.0976-0.0976-0.2559-0.0976-0.3536,0l-3.0208,3.0208V2.739
		c0-0.1381-0.1119-0.25-0.25-0.25H9.5894c-0.1381,0-0.25,0.1119-0.25,0.25v2.945C9.3394,6.2004,9.758,6.619,10.2744,6.619z"/>
	<path class="st0" d="M2.7829,13.8234l3.0007-3.0007v2.4461c0,0.1381,0.1119,0.25,0.25,0.25h0.3571c0.1381,0,0.25-0.1119,0.25-0.25
		v-2.945c0-0.5164-0.4186-0.935-0.935-0.935h-2.945c-0.1381,0-0.25,0.1119-0.25,0.25v0.3571c0,0.1381,0.1119,0.25,0.25,0.25h2.3875
		l-2.9714,2.9714c-0.0976,0.0976-0.0976,0.256,0,0.3536l0.2526,0.2525C2.5271,13.921,2.6853,13.921,2.7829,13.8234z"/>
</g>
<g id="Outline">
	<rect class="st1" width="16" height="16"/>
</g>
<rect class="st1" width="16" height="16"/>
</svg>
