<?xml version="1.0" encoding="utf-8"?>
<!-- Generator: Adobe Illustrator 26.2.1, SVG Export Plug-In . SVG Version: 6.00 Build 0)  -->
<svg version="1.1" id="Layer_1" xmlns="http://www.w3.org/2000/svg" xmlns:xlink="http://www.w3.org/1999/xlink" x="0px" y="0px"
	 viewBox="0 0 16 16" style="enable-background:new 0 0 16 16;" xml:space="preserve">
<style type="text/css">
	.st0{fill:#606060;}
	.st1{fill:none;}
</style>
<g id="Layer_1_00000066480329448756691340000016544481301837382055_">
	<g>
		<path class="st0" d="M1.5381,2.5454v3.3638h1l0.0351-2.6849l3.294,3.3148l0.709-0.7051L3.2631,2.5H5.916v-1H2.5801
			C2.0059,1.5,1.5381,1.9688,1.5381,2.5454z"/>
		<path class="st0" d="M13.4265,12.8051l-3.3142-3.3359l-0.709,0.7051L12.7075,13.5H10.084v1h3.3359
			c0.5742,0,1.042-0.4688,1.042-1.0454v-3.3638h-1L13.4265,12.8051z"/>
		<path class="st0" d="M13.4199,1.5H10.084v1l2.5947,0.0373L9.4033,5.834l0.709,0.7051l3.3496-3.3715v2.7416h1V2.5454
			C14.4619,1.9688,13.9941,1.5,13.4199,1.5z"/>
		<path class="st0" d="M6.5762,10.1743l-0.709-0.7051l-3.3291,3.3502v-2.7286h-1v3.3638c0,0.5767,0.4678,1.0454,1.042,1.0454H5.916
			v-1l-2.6075-0.0374L6.5762,10.1743z"/>
	</g>
</g>
<rect class="st1" width="16" height="16"/>
</svg>
