<?xml version="1.0" encoding="UTF-8"?>
<!DOCTYPE svg PUBLIC "-//W3C//DTD SVG 1.1//EN" "http://www.w3.org/Graphics/SVG/1.1/DTD/svg11.dtd">
<svg xmlns="http://www.w3.org/2000/svg" version="1.1" width="17px" height="17px" style="shape-rendering:geometricPrecision; text-rendering:geometricPrecision; image-rendering:optimizeQuality; fill-rule:evenodd; clip-rule:evenodd" xmlns:xlink="http://www.w3.org/1999/xlink">
<g><path style="opacity:0.687" fill="#5f605f" d="M 10.5,-0.5 C 12.5,-0.5 14.5,-0.5 16.5,-0.5C 16.5,1.5 16.5,3.5 16.5,5.5C 15.2502,5.42265 14.4169,4.75598 14,3.5C 12.6487,5.01899 11.1487,6.35232 9.5,7.5C 8.47899,6.99839 8.31232,6.33172 9,5.5C 10.1667,4.33333 11.3333,3.16667 12.5,2C 11.244,1.58309 10.5774,0.749754 10.5,-0.5 Z"/></g>
<g><path style="opacity:0.6" fill="#5f605f" d="M 6.5,16.5 C 4.5,16.5 2.5,16.5 0.5,16.5C 0.5,15.8333 0.166667,15.5 -0.5,15.5C -0.5,13.5 -0.5,11.5 -0.5,9.5C 0.931117,9.88066 1.76445,10.8807 2,12.5C 3.66667,10.8333 5.33333,9.16667 7,7.5C 7.5,8 8,8.5 8.5,9C 6.83333,10.6667 5.16667,12.3333 3.5,14C 5.11934,14.2355 6.11934,15.0689 6.5,16.5 Z"/></g>
</svg>
