<?xml version="1.0" encoding="utf-8"?>
<!-- Generator: Adobe Illustrator 27.1.1, SVG Export Plug-In . SVG Version: 6.00 Build 0)  -->
<svg version="1.1" id="Layer_1" xmlns="http://www.w3.org/2000/svg" xmlns:xlink="http://www.w3.org/1999/xlink" x="0px" y="0px"
	 viewBox="0 0 20 20" enable-background="new 0 0 20 20" xml:space="preserve">
<g>
	<path fill="#D53D3D" d="M15.7126,15.6228l-0.7446,0.6675c-0.2056,0.1843-0.5217,0.1671-0.7061-0.0385l-4.339-4.8397l-4.8397,4.339
		c-0.2056,0.1843-0.5217,0.1671-0.7061-0.0385L3.7096,14.968c-0.1843-0.2056-0.1671-0.5217,0.0385-0.7061l4.8397-4.339
		l-4.339-4.8397C4.0646,4.8776,4.0818,4.5615,4.2874,4.3772L5.032,3.7096C5.2376,3.5253,5.5537,3.5426,5.738,3.7481l4.339,4.8397
		l4.8397-4.339c0.2056-0.1843,0.5217-0.1671,0.7061,0.0385l0.6675,0.7446c0.1843,0.2056,0.1671,0.5217-0.0385,0.7061l-4.8397,4.339
		l4.339,4.8397C15.9354,15.1224,15.9182,15.4385,15.7126,15.6228z"/>
</g>
<g>
	<rect fill="none" width="20" height="20"/>
</g>
</svg>
