<?xml version="1.0" encoding="utf-8"?>
<!-- Generator: Adobe Illustrator 26.2.1, SVG Export Plug-In . SVG Version: 6.00 Build 0)  -->
<svg version="1.1" id="Layer_1" xmlns="http://www.w3.org/2000/svg" xmlns:xlink="http://www.w3.org/1999/xlink" x="0px" y="0px"
	 viewBox="0 0 16 16" style="enable-background:new 0 0 16 16;" xml:space="preserve">
<style type="text/css">
	.st0{fill:#606060;}
	.st1{fill:none;}
</style>
<g>
	<path class="st0" d="M9.0845,4.195c-0.0044-1.7673-1.4407-3.1964-3.208-3.192c-1.7642,0.0044-3.192,1.4358-3.192,3.2
		c0.0055,1.7681,1.4398,3.1989,3.208,3.2C7.6598,7.3986,9.0889,5.9623,9.0845,4.195z M3.6875,4.197
		c0.0033-1.2156,0.9894-2.1994,2.205-2.2c1.215,0.0027,2.1978,0.9899,2.195,2.205c-0.0028,1.215-0.99,2.1978-2.205,2.195
		C4.6694,6.3942,3.6875,5.41,3.6875,4.197z"/>
	<path class="st0" d="M0.9825,12.089c0,0.0007,0,0.0013,0,0.002v2.656c0,0.1381,0.1119,0.25,0.25,0.25h0.5
		c0.1381,0,0.25-0.1119,0.25-0.25v-2.656c0.0033-1.421,1.1541-2.5721,2.575-2.576h3.113c1.4205,0,2.572,1.1516,2.572,2.572
		c0,0.0013,0,0.0027,0,0.004v2.656c0,0.1381,0.1119,0.25,0.25,0.25h0.5c0.1381,0,0.25-0.1119,0.25-0.25v-2.656
		c-0.0066-1.9707-1.6013-3.5673-3.572-3.576h-3.114C2.5826,8.515,0.9825,10.1151,0.9825,12.089z"/>
	<path class="st0" d="M15.0175,8.714l-0.016-5.791c0.0004-0.2048-0.0797-0.4016-0.223-0.548l-1.077-1.1
		c-0.148-0.151-0.3505-0.2364-0.562-0.237c-0.2132,0.0013-0.4167,0.089-0.564,0.243l-1.079,1.128
		c-0.1411,0.1459-0.22,0.341-0.22,0.544v5.763c0.0005,0.4343,0.3527,0.7859,0.787,0.7859h2.167
		c0.4336,0.0012,0.7859-0.3494,0.787-0.783C15.0175,8.7174,15.0175,8.7156,15.0175,8.714z M12.2755,8.497V3.038l0.866-0.905
		l0.857,0.879l0.015,5.485H12.2755z"/>
</g>
<rect class="st1" width="16" height="16"/>
</svg>
