<svg width="153" height="16" viewBox="0 0 153 16" fill="none" xmlns="http://www.w3.org/2000/svg">
<path d="M26.6987 4.90454C27.62 4.90454 28.2922 5.10311 28.7153 5.50024C29.1385 5.89412 29.3501 6.43774 29.3501 7.1311C29.3501 7.4436 29.3029 7.74308 29.2085 8.02954C29.1141 8.31274 28.9595 8.56502 28.7446 8.78638C28.533 9.00773 28.2498 9.18351 27.895 9.31372C27.5402 9.44067 27.1024 9.50415 26.5815 9.50415H25.9321V12.0432H24.4185V4.90454H26.6987ZM26.6206 6.14478H25.9321V8.26392H26.4302C26.7134 8.26392 26.9591 8.22648 27.1675 8.15161C27.3758 8.07674 27.5369 7.95955 27.6509 7.80005C27.7648 7.64054 27.8218 7.43547 27.8218 7.18481C27.8218 6.83325 27.7241 6.57284 27.5288 6.40356C27.3335 6.23104 27.0308 6.14478 26.6206 6.14478ZM35.5415 9.30396C35.5415 9.75968 35.4797 10.1633 35.356 10.5149C35.2355 10.8665 35.0581 11.1643 34.8237 11.4084C34.5926 11.6493 34.3127 11.8316 33.9839 11.9553C33.6584 12.079 33.2905 12.1409 32.8804 12.1409C32.4963 12.1409 32.1431 12.079 31.8208 11.9553C31.5018 11.8316 31.2235 11.6493 30.9858 11.4084C30.7515 11.1643 30.5692 10.8665 30.439 10.5149C30.312 10.1633 30.2485 9.75968 30.2485 9.30396C30.2485 8.69849 30.356 8.18579 30.5708 7.76587C30.7856 7.34595 31.0916 7.02694 31.4888 6.80884C31.8859 6.59074 32.3595 6.48169 32.9097 6.48169C33.4207 6.48169 33.8732 6.59074 34.2671 6.80884C34.6642 7.02694 34.9751 7.34595 35.1997 7.76587C35.4276 8.18579 35.5415 8.69849 35.5415 9.30396ZM31.7671 9.30396C31.7671 9.66203 31.8062 9.96313 31.8843 10.2073C31.9624 10.4514 32.0845 10.6353 32.2505 10.759C32.4165 10.8827 32.633 10.9446 32.8999 10.9446C33.1636 10.9446 33.3768 10.8827 33.5396 10.759C33.7056 10.6353 33.826 10.4514 33.9009 10.2073C33.979 9.96313 34.0181 9.66203 34.0181 9.30396C34.0181 8.94263 33.979 8.64315 33.9009 8.40552C33.826 8.16463 33.7056 7.98397 33.5396 7.86353C33.3735 7.74308 33.1571 7.68286 32.8901 7.68286C32.4963 7.68286 32.2098 7.81795 32.0308 8.08813C31.855 8.35832 31.7671 8.76359 31.7671 9.30396ZM41.2593 12.0432L40.8394 10.134C40.8166 10.0201 40.7791 9.85246 40.7271 9.6311C40.675 9.40649 40.618 9.16724 40.5562 8.91333C40.4976 8.65617 40.4422 8.41854 40.3901 8.20044C40.3413 7.98234 40.3055 7.82284 40.2827 7.72192H40.2388C40.216 7.82284 40.1802 7.98234 40.1313 8.20044C40.0825 8.41854 40.0272 8.65617 39.9653 8.91333C39.9067 9.17049 39.8514 9.413 39.7993 9.64087C39.7472 9.86548 39.7082 10.0364 39.6821 10.1536L39.2427 12.0432H37.6411L36.0884 6.58423H37.5728L38.2026 9.00122C38.245 9.17049 38.2856 9.37231 38.3247 9.60669C38.3638 9.83781 38.3979 10.0624 38.4272 10.2805C38.4598 10.4954 38.4842 10.6663 38.5005 10.7932H38.5396C38.5461 10.6988 38.5591 10.5735 38.5786 10.4172C38.6014 10.261 38.6258 10.0999 38.6519 9.93384C38.6812 9.76457 38.7072 9.6132 38.73 9.47974C38.756 9.34302 38.7756 9.25024 38.7886 9.20142L39.4624 6.58423H41.103L41.7427 9.20142C41.7655 9.29582 41.7948 9.44556 41.8306 9.65063C41.8696 9.85571 41.9038 10.0673 41.9331 10.2854C41.9624 10.5002 41.9787 10.6695 41.9819 10.7932H42.021C42.034 10.6825 42.0568 10.5181 42.0894 10.3C42.1219 10.0819 42.1593 9.85409 42.2017 9.61646C42.2472 9.37557 42.2928 9.17049 42.3384 9.00122L42.9927 6.58423H44.4526L42.8804 12.0432H41.2593ZM47.5874 6.48169C48.092 6.48169 48.5265 6.57935 48.8911 6.77466C49.2557 6.96672 49.5373 7.24666 49.7358 7.6145C49.9344 7.98234 50.0337 8.43156 50.0337 8.96216V9.68481H46.5132C46.5295 10.1047 46.6548 10.4351 46.8892 10.676C47.1268 10.9137 47.4556 11.0325 47.8755 11.0325C48.2238 11.0325 48.5428 10.9967 48.8325 10.925C49.1222 10.8534 49.4201 10.746 49.7261 10.6028V11.7551C49.4559 11.8886 49.1727 11.9862 48.8765 12.0481C48.5835 12.1099 48.2271 12.1409 47.8071 12.1409C47.2603 12.1409 46.7752 12.04 46.3521 11.8381C45.9321 11.6363 45.6017 11.3287 45.3608 10.9153C45.1232 10.5019 45.0044 9.98104 45.0044 9.35278C45.0044 8.71476 45.1118 8.18416 45.3267 7.76099C45.5448 7.33455 45.8475 7.01554 46.2349 6.80396C46.6222 6.58911 47.0731 6.48169 47.5874 6.48169ZM47.5972 7.54126C47.3075 7.54126 47.0666 7.63403 46.8745 7.81958C46.6857 8.00513 46.5767 8.29647 46.5474 8.6936H48.6372C48.634 8.47225 48.5933 8.27531 48.5151 8.10278C48.4403 7.93026 48.3263 7.79354 48.1733 7.69263C48.0236 7.59172 47.8315 7.54126 47.5972 7.54126ZM54.2915 6.48169C54.3664 6.48169 54.4526 6.48657 54.5503 6.49634C54.6512 6.50285 54.7326 6.51261 54.7944 6.52563L54.6821 7.92212C54.6333 7.90584 54.5633 7.89445 54.4722 7.88794C54.3843 7.87817 54.3078 7.87329 54.2427 7.87329C54.0506 7.87329 53.8634 7.89771 53.6812 7.94653C53.5021 7.99536 53.341 8.07511 53.1978 8.18579C53.0545 8.29321 52.9406 8.43644 52.856 8.61548C52.7746 8.79126 52.7339 9.00773 52.7339 9.26489V12.0432H51.2446V6.58423H52.3726L52.5923 7.5022H52.6655C52.7729 7.31665 52.9064 7.14738 53.0659 6.99438C53.2287 6.83813 53.4126 6.71444 53.6177 6.62329C53.826 6.52889 54.0506 6.48169 54.2915 6.48169ZM58.0366 6.48169C58.5412 6.48169 58.9757 6.57935 59.3403 6.77466C59.7049 6.96672 59.9865 7.24666 60.1851 7.6145C60.3836 7.98234 60.4829 8.43156 60.4829 8.96216V9.68481H56.9624C56.9787 10.1047 57.104 10.4351 57.3384 10.676C57.576 10.9137 57.9048 11.0325 58.3247 11.0325C58.673 11.0325 58.992 10.9967 59.2817 10.925C59.5715 10.8534 59.8693 10.746 60.1753 10.6028V11.7551C59.9051 11.8886 59.6219 11.9862 59.3257 12.0481C59.0327 12.1099 58.6763 12.1409 58.2563 12.1409C57.7095 12.1409 57.2244 12.04 56.8013 11.8381C56.3813 11.6363 56.0509 11.3287 55.8101 10.9153C55.5724 10.5019 55.4536 9.98104 55.4536 9.35278C55.4536 8.71476 55.561 8.18416 55.7759 7.76099C55.994 7.33455 56.2967 7.01554 56.6841 6.80396C57.0715 6.58911 57.5223 6.48169 58.0366 6.48169ZM58.0464 7.54126C57.7567 7.54126 57.5158 7.63403 57.3237 7.81958C57.1349 8.00513 57.0259 8.29647 56.9966 8.6936H59.0864C59.0832 8.47225 59.0425 8.27531 58.9644 8.10278C58.8895 7.93026 58.7756 7.79354 58.6226 7.69263C58.4728 7.59172 58.2808 7.54126 58.0464 7.54126ZM63.4224 12.1409C62.8136 12.1409 62.3172 11.9032 61.9331 11.428C61.5522 10.9495 61.3618 10.248 61.3618 9.32349C61.3618 8.38924 61.5555 7.68286 61.9429 7.20435C62.3302 6.72257 62.8364 6.48169 63.4614 6.48169C63.7218 6.48169 63.9513 6.5175 64.1499 6.58911C64.3485 6.66073 64.5194 6.75675 64.6626 6.8772C64.8091 6.99764 64.9328 7.13273 65.0337 7.28247H65.0825C65.063 7.1783 65.0386 7.02531 65.0093 6.82349C64.9832 6.61841 64.9702 6.40845 64.9702 6.1936V4.44556H66.4644V12.0432H65.3218L65.0337 11.3352H64.9702C64.8758 11.4849 64.757 11.6217 64.6138 11.7454C64.4738 11.8658 64.3062 11.9618 64.1108 12.0334C63.9155 12.1051 63.686 12.1409 63.4224 12.1409ZM63.9448 10.9543C64.3517 10.9543 64.6382 10.8339 64.8042 10.593C64.9735 10.3489 65.063 9.98267 65.0728 9.49438V9.33325C65.0728 8.80265 64.9914 8.39738 64.8286 8.11743C64.6659 7.83423 64.3631 7.69263 63.9204 7.69263C63.5916 7.69263 63.3345 7.83423 63.1489 8.11743C62.9634 8.40063 62.8706 8.80916 62.8706 9.34302C62.8706 9.87687 62.9634 10.2789 63.1489 10.5491C63.3377 10.8193 63.603 10.9543 63.9448 10.9543ZM72.1089 4.44556V6.21313C72.1089 6.41821 72.1024 6.62166 72.0894 6.82349C72.0796 7.02531 72.0666 7.18156 72.0503 7.29224H72.1089C72.2521 7.06763 72.4474 6.8772 72.6948 6.72095C72.9422 6.56144 73.2629 6.48169 73.6567 6.48169C74.2687 6.48169 74.7651 6.72095 75.146 7.19946C75.5269 7.67798 75.7173 8.37948 75.7173 9.30396C75.7173 9.9257 75.6294 10.4482 75.4536 10.8713C75.2778 11.2913 75.0321 11.6086 74.7163 11.8235C74.4006 12.0351 74.0343 12.1409 73.6177 12.1409C73.2173 12.1409 72.9015 12.0693 72.6704 11.926C72.4393 11.7828 72.2521 11.6217 72.1089 11.4426H72.0063L71.7573 12.0432H70.6196V4.44556H72.1089ZM73.1782 7.6731C72.9178 7.6731 72.7111 7.72681 72.5581 7.83423C72.4051 7.94165 72.2928 8.10278 72.2212 8.31763C72.1528 8.53247 72.1154 8.80428 72.1089 9.13306V9.29419C72.1089 9.82479 72.187 10.2317 72.3433 10.5149C72.4995 10.7948 72.7843 10.9348 73.1978 10.9348C73.5037 10.9348 73.7463 10.7932 73.9253 10.51C74.1076 10.2268 74.1987 9.81828 74.1987 9.28442C74.1987 8.75057 74.1076 8.34855 73.9253 8.07837C73.743 7.80819 73.494 7.6731 73.1782 7.6731ZM76.1665 6.58423H77.7974L78.8276 9.65552C78.8602 9.75317 78.8879 9.85246 78.9106 9.95337C78.9334 10.0543 78.953 10.1584 78.9692 10.2659C78.9855 10.3733 78.9985 10.4856 79.0083 10.6028H79.0376C79.0571 10.427 79.0832 10.2626 79.1157 10.1096C79.1515 9.95662 79.1955 9.80526 79.2476 9.65552L80.2583 6.58423H81.855L79.5454 12.7415C79.4054 13.1191 79.2231 13.4332 78.9985 13.6838C78.7739 13.9377 78.5151 14.1282 78.2222 14.2551C77.9325 14.3821 77.6134 14.4456 77.2651 14.4456C77.0959 14.4456 76.9494 14.4358 76.8257 14.4163C76.702 14.4 76.5962 14.3821 76.5083 14.3625V13.1809C76.5767 13.1972 76.6629 13.2118 76.7671 13.2249C76.8713 13.2379 76.9803 13.2444 77.0942 13.2444C77.3026 13.2444 77.4816 13.2004 77.6313 13.1125C77.7811 13.0247 77.9064 12.9058 78.0073 12.7561C78.1082 12.6096 78.188 12.4485 78.2466 12.2727L78.3345 12.0042L76.1665 6.58423ZM91.689 12.0432H89.7651L86.6597 6.64282H86.6157C86.6287 6.86743 86.6401 7.09367 86.6499 7.32153C86.6597 7.5494 86.6694 7.77726 86.6792 8.00513C86.689 8.22974 86.6987 8.45597 86.7085 8.68384V12.0432H85.356V4.90454H87.2651L90.3657 10.2512H90.3999C90.3934 10.0299 90.3853 9.81014 90.3755 9.59204C90.3657 9.37394 90.356 9.15584 90.3462 8.93774C90.3397 8.71965 90.3332 8.50155 90.3267 8.28345V4.90454H91.689V12.0432ZM95.6245 6.48169C96.1291 6.48169 96.5636 6.57935 96.9282 6.77466C97.2928 6.96672 97.5744 7.24666 97.7729 7.6145C97.9715 7.98234 98.0708 8.43156 98.0708 8.96216V9.68481H94.5503C94.5666 10.1047 94.6919 10.4351 94.9263 10.676C95.1639 10.9137 95.4927 11.0325 95.9126 11.0325C96.2609 11.0325 96.5799 10.9967 96.8696 10.925C97.1593 10.8534 97.4572 10.746 97.7632 10.6028V11.7551C97.493 11.8886 97.2098 11.9862 96.9136 12.0481C96.6206 12.1099 96.2642 12.1409 95.8442 12.1409C95.2974 12.1409 94.8123 12.04 94.3892 11.8381C93.9692 11.6363 93.6388 11.3287 93.3979 10.9153C93.1603 10.5019 93.0415 9.98104 93.0415 9.35278C93.0415 8.71476 93.1489 8.18416 93.3638 7.76099C93.5819 7.33455 93.8846 7.01554 94.272 6.80396C94.6593 6.58911 95.1102 6.48169 95.6245 6.48169ZM95.6343 7.54126C95.3446 7.54126 95.1037 7.63403 94.9116 7.81958C94.7228 8.00513 94.6138 8.29647 94.5845 8.6936H96.6743C96.6711 8.47225 96.6304 8.27531 96.5522 8.10278C96.4774 7.93026 96.3634 7.79354 96.2104 7.69263C96.0607 7.59172 95.8687 7.54126 95.6343 7.54126ZM103.769 12.0432L103.349 10.134C103.326 10.0201 103.289 9.85246 103.237 9.6311C103.185 9.40649 103.128 9.16724 103.066 8.91333C103.007 8.65617 102.952 8.41854 102.9 8.20044C102.851 7.98234 102.815 7.82284 102.792 7.72192H102.749C102.726 7.82284 102.69 7.98234 102.641 8.20044C102.592 8.41854 102.537 8.65617 102.475 8.91333C102.417 9.17049 102.361 9.413 102.309 9.64087C102.257 9.86548 102.218 10.0364 102.192 10.1536L101.752 12.0432H100.151L98.5981 6.58423H100.083L100.712 9.00122C100.755 9.17049 100.795 9.37231 100.834 9.60669C100.874 9.83781 100.908 10.0624 100.937 10.2805C100.97 10.4954 100.994 10.6663 101.01 10.7932H101.049C101.056 10.6988 101.069 10.5735 101.088 10.4172C101.111 10.261 101.136 10.0999 101.162 9.93384C101.191 9.76457 101.217 9.6132 101.24 9.47974C101.266 9.34302 101.285 9.25024 101.298 9.20142L101.972 6.58423H103.613L104.252 9.20142C104.275 9.29582 104.305 9.44556 104.34 9.65063C104.379 9.85571 104.414 10.0673 104.443 10.2854C104.472 10.5002 104.488 10.6695 104.492 10.7932H104.531C104.544 10.6825 104.567 10.5181 104.599 10.3C104.632 10.0819 104.669 9.85409 104.711 9.61646C104.757 9.37557 104.803 9.17049 104.848 9.00122L105.502 6.58423H106.962L105.39 12.0432H103.769ZM109.443 14.4456C108.681 14.4456 108.098 14.3121 107.695 14.0452C107.294 13.7815 107.094 13.4104 107.094 12.9319C107.094 12.6031 107.197 12.328 107.402 12.1067C107.607 11.8853 107.908 11.7275 108.305 11.6331C108.152 11.568 108.019 11.4622 107.905 11.3157C107.791 11.1659 107.734 11.0081 107.734 10.842C107.734 10.6337 107.794 10.4612 107.915 10.3245C108.035 10.1845 108.209 10.0478 108.437 9.91431C108.151 9.79061 107.923 9.59204 107.753 9.3186C107.587 9.04517 107.504 8.7229 107.504 8.35181C107.504 7.95467 107.591 7.61776 107.763 7.34106C107.939 7.06112 108.193 6.8479 108.525 6.70142C108.86 6.55493 109.267 6.48169 109.746 6.48169C109.847 6.48169 109.964 6.4882 110.097 6.50122C110.231 6.51424 110.353 6.52889 110.463 6.54517C110.577 6.56144 110.654 6.57446 110.693 6.58423H112.597V7.34106L111.743 7.56079C111.821 7.68123 111.879 7.80981 111.918 7.94653C111.958 8.08325 111.977 8.22811 111.977 8.3811C111.977 8.96704 111.772 9.4244 111.362 9.75317C110.955 10.0787 110.389 10.2415 109.663 10.2415C109.49 10.2317 109.327 10.2187 109.174 10.2024C109.099 10.261 109.042 10.3228 109.003 10.3879C108.964 10.453 108.945 10.5214 108.945 10.593C108.945 10.6646 108.974 10.7249 109.033 10.7737C109.095 10.8193 109.186 10.8551 109.306 10.8811C109.43 10.9039 109.583 10.9153 109.765 10.9153H110.693C111.292 10.9153 111.748 11.0439 112.06 11.301C112.376 11.5582 112.534 11.9358 112.534 12.4338C112.534 13.0719 112.267 13.5667 111.733 13.9182C111.202 14.2698 110.439 14.4456 109.443 14.4456ZM109.506 13.4739C109.861 13.4739 110.166 13.4397 110.419 13.3713C110.677 13.3062 110.874 13.2118 111.01 13.0881C111.147 12.9677 111.215 12.8228 111.215 12.6536C111.215 12.5168 111.175 12.4078 111.093 12.3264C111.015 12.2483 110.895 12.193 110.732 12.1604C110.572 12.1278 110.367 12.1116 110.117 12.1116H109.345C109.163 12.1116 108.999 12.1409 108.852 12.1995C108.709 12.2581 108.595 12.3394 108.51 12.4436C108.426 12.551 108.383 12.6747 108.383 12.8147C108.383 13.0198 108.481 13.1809 108.676 13.2981C108.875 13.4153 109.152 13.4739 109.506 13.4739ZM109.746 9.33325C110.026 9.33325 110.231 9.24699 110.361 9.07446C110.491 8.90194 110.556 8.66756 110.556 8.37134C110.556 8.04256 110.488 7.79679 110.351 7.63403C110.218 7.46802 110.016 7.38501 109.746 7.38501C109.472 7.38501 109.267 7.46802 109.13 7.63403C108.994 7.79679 108.925 8.04256 108.925 8.37134C108.925 8.66756 108.992 8.90194 109.125 9.07446C109.262 9.24699 109.469 9.33325 109.746 9.33325ZM115.751 6.48169C116.256 6.48169 116.691 6.57935 117.055 6.77466C117.42 6.96672 117.701 7.24666 117.9 7.6145C118.098 7.98234 118.198 8.43156 118.198 8.96216V9.68481H114.677C114.694 10.1047 114.819 10.4351 115.053 10.676C115.291 10.9137 115.62 11.0325 116.04 11.0325C116.388 11.0325 116.707 10.9967 116.997 10.925C117.286 10.8534 117.584 10.746 117.89 10.6028V11.7551C117.62 11.8886 117.337 11.9862 117.041 12.0481C116.748 12.1099 116.391 12.1409 115.971 12.1409C115.424 12.1409 114.939 12.04 114.516 11.8381C114.096 11.6363 113.766 11.3287 113.525 10.9153C113.287 10.5019 113.168 9.98104 113.168 9.35278C113.168 8.71476 113.276 8.18416 113.491 7.76099C113.709 7.33455 114.012 7.01554 114.399 6.80396C114.786 6.58911 115.237 6.48169 115.751 6.48169ZM115.761 7.54126C115.472 7.54126 115.231 7.63403 115.039 7.81958C114.85 8.00513 114.741 8.29647 114.711 8.6936H116.801C116.798 8.47225 116.757 8.27531 116.679 8.10278C116.604 7.93026 116.49 7.79354 116.337 7.69263C116.188 7.59172 115.996 7.54126 115.761 7.54126ZM122.509 6.48169C123.092 6.48169 123.561 6.64119 123.916 6.96021C124.27 7.27596 124.448 7.78377 124.448 8.48364V12.0432H122.958V8.85474C122.958 8.46411 122.887 8.16951 122.744 7.97095C122.604 7.77238 122.382 7.6731 122.08 7.6731C121.624 7.6731 121.313 7.82772 121.147 8.13696C120.981 8.44621 120.898 8.89217 120.898 9.47485V12.0432H119.409V6.58423H120.546L120.747 7.28247H120.83C120.947 7.09367 121.092 6.94067 121.264 6.82349C121.44 6.7063 121.634 6.62004 121.845 6.5647C122.06 6.50936 122.281 6.48169 122.509 6.48169ZM133.066 12.0432L132.548 10.344H129.946L129.428 12.0432H127.797L130.317 4.87524H132.167L134.697 12.0432H133.066ZM132.187 9.07446L131.669 7.41431C131.637 7.30363 131.593 7.16203 131.538 6.9895C131.486 6.81372 131.432 6.63631 131.376 6.45728C131.324 6.27498 131.282 6.11711 131.25 5.98364C131.217 6.11711 131.171 6.28312 131.113 6.48169C131.057 6.677 131.004 6.86255 130.952 7.03833C130.9 7.21411 130.862 7.33944 130.839 7.41431L130.327 9.07446H132.187ZM135.6 12.0432V4.90454H137.114V12.0432H135.6Z" fill="url(#paint0_linear_23_348)"/>
<ellipse cx="10.56" cy="2.50163" rx="2.73345" ry="2.50167" transform="rotate(-180 10.56 2.50163)" fill="url(#paint1_linear_23_348)"/>
<path d="M2.9806 9.11905C3.70952 7.99329 7.76413 5.78328 9.58643 4.84515C8.27665 4.42821 7.65024 3.17737 7.82108 2.13501C6.68214 2.84729 4.30176 4.70986 3.89175 5.00172C3.37923 5.36655 1.21525 7.55551 1.10136 7.76398C0.987462 7.97246 -0.161738 9.57115 0.0193672 10.7866C0.190207 11.9332 0.417994 12.4023 1.10136 13.184C1.37465 13.4967 2.9806 14.3306 4.11954 14.3828C5.02955 14.4244 5.81662 14.2717 6.11267 14.2266C6.45435 14.1745 6.90993 14.0181 7.02382 13.9139C7.06938 13.8305 6.73909 13.8096 6.68214 13.8096L5.88489 13.7575L4.74595 13.4969C4.4802 13.4101 3.84619 13.0904 3.20839 12.7152C2.57058 12.3399 2.29724 11.586 2.24029 11.2559C2.18334 11.0127 2.25168 10.2448 2.9806 9.11905Z" fill="url(#paint2_linear_23_348)"/>
<ellipse cx="11.3394" cy="13.2021" rx="2.73345" ry="2.50167" fill="url(#paint3_linear_23_348)"/>
<path d="M18.9188 6.58078C18.1899 7.70654 14.1353 9.91655 12.313 10.8547C13.6228 11.2716 14.2492 12.5225 14.0783 13.5648C15.2173 12.8525 17.5976 10.99 18.0077 10.6981C18.5202 10.3333 20.6842 8.14432 20.7981 7.93585C20.912 7.72737 22.0612 6.12868 21.88 4.91321C21.7092 3.76664 21.4814 3.29755 20.7981 2.51578C20.5248 2.20313 18.9188 1.36918 17.7799 1.31706C16.8699 1.27541 16.0828 1.4281 15.7867 1.47326C15.4451 1.52538 14.9895 1.68173 14.8756 1.78597C14.83 1.86936 15.1603 1.8902 15.2173 1.8902L16.0145 1.94232L17.1535 2.20291C17.4192 2.28978 18.0532 2.60938 18.691 2.98463C19.3288 3.35988 19.6022 4.11386 19.6591 4.44394C19.7161 4.68716 19.6477 5.45503 18.9188 6.58078Z" fill="url(#paint4_linear_23_348)"/>
<defs>
<linearGradient id="paint0_linear_23_348" x1="78.1419" y1="-4.91089" x2="77.6667" y2="26.2335" gradientUnits="userSpaceOnUse">
<stop stop-color="#FF5401"/>
<stop offset="0.443778" stop-color="#FF6200"/>
<stop offset="1" stop-color="#FF8D00"/>
</linearGradient>
<linearGradient id="paint1_linear_23_348" x1="11.7985" y1="1.28341" x2="-3.28548" y2="17.0484" gradientUnits="userSpaceOnUse">
<stop stop-color="#E16310"/>
<stop offset="1"/>
</linearGradient>
<linearGradient id="paint2_linear_23_348" x1="5.01824" y1="10.2757" x2="13.0669" y2="-7.98966" gradientUnits="userSpaceOnUse">
<stop offset="0.102483" stop-color="#FF8D01"/>
<stop offset="0.555516" stop-color="#FF5401"/>
<stop offset="1" stop-color="#FF6701"/>
</linearGradient>
<linearGradient id="paint3_linear_23_348" x1="12.5779" y1="11.9839" x2="-2.50609" y2="27.7488" gradientUnits="userSpaceOnUse">
<stop stop-color="#E16310"/>
<stop offset="1"/>
</linearGradient>
<linearGradient id="paint4_linear_23_348" x1="16.8812" y1="5.42417" x2="8.83247" y2="23.6895" gradientUnits="userSpaceOnUse">
<stop offset="0.102483" stop-color="#FF8D01"/>
<stop offset="0.555516" stop-color="#FF5401"/>
<stop offset="1" stop-color="#FF6701"/>
</linearGradient>
</defs>
</svg>
