<svg xmlns="http://www.w3.org/2000/svg" width="8" height="14" viewBox="0 0 8 14" fill="none">
  <path d="M7.20871 0.687711L0.947711 6.94871C0.852632 7.04379 0.799216 7.17275 0.799216 7.30721C0.799216 7.44167 0.852632 7.57063 0.947711 7.66571L7.20871 13.9257C7.25634 13.9733 7.3209 14 7.38821 14C7.45552 14 7.52009 13.9733 7.56771 13.9257L7.92571 13.5677C7.97328 13.5201 8 13.4555 8 13.3882C8 13.3209 7.97328 13.2563 7.92571 13.2087L2.02571 7.30871L7.92571 1.40871C7.97328 1.36108 8 1.29652 8 1.22921C8 1.1619 7.97328 1.09734 7.92571 1.04971L7.56771 0.69171C7.52062 0.643606 7.45635 0.616164 7.38904 0.615415C7.32172 0.614665 7.25686 0.640668 7.20871 0.687711Z" fill="#616160"/>
</svg>