<svg width="15" height="18" viewBox="0 0 15 18" fill="none" xmlns="http://www.w3.org/2000/svg">
<g id="Group 1000007145">
<g id="Group 54180">
<path id="Vector" d="M1 4.2H2.45921M2.45921 4.2H14.1329M2.45921 4.2V15.4C2.45921 15.8243 2.61295 16.2313 2.88661 16.5314C3.16026 16.8314 3.53142 17 3.91843 17H11.2145C11.6015 17 11.9727 16.8314 12.2463 16.5314C12.52 16.2313 12.6737 15.8243 12.6737 15.4V4.2M4.64804 4.2V2.6C4.64804 2.17565 4.80178 1.76869 5.07543 1.46863C5.34909 1.16857 5.72024 1 6.10725 1H9.02568C9.41269 1 9.78385 1.16857 10.0575 1.46863C10.3312 1.76869 10.4849 2.17565 10.4849 2.6V4.2M6.10725 8.2V13M9.02568 8.2V13" stroke="#A6A6A6" stroke-width="1.5" stroke-linecap="round" stroke-linejoin="round"/>
</g>
</g>
</svg>
