<svg xmlns="http://www.w3.org/2000/svg" width="12" height="12" viewBox="0 0 12 12" fill="none">
  <path fill-rule="evenodd" clip-rule="evenodd" d="M0 6C0 4.4087 0.632141 2.88258 1.75736 1.75736C2.88258 0.632141 4.4087 0 6 0C7.5913 0 9.11742 0.632141 10.2426 1.75736C11.3679 2.88258 12 4.4087 12 6C12 7.5913 11.3679 9.11742 10.2426 10.2426C9.11742 11.3679 7.5913 12 6 12C4.4087 12 2.88258 11.3679 1.75736 10.2426C0.632141 9.11742 0 7.5913 0 6ZM6 0.860637C4.63696 0.860637 3.32974 1.4021 2.36592 2.36592C1.4021 3.32974 0.860637 4.63696 0.860637 6C0.860637 7.36304 1.4021 8.67026 2.36592 9.63408C3.32974 10.5979 4.63696 11.1394 6 11.1394C7.36304 11.1394 8.67026 10.5979 9.63408 9.63408C10.5979 8.67026 11.1394 7.36304 11.1394 6C11.1394 4.63696 10.5979 3.32974 9.63408 2.36592C8.67026 1.4021 7.36304 0.860637 6 0.860637ZM6.67945 8.7178C6.67945 8.898 6.60787 9.07082 6.48044 9.19825C6.35302 9.32567 6.1802 9.39725 6 9.39725C5.8198 9.39725 5.64698 9.32567 5.51956 9.19825C5.39213 9.07082 5.32055 8.898 5.32055 8.7178C5.32055 8.5376 5.39213 8.36478 5.51956 8.23736C5.64698 8.10994 5.8198 8.03835 6 8.03835C6.1802 8.03835 6.35302 8.10994 6.48044 8.23736C6.60787 8.36478 6.67945 8.5376 6.67945 8.7178ZM4.6864 4.86758C4.6864 4.25336 5.21637 3.66722 6 3.66722C6.78363 3.66722 7.3136 4.25336 7.3136 4.86758C7.3136 5.3124 7.069 5.53979 6.64684 5.79616C6.60063 5.82515 6.54628 5.85596 6.48739 5.89038C6.31035 5.98818 6.13969 6.09711 5.97645 6.21652C5.75721 6.38683 5.50174 6.66314 5.50174 7.08712C5.50126 7.21927 5.55329 7.34619 5.64639 7.43998C5.7395 7.53376 5.86604 7.58672 5.99819 7.5872C6.13034 7.58768 6.25726 7.53564 6.35104 7.44254C6.44483 7.34944 6.49778 7.22289 6.49826 7.09074C6.52356 7.05654 6.55414 7.02657 6.58886 7.00196C6.68126 6.93039 6.78363 6.87151 6.92043 6.79179C6.99109 6.75102 7.07172 6.70391 7.16503 6.64774C7.6488 6.35331 8.31013 5.86773 8.31013 4.86758C8.31013 3.66994 7.30001 2.67069 6 2.67069C4.69999 2.67069 3.68987 3.66994 3.68987 4.86758C3.68987 4.99973 3.74236 5.12647 3.83581 5.21991C3.92925 5.31335 4.05598 5.36585 4.18813 5.36585C4.32028 5.36585 4.44702 5.31335 4.54046 5.21991C4.6339 5.12647 4.6864 4.99973 4.6864 4.86758Z" fill="black" fill-opacity="0.5"/>
</svg>
