<svg xmlns="http://www.w3.org/2000/svg" width="8" height="14" viewBox="0 0 8 14" fill="none">
  <path d="M0.791289 13.3123L7.05229 7.05129C7.14737 6.95621 7.20078 6.82725 7.20078 6.69279C7.20078 6.55833 7.14737 6.42937 7.05229 6.33429L0.791289 0.0742898C0.743664 0.0267198 0.679103 0 0.61179 0C0.544476 0 0.479915 0.0267198 0.432289 0.0742898L0.0742893 0.43229C0.0267194 0.479915 0 0.544476 0 0.61179C0 0.679103 0.0267194 0.743664 0.0742893 0.79129L5.97429 6.69129L0.0742893 12.5913C0.0267194 12.6389 0 12.7035 0 12.7708C0 12.8381 0.0267194 12.9027 0.0742893 12.9503L0.432289 13.3083C0.479383 13.3564 0.543647 13.3838 0.610962 13.3846C0.678277 13.3853 0.743136 13.3593 0.791289 13.3123Z" fill="#616160"/>
</svg>