<svg xmlns="http://www.w3.org/2000/svg" xmlns:xlink="http://www.w3.org/1999/xlink" width="182.064" height="179.803" viewBox="0 0 182.064 179.803">
  <defs>
    <clipPath id="clip-path">
      <ellipse id="Ellipse_4321" data-name="Ellipse 4321" cx="32.463" cy="31.839" rx="32.463" ry="31.839" transform="translate(123.786 98.451)"/>
    </clipPath>
    <clipPath id="clip-path-2">
      <ellipse id="Ellipse_3413" data-name="Ellipse 3413" cx="29.694" cy="29.212" rx="29.694" ry="29.212" transform="translate(106.871 98.33)"/>
    </clipPath>
  </defs>
  <g id="Layer_7" transform="translate(-5.719 -0.099)">
    <path id="Path_55482_00000140012318139818855070000001343825476698677676_" d="M183.171,77.738c1.867,37.576-37.515,57.88-71.868,69.22-33.21,10.963-73.083,14.859-93.469-14.639-20.249-29.306-6.084-69.282,16.672-96.51,17.281-20.674,45.5-15.382,70.869-8.228,32.527,9.171,76.052,15.016,77.8,50.157" fill="#efedec"/>
    <path id="Path_54374" d="M151.594,23.681H34.529a10.319,10.319,0,0,0-10.443,10.19v96.345a10.319,10.319,0,0,0,10.443,10.19H151.594a10.319,10.319,0,0,0,10.443-10.19V33.871A10.319,10.319,0,0,0,151.594,23.681ZM61.443,122.053a2.063,2.063,0,0,1-2.063,2.063H40.186a2.063,2.063,0,0,1-2.063-2.063h0V117.6a2.063,2.063,0,0,1,2.063-2.063H59.38a2.063,2.063,0,0,1,2.063,2.063h0v4.455Zm0-16.212A2.063,2.063,0,0,1,59.38,107.9H40.186a2.063,2.063,0,0,1-2.063-2.063h0v-4.459a2.063,2.063,0,0,1,2.063-2.063H59.38a2.063,2.063,0,0,1,2.063,2.063h0Zm0-16.212A2.063,2.063,0,0,1,59.386,91.7h-19.2a2.063,2.063,0,0,1-2.066-2.06V85.172a2.063,2.063,0,0,1,2.063-2.063h19.2a2.063,2.063,0,0,1,2.063,2.063h0v4.459Zm0-16.212a2.063,2.063,0,0,1-2.063,2.063H40.186a2.063,2.063,0,0,1-2.066-2.06V68.96A2.063,2.063,0,0,1,40.184,66.9H59.379a2.063,2.063,0,0,1,2.063,2.063h0v4.457Zm52.692,48.635a2.063,2.063,0,0,1-2.063,2.063H71.219a2.063,2.063,0,0,1-2.063-2.063h0V117.6a2.063,2.063,0,0,1,2.063-2.063h40.849a2.063,2.063,0,0,1,2.063,2.063h0Zm0-16.212a2.063,2.063,0,0,1-2.063,2.063H71.219a2.063,2.063,0,0,1-2.063-2.063h0v-4.459a2.063,2.063,0,0,1,2.063-2.061h40.849a2.063,2.063,0,0,1,2.063,2.063h0Zm0-16.212a2.063,2.063,0,0,1-2.063,2.063H71.219a2.063,2.063,0,0,1-2.063-2.063h0V85.172a2.063,2.063,0,0,1,2.063-2.063h40.849a2.063,2.063,0,0,1,2.063,2.063h0Zm0-16.212a2.063,2.063,0,0,1-2.063,2.063H71.219a2.063,2.063,0,0,1-2.06-2.061V68.96a2.063,2.063,0,0,1,2.06-2.061h40.849a2.063,2.063,0,0,1,2.063,2.063h0ZM151.32,89.631a2.063,2.063,0,0,1-2.063,2.063H123.879a2.063,2.063,0,0,1-2.063-2.063h0V85.172a2.063,2.063,0,0,1,2.063-2.063h25.376a2.063,2.063,0,0,1,2.063,2.063h0Zm0-16.212a2.063,2.063,0,0,1-2.063,2.063H123.879a2.063,2.063,0,0,1-2.059-2.063V68.96a2.063,2.063,0,0,1,2.063-2.063h25.376a2.063,2.063,0,0,1,2.063,2.063h0Z" fill="#fff"/>
    <path id="Rectangle_16762_00000083061820522014132470000017005485696852294041_" d="M34.539,23.688H151.6a10.319,10.319,0,0,1,10.443,10.19V34.9H24.094V33.877A10.319,10.319,0,0,1,34.539,23.688Z" fill="#c9c9c9"/>
    <ellipse id="Ellipse_3499_00000078026021686143748110000007097288688783479170_" cx="2.797" cy="2.729" rx="2.797" ry="2.729" transform="translate(151.531 26.565)" fill="#fff"/>
    <ellipse id="Ellipse_3500_00000059302193047554544760000012615179974591569582_" cx="2.797" cy="2.729" rx="2.797" ry="2.729" transform="translate(143.148 26.565)" fill="#fff"/>
    <ellipse id="Ellipse_3504_00000114784306644384329760000010022747621125264287_" cx="2.982" cy="2.909" rx="2.982" ry="2.909" transform="translate(172.124 0.099)" fill="#c9c9c9"/>
    <ellipse id="Ellipse_3505_00000064333528330888359900000008389292557301828778_" cx="1.491" cy="1.455" rx="1.491" ry="1.455" transform="translate(175.859 18.667)" fill="#c9c9c9"/>
    <line id="Line_3296_00000168083713341138765120000014416563503494116526_" x1="3.52" transform="translate(5.72 8.715)" fill="none" stroke="#b5b4b3" stroke-miterlimit="10" stroke-width="1.032"/>
    <line id="Line_3297_00000122700707002946147440000015058042594845187729_" y2="3.435" transform="translate(7.482 6.997)" fill="none" stroke="#b5b4b3" stroke-miterlimit="10" stroke-width="1.032"/>
    <ellipse id="Ellipse_3506_00000101812446079298797300000008765050100011320968_" cx="1.491" cy="1.455" rx="1.491" ry="1.455" transform="translate(25.473 13.573)" fill="#c9c9c9"/>
    <ellipse id="Ellipse_3507_00000179640780301698310530000001164303559037419905_" cx="1.491" cy="1.455" rx="1.491" ry="1.455" transform="translate(7.268 28.992)" fill="#c9c9c9"/>
    <ellipse id="Ellipse_3508_00000146479439277106069370000009527777519203771059_" cx="2.982" cy="2.909" rx="2.982" ry="2.909" transform="translate(90.444 174.083)" fill="#c9c9c9"/>
    <ellipse id="Ellipse_3509_00000056421384970062340050000003006612742468508331_" cx="1.491" cy="1.455" rx="1.491" ry="1.455" transform="translate(62.027 170.501)" fill="#c9c9c9"/>
    <ellipse id="Ellipse_3510_00000150090343044955244270000012078408311675902344_" cx="1.491" cy="1.455" rx="1.491" ry="1.455" transform="translate(7.268 144.141)" fill="#c9c9c9"/>
    <path id="Path_54375" d="M123.879,59.271h25.376a2.063,2.063,0,0,0,2.063-2.063h0V52.749a2.063,2.063,0,0,0-2.063-2.063H123.879a2.063,2.063,0,0,0-2.059,2.063v4.459A2.063,2.063,0,0,0,123.879,59.271Z" fill="#d3d3d3"/>
    <path id="Path_54376" d="M71.219,59.271h40.849a2.063,2.063,0,0,0,2.063-2.063h0V52.749a2.063,2.063,0,0,0-2.063-2.063H71.219a2.063,2.063,0,0,0-2.06,2.063v4.459A2.063,2.063,0,0,0,71.219,59.271Z" fill="#d3d3d3"/>
    <path id="Path_54377" d="M40.186,59.271H59.38a2.063,2.063,0,0,0,2.063-2.063V52.749a2.063,2.063,0,0,0-2.063-2.063H40.186a2.063,2.063,0,0,0-2.066,2.06v4.462a2.063,2.063,0,0,0,2.063,2.063Z" fill="#d3d3d3"/>
    <path id="Path_54378" d="M123.879,107.906h25.376a2.063,2.063,0,0,0,2.063-2.063h0v-4.459a2.063,2.063,0,0,0-2.063-2.063H123.879a2.063,2.063,0,0,0-2.063,2.063h0v4.459a2.063,2.063,0,0,0,2.063,2.063Z" fill="#f2f1ef"/>
    <path id="Path_54379" d="M123.879,124.118h25.376a2.063,2.063,0,0,0,2.063-2.063h0V117.6a2.063,2.063,0,0,0-2.063-2.063H123.879a2.063,2.063,0,0,0-2.059,2.063v4.459A2.063,2.063,0,0,0,123.879,124.118Z" fill="#f2f1ef"/>
    <line id="Line_3298_00000013181612459783387420000014573175147843998377_" x1="5.116" transform="translate(179.165 140.898)" fill="none" stroke="#b5b4b3" stroke-miterlimit="10" stroke-width="1.032"/>
    <line id="Line_3299_00000135660188461095514380000001901439500656328078_" y2="4.992" transform="translate(181.723 138.402)" fill="none" stroke="#b5b4b3" stroke-miterlimit="10" stroke-width="1.032"/>
    <g id="Group_60579">
      <g id="Group_60578">
        <g id="Group_73756" data-name="Group 73756">
          <g id="Group_73755" data-name="Group 73755">
            <g id="Group_63405_00000130624707928001070310000012806794113455144615_" transform="translate(-0.928 -1.088)" clip-path="url(#clip-path)">
              <g id="Group_63404_00000075863569010653149990000009888071992155574925_" transform="translate(123.572 109.056)" opacity="0.2">
                <path id="Path_55445_00000018195202426959237140000004002774516009677222_" d="M40.194-15.413l7.7,2.941L16.626,66.245,8.926,63.3Z" fill="#fff"/>
                <path id="Path_55446_00000017477038250788913250000009350762302154801569_" d="M51.2-11.209,56.37-9.233,25.1,69.488l-5.172-1.976Z" fill="#fff"/>
                <path id="Path_55447_00000137853048502440050310000008870906492258890400_" d="M59.178-8.155,64.35-6.179,33.084,72.537l-5.172-1.976Z" fill="#fff"/>
              </g>
            </g>
          </g>
        </g>
      </g>
    </g>
    <g id="Group_74047" data-name="Group 74047" transform="translate(-111.326 54.925)">
      <ellipse id="Ellipse_3412" data-name="Ellipse 3412" cx="26.774" cy="26.205" rx="26.774" ry="26.205" transform="translate(241.438 50.523)" fill="#fff"/>
      <g id="Ellipse_3508" data-name="Ellipse 3508" transform="translate(239.719 48.099)" fill="none" stroke="#b4b4b2" stroke-width="5">
        <circle cx="29" cy="29" r="29" stroke="none"/>
        <circle cx="29" cy="29" r="26.5" fill="none"/>
      </g>
      <g id="Group_63405_00000177447865689158583240000005426439193439166397_" transform="translate(132.082 -50.638)" clip-path="url(#clip-path-2)">
        <g id="Group_63404_00000152973230698319566440000009608614150343185280_" transform="translate(123.572 109.056)" opacity="0.2">
          <path id="Path_55445_00000099646329287205211060000001218113946250511247_" d="M18.329-16.954l7.041,2.7-28.6,72.224-7.041-2.7Z" fill="#fff"/>
          <path id="Path_55446_00000091736807779565904430000014929835729415812244_" d="M28.394-13.1l4.73,1.813L4.527,60.94-.2,59.128Z" fill="#fff"/>
          <path id="Path_55447_00000029008626378566534320000006840544966271918781_" d="M35.693-10.3l4.73,1.812-28.6,72.225L7.1,61.925Z" fill="#fff"/>
        </g>
      </g>
      <path id="Path_54405" data-name="Path 54405" d="M150.682,118.969l-2.645-2.7-10.109,9.893-10.109-9.894-2.645,2.7,10.052,9.838-10.052,9.837,2.645,2.7,10.109-9.894,10.109,9.894,2.645-2.7-10.051-9.837Z" transform="translate(80.037 83.354) rotate(-45)" fill="#b4b4b2"/>
    </g>
  </g>
</svg>
