<svg width="173" height="144" viewBox="0 0 173 144" fill="none" xmlns="http://www.w3.org/2000/svg">
<g id="Group 1000007789">
<g id="Group 77264">
<path id="Path_55482_00000106119530007528201360000013874132496900398208_" fill-rule="evenodd" clip-rule="evenodd" d="M172.302 60.0119C174.14 98.0295 135.381 118.572 101.571 130.045C68.8863 141.137 29.6401 145.078 9.58132 115.233C-10.348 85.5835 3.59331 45.138 25.9895 17.59C42.9968 -3.32671 70.7683 2.02724 95.7371 9.26587C127.75 18.5447 170.586 24.4584 172.309 60.0119" fill="url(#paint0_linear_1539_3928)"/>
<path id="Path 63117" fill-rule="evenodd" clip-rule="evenodd" d="M131.034 18.8867H37.2795C32.6602 18.8867 28.9155 22.5405 28.9155 27.0478V104.208C28.9155 108.715 32.6602 112.369 37.2795 112.369H131.034C135.653 112.369 139.397 108.715 139.397 104.208V27.0479C139.397 22.5406 135.653 18.8867 131.034 18.8867ZM58.8338 97.6686C58.8338 98.5811 58.094 99.3209 57.1814 99.3209H41.8096C40.897 99.3209 40.1572 98.5812 40.1572 97.6686V94.0977C40.1572 93.1851 40.897 92.4453 41.8096 92.4453H57.1814C58.094 92.4453 58.8338 93.1851 58.8338 94.0977V97.6686ZM58.8338 84.6881C58.8338 85.6007 58.094 86.3404 57.1814 86.3404H41.8096C40.897 86.3404 40.1572 85.6007 40.1572 84.6881V81.1172C40.1572 80.2046 40.897 79.4648 41.8096 79.4648H57.1814C58.094 79.4648 58.8338 80.2046 58.8338 81.1172C58.8338 81.1171 58.8338 84.6881 58.8338 84.6881ZM58.8338 71.7037C58.8338 72.6163 58.094 73.3561 57.1814 73.3561H41.8096C40.897 73.3561 40.1572 72.6162 40.1572 71.7037V68.1328C40.1572 67.2202 40.897 66.4805 41.8096 66.4805H57.1814C58.094 66.4805 58.8338 67.2202 58.8338 68.1328C58.8338 68.1328 58.8338 71.7037 58.8338 71.7037ZM58.8338 58.7193C58.8338 59.6319 58.094 60.3717 57.1814 60.3717H41.8096C40.897 60.3717 40.1572 59.6318 40.1572 58.7193V55.1484C40.1572 54.2359 40.897 53.4961 41.8096 53.4961H57.1814C58.094 53.4961 58.8338 54.2358 58.8338 55.1484C58.8338 55.1483 58.8338 58.7193 58.8338 58.7193ZM101.033 97.6686C101.033 98.5811 100.293 99.3209 99.3807 99.3209H66.6658C65.7532 99.3209 65.0134 98.5812 65.0134 97.6686V94.0977C65.0134 93.1851 65.7532 92.4453 66.6658 92.4453H99.3805C100.293 92.4453 101.033 93.1851 101.033 94.0977V97.6686H101.033ZM101.033 84.6881C101.033 85.6007 100.293 86.3404 99.3807 86.3404H66.6658C65.7532 86.3404 65.0134 85.6007 65.0134 84.6881V81.1172C65.0134 80.2046 65.7532 79.4648 66.6658 79.4648H99.3805C100.293 79.4648 101.033 80.2046 101.033 81.1172V84.6881H101.033ZM101.033 71.7037C101.033 72.6163 100.293 73.3561 99.3807 73.3561H66.6658C65.7532 73.3561 65.0134 72.6162 65.0134 71.7037V68.1328C65.0134 67.2202 65.7532 66.4805 66.6658 66.4805H99.3805C100.293 66.4805 101.033 67.2202 101.033 68.1328V71.7037H101.033ZM101.033 58.7193C101.033 59.6319 100.294 60.3717 99.3811 60.3717H66.6662C65.7537 60.3717 65.0139 59.6318 65.0139 58.7193V55.1484C65.0139 54.2359 65.7537 53.4961 66.6662 53.4961H99.381C100.294 53.4961 101.033 54.2358 101.033 55.1484V58.7193H101.033ZM130.812 71.7037C130.812 72.6163 130.072 73.3561 129.16 73.3561H108.837C107.924 73.3561 107.184 72.6162 107.184 71.7037V68.1328C107.184 67.2202 107.924 66.4805 108.837 66.4805H129.16C130.072 66.4805 130.812 67.2202 130.812 68.1328V71.7037ZM130.812 58.7193C130.812 59.6319 130.072 60.3717 129.16 60.3717H108.837C107.924 60.3717 107.184 59.6318 107.184 58.7193V55.1484C107.184 54.2359 107.924 53.4961 108.837 53.4961H129.16C130.072 53.4961 130.812 54.2358 130.812 55.1484V58.7193Z" fill="white"/>
<path id="Rectangle_16762_00000014633589221064543720000003469444456538622854_" fill-rule="evenodd" clip-rule="evenodd" d="M37.2857 18.8945H131.04C135.659 18.8945 139.404 22.5484 139.404 27.0556V27.8717H28.9219V27.0556C28.9219 22.5484 32.6665 18.8945 37.2857 18.8945Z" fill="url(#paint1_linear_1539_3928)" fill-opacity="0.5"/>
<path id="Ellipse_3499_00000128481516555906288930000010433134292570741135_" fill-rule="evenodd" clip-rule="evenodd" d="M133.221 25.5662C134.458 25.5662 135.461 24.5878 135.461 23.3808C135.461 22.1738 134.458 21.1953 133.221 21.1953C131.984 21.1953 130.981 22.1738 130.981 23.3808C130.981 24.5878 131.984 25.5662 133.221 25.5662Z" fill="white"/>
<path id="Ellipse_3500_00000059301956746862318440000003501532081877953716_" fill-rule="evenodd" clip-rule="evenodd" d="M126.509 25.5662C127.746 25.5662 128.749 24.5878 128.749 23.3808C128.749 22.1738 127.746 21.1953 126.509 21.1953C125.272 21.1953 124.269 22.1738 124.269 23.3808C124.269 24.5878 125.272 25.5662 126.509 25.5662Z" fill="white"/>
<path id="Ellipse_3504_00000106131722672163209010000017699081634996102571_" fill-rule="evenodd" clip-rule="evenodd" d="M149.864 4.66007C151.183 4.66007 152.252 3.61688 152.252 2.33004C152.252 1.04319 151.183 0 149.864 0C148.545 0 147.476 1.04319 147.476 2.33004C147.476 3.61688 148.545 4.66007 149.864 4.66007Z" fill="#FB8B23"/>
<path id="Ellipse_3505_00000136397206280630674690000013072536902894612914_" fill-rule="evenodd" clip-rule="evenodd" d="M151.661 17.2019C152.321 17.2019 152.856 16.6801 152.856 16.0365C152.856 15.3929 152.321 14.8711 151.661 14.8711C151.002 14.8711 150.467 15.3929 150.467 16.0365C150.467 16.6801 151.002 17.2019 151.661 17.2019Z" fill="#FB8B23"/>
<path id="Line_3296_00000060723762917630188490000017651289086863854988_" fill-rule="evenodd" clip-rule="evenodd" d="M17.0256 7.31444H14.2061V6.48828H17.0256V7.31444Z" fill="#FB8B23"/>
<path id="Line_3297_00000034798447636767636400000014949495174239943090_" fill-rule="evenodd" clip-rule="evenodd" d="M16.029 8.27449H15.2029V5.52344H16.029V8.27449Z" fill="#FB8B23"/>
<path id="Ellipse_3506_00000145763841318175711960000007896163527020287379_" fill-rule="evenodd" clip-rule="evenodd" d="M31.2214 13.1237C31.8811 13.1237 32.4158 12.602 32.4158 11.9583C32.4158 11.3147 31.8811 10.793 31.2214 10.793C30.5618 10.793 30.0271 11.3147 30.0271 11.9583C30.0271 12.602 30.5618 13.1237 31.2214 13.1237Z" fill="#FB8B23"/>
<path id="Ellipse_3507_00000076568746712699547340000017275007664408997806_" fill-rule="evenodd" clip-rule="evenodd" d="M16.6416 25.4714C17.3012 25.4714 17.836 24.9496 17.836 24.306C17.836 23.6624 17.3012 23.1406 16.6416 23.1406C15.982 23.1406 15.4473 23.6624 15.4473 24.306C15.4473 24.9496 15.982 25.4714 16.6416 25.4714Z" fill="#FB8B23"/>
<path id="Ellipse_3508_00000042710304284860754740000006972031183264453511_" fill-rule="evenodd" clip-rule="evenodd" d="M84.4489 144C85.7676 144 86.8367 142.957 86.8367 141.67C86.8367 140.383 85.7676 139.34 84.4489 139.34C83.1301 139.34 82.061 140.383 82.061 141.67C82.061 142.957 83.1301 144 84.4489 144Z" fill="#51087E"/>
<path id="Ellipse_3509_00000145048093649155460610000018341476677590451104_" fill-rule="evenodd" clip-rule="evenodd" d="M60.4946 138.803C61.1543 138.803 61.689 138.282 61.689 137.638C61.689 136.994 61.1543 136.473 60.4946 136.473C59.835 136.473 59.3003 136.994 59.3003 137.638C59.3003 138.282 59.835 138.803 60.4946 138.803Z" fill="#51087E"/>
<path id="Ellipse_3510_00000136399731920895120920000002063083604679245477_" fill-rule="evenodd" clip-rule="evenodd" d="M16.6416 117.69C17.3012 117.69 17.836 117.168 17.836 116.525C17.836 115.881 17.3012 115.359 16.6416 115.359C15.982 115.359 15.4473 115.881 15.4473 116.525C15.4473 117.168 15.982 117.69 16.6416 117.69Z" fill="#FB8B23"/>
<path id="Path 63118" fill-rule="evenodd" clip-rule="evenodd" d="M108.837 47.3912H129.16C130.072 47.3912 130.812 46.6515 130.812 45.7389V42.168C130.812 41.2554 130.072 40.5156 129.16 40.5156H108.837C107.924 40.5156 107.184 41.2554 107.184 42.168V45.7389C107.184 46.6515 107.924 47.3912 108.837 47.3912Z" fill="#D3D3D3"/>
<path id="Path 63119" fill-rule="evenodd" clip-rule="evenodd" d="M66.6665 47.3912H99.3813C100.294 47.3912 101.034 46.6515 101.034 45.7389V42.168C101.034 41.2554 100.294 40.5156 99.3813 40.5156H66.6665C65.7539 40.5156 65.0142 41.2554 65.0142 42.168V45.7389C65.014 46.6515 65.7538 47.3912 66.6665 47.3912Z" fill="#D3D3D3"/>
<path id="Path 63120" fill-rule="evenodd" clip-rule="evenodd" d="M41.8096 47.3912H57.1814C58.094 47.3912 58.8338 46.6515 58.8338 45.7389V42.168C58.8338 41.2554 58.094 40.5156 57.1814 40.5156H41.8096C40.897 40.5156 40.1572 41.2554 40.1572 42.168V45.7389C40.1571 46.6515 40.897 47.3912 41.8096 47.3912Z" fill="#D3D3D3"/>
<path id="Path 63121" fill-rule="evenodd" clip-rule="evenodd" d="M108.837 86.3404H129.16C130.072 86.3404 130.812 85.6007 130.812 84.6881V81.1172C130.812 80.2046 130.072 79.4648 129.16 79.4648H108.837C107.924 79.4648 107.184 80.2046 107.184 81.1172V84.6881C107.184 85.6007 107.924 86.3404 108.837 86.3404Z" fill="#F2F1EF"/>
<path id="Line_3298_00000125566858130347310560000008021622846853280677_" fill-rule="evenodd" clip-rule="evenodd" d="M157.212 113.178H153.114V112.352H157.212V113.178Z" fill="#51087E"/>
<path id="Line_3299_00000135672544316750600720000011582985851732823722_" fill-rule="evenodd" clip-rule="evenodd" d="M155.577 114.764H154.751V110.766H155.577V114.764Z" fill="#51087E"/>
</g>
<g id="Group 77265">
<path id="Ellipse 3860" fill-rule="evenodd" clip-rule="evenodd" d="M131.642 134.684C143.087 134.684 152.365 125.406 152.365 113.961C152.365 102.516 143.087 93.2383 131.642 93.2383C120.197 93.2383 110.919 102.516 110.919 113.961C110.919 125.406 120.197 134.684 131.642 134.684Z" fill="white"/>
<path id="Ellipse 3860 - Outline" fill-rule="evenodd" clip-rule="evenodd" d="M131.642 91.2227C134.711 91.2227 137.688 91.8241 140.493 93.0102C143.2 94.1554 145.631 95.7944 147.719 97.8818C149.806 99.9692 151.445 102.4 152.59 105.108C153.777 107.912 154.378 110.89 154.378 113.958C154.378 117.027 153.777 120.005 152.59 122.809C151.445 125.516 149.806 127.948 147.719 130.035C145.631 132.122 143.2 133.761 140.493 134.907C137.688 136.093 134.711 136.694 131.642 136.694C128.574 136.694 125.596 136.093 122.792 134.907C120.084 133.761 117.653 132.122 115.566 130.035C113.478 127.948 111.839 125.516 110.694 122.809C109.508 120.005 108.906 117.027 108.906 113.958C108.906 110.89 109.508 107.912 110.694 105.108C111.839 102.4 113.478 99.9692 115.566 97.8818C117.653 95.7944 120.084 94.1554 122.792 93.0102C125.596 91.8241 128.574 91.2227 131.642 91.2227ZM131.642 132.667C136.64 132.667 141.338 130.72 144.872 127.186C148.406 123.653 150.352 118.954 150.352 113.956C150.352 108.959 148.406 104.26 144.872 100.726C141.338 97.1923 136.64 95.2461 131.642 95.2461C126.645 95.2461 121.946 97.1923 118.412 100.726C114.878 104.26 112.932 108.959 112.932 113.956C112.932 118.954 114.878 123.653 118.412 127.186C121.946 130.72 126.645 132.667 131.642 132.667Z" fill="#D3D3D3"/>
<path id="Line 4024" fill-rule="evenodd" clip-rule="evenodd" d="M124.142 124.308L121.295 121.462L139.144 103.613L141.99 106.46L124.142 124.308Z" fill="#D3D3D3"/>
<path id="Line 4025" fill-rule="evenodd" clip-rule="evenodd" d="M139.144 124.308L121.295 106.46L124.142 103.613L141.99 121.462L139.144 124.308Z" fill="#D3D3D3"/>
</g>
</g>
<defs>
<linearGradient id="paint0_linear_1539_3928" x1="86.1825" y1="2.83984" x2="86.1825" y2="138.269" gradientUnits="userSpaceOnUse">
<stop stop-color="#E8E2EC"/>
<stop offset="1" stop-color="#F6EDE4"/>
</linearGradient>
<linearGradient id="paint1_linear_1539_3928" x1="11.4602" y1="18.8302" x2="167.963" y2="34.1274" gradientUnits="userSpaceOnUse">
<stop stop-color="#681A72"/>
<stop offset="1" stop-color="#A44853"/>
</linearGradient>
</defs>
</svg>
