<svg width="38" height="38" viewBox="0 0 38 38" fill="none" xmlns="http://www.w3.org/2000/svg">
<g filter="url(#filter0_d_1_97)">
<circle cx="19" cy="19" r="15" fill="white"/>
</g>
<path d="M18.3965 19.9961C18.3965 20.8027 18.3327 21.5251 18.2051 22.1631C18.082 22.7965 17.8861 23.3343 17.6172 23.7764C17.3483 24.2184 16.9974 24.5557 16.5645 24.7881C16.1315 25.0205 15.6074 25.1367 14.9922 25.1367C14.222 25.1367 13.5863 24.9339 13.085 24.5283C12.5837 24.1182 12.2122 23.5303 11.9707 22.7646C11.7292 21.9945 11.6084 21.0716 11.6084 19.9961C11.6084 18.9206 11.7178 18 11.9365 17.2344C12.1598 16.4642 12.5199 15.874 13.0166 15.4639C13.5133 15.0537 14.1719 14.8486 14.9922 14.8486C15.7669 14.8486 16.4049 15.0537 16.9062 15.4639C17.4121 15.8695 17.7858 16.4574 18.0273 17.2275C18.2734 17.9932 18.3965 18.916 18.3965 19.9961ZM13.2285 19.9961C13.2285 20.8392 13.2832 21.5433 13.3926 22.1084C13.5065 22.6735 13.6934 23.0973 13.9531 23.3799C14.2129 23.6579 14.5592 23.7969 14.9922 23.7969C15.4251 23.7969 15.7715 23.6579 16.0312 23.3799C16.291 23.1019 16.4779 22.6803 16.5918 22.1152C16.7103 21.5501 16.7695 20.8438 16.7695 19.9961C16.7695 19.1576 16.7126 18.4557 16.5986 17.8906C16.4847 17.3255 16.2979 16.9017 16.0381 16.6191C15.7783 16.332 15.4297 16.1885 14.9922 16.1885C14.5547 16.1885 14.2061 16.332 13.9463 16.6191C13.6911 16.9017 13.5065 17.3255 13.3926 17.8906C13.2832 18.4557 13.2285 19.1576 13.2285 19.9961ZM23.1338 15.0059C23.9951 15.0059 24.7061 15.1107 25.2666 15.3203C25.8317 15.5299 26.251 15.849 26.5244 16.2773C26.8024 16.7057 26.9414 17.2503 26.9414 17.9111C26.9414 18.4033 26.8503 18.8226 26.668 19.1689C26.4857 19.5153 26.2464 19.8024 25.9502 20.0303C25.654 20.2581 25.3372 20.4404 25 20.5771L27.8369 25H25.9844L23.5713 20.9941H21.9648V25H20.3242V15.0059H23.1338ZM23.0244 16.373H21.9648V19.6406H23.0996C23.8607 19.6406 24.4121 19.4993 24.7539 19.2168C25.1003 18.9342 25.2734 18.5173 25.2734 17.9658C25.2734 17.387 25.0889 16.9769 24.7197 16.7354C24.3551 16.4938 23.79 16.373 23.0244 16.373Z" fill="#252525"/>
<defs>
<filter id="filter0_d_1_97" x="0" y="0" width="38" height="38" filterUnits="userSpaceOnUse" color-interpolation-filters="sRGB">
<feFlood flood-opacity="0" result="BackgroundImageFix"/>
<feColorMatrix in="SourceAlpha" type="matrix" values="0 0 0 0 0 0 0 0 0 0 0 0 0 0 0 0 0 0 127 0" result="hardAlpha"/>
<feOffset/>
<feGaussianBlur stdDeviation="2"/>
<feComposite in2="hardAlpha" operator="out"/>
<feColorMatrix type="matrix" values="0 0 0 0 0 0 0 0 0 0 0 0 0 0 0 0 0 0 0.25 0"/>
<feBlend mode="normal" in2="BackgroundImageFix" result="effect1_dropShadow_1_97"/>
<feBlend mode="normal" in="SourceGraphic" in2="effect1_dropShadow_1_97" result="shape"/>
</filter>
</defs>
</svg>
