<?xml version="1.0" encoding="utf-8"?>
<!-- Generator: Adobe Illustrator 26.2.1, SVG Export Plug-In . SVG Version: 6.00 Build 0)  -->
<svg version="1.1" id="Layer_1" xmlns="http://www.w3.org/2000/svg" xmlns:xlink="http://www.w3.org/1999/xlink" x="0px" y="0px"
	 viewBox="0 0 16 16" style="enable-background:new 0 0 16 16;" xml:space="preserve">
<style type="text/css">
	.st0{fill:none;}
	.st1{fill:#606060;}
</style>
<path class="st0" d="M0,16h16V0H0V16z"/>
<path class="st1" d="M7,8.4c-0.1,0-0.2-0.1-0.2-0.2V7.7c0-0.1,0.1-0.2,0.2-0.2h4.8c0.1,0,0.2,0.1,0.2,0.2v0.5c0,0.1-0.1,0.2-0.2,0.2
	H7z M7,11.4h2.7c0.1,0,0.2-0.1,0.2-0.2v-0.5c0-0.2-0.2-0.2-0.2-0.2H7c-0.2,0-0.2,0.2-0.2,0.2v0.5C6.8,11.3,6.9,11.4,7,11.4z
	 M14.9,4.8c0-0.2-0.2-0.2-0.2-0.2H7.2C7,4.6,6.9,4.7,6.9,4.8v0.6c0,0.1,0.1,0.2,0.2,0.2h7.5c0.1,0,0.2-0.1,0.2-0.2V4.8z M4.3,3.6
	L3.7,3C3.6,3,3.6,3,3.5,3S3.4,3,3.3,3L2.7,3.6L1,5.3C1,5.4,1,5.6,1,5.7l0.4,0.4c0,0,0.1,0.1,0.2,0.1s0.1,0,0.2-0.1l1.1-1.3L3,4.7
	v0.1v7.8c0,0.2,0.2,0.2,0.2,0.2h0.5c0.2,0,0.2-0.2,0.2-0.2V4.9V4.8L4,4.9l1.1,1.2c0,0,0.1,0.1,0.2,0.1s0.1,0,0.2-0.1l0.4-0.4
	c0.1-0.1,0.1-0.2,0.1-0.3L4.3,3.6z"/>
</svg>
