<?xml version="1.0" encoding="utf-8"?>
<!-- Generator: Adobe Illustrator 26.0.3, SVG Export Plug-In . SVG Version: 6.00 Build 0)  -->
<svg version="1.1" xmlns="http://www.w3.org/2000/svg" xmlns:xlink="http://www.w3.org/1999/xlink" x="0px" y="0px"
	 viewBox="0 0 16 16" style="enable-background:new 0 0 16 16;" xml:space="preserve">
<style type="text/css">
	.st0{fill:#606060;}
	.st1{fill:none;stroke:#606060;stroke-linecap:square;stroke-miterlimit:10;}
	.st2{fill:none;}
</style>
<g id="Layer_1">
	<g>
		<g>
			<path class="st0" d="M14.688,5.6132H7.161c-0.1437,0-0.2602-0.1165-0.2602-0.2602V4.8326c0-0.1437,0.1165-0.2602,0.2602-0.2602
				h7.5271c0.1437,0,0.2602,0.1165,0.2602,0.2602V5.353C14.9483,5.4967,14.8318,5.6132,14.688,5.6132z"/>
		</g>
		<g>
			<path class="st0" d="M11.7728,8.5183H6.977c-0.1437,0-0.2602-0.1165-0.2602-0.2602V7.7377c0-0.1437,0.1165-0.2602,0.2602-0.2602
				h4.7958c0.1437,0,0.2602,0.1165,0.2602,0.2602v0.5204C12.033,8.4018,11.9165,8.5183,11.7728,8.5183z"/>
		</g>
		<g>
			<path class="st0" d="M9.6351,11.4234H6.977c-0.1437,0-0.2602-0.1165-0.2602-0.2602v-0.5204c0-0.1437,0.1165-0.2602,0.2602-0.2602
				h2.6581c0.1437,0,0.2602,0.1165,0.2602,0.2602v0.5204C9.8953,11.3069,9.7788,11.4234,9.6351,11.4234z"/>
		</g>
	</g>
	<path class="st0" d="M5.898,10.3145L5.5301,9.9465c-0.1016-0.1016-0.2664-0.1016-0.368,0l-1.1801,1.1803V3.352
		c0-0.1437-0.1165-0.2602-0.2602-0.2602H3.2013c-0.1437,0-0.2602,0.1165-0.2602,0.2602v7.7751L1.7604,9.9465
		c-0.1016-0.1016-0.2664-0.1016-0.368,0l-0.3679,0.3679c-0.1016,0.1016-0.1016,0.2664,0,0.368l1.7011,1.7011l0.5519,0.5519
		c0.1016,0.1016,0.2664,0.1016,0.368,0l0.5519-0.5519l-0.0001-0.0001l1.7007-1.701C5.9996,10.5808,5.9996,10.4161,5.898,10.3145z"/>
</g>
<g id="Outline">
	<rect class="st2" width="16" height="16"/>
</g>
</svg>
