<svg xmlns="http://www.w3.org/2000/svg" width="16" height="16" viewBox="0 0 16 16"><rect width="16" height="16" fill="none"/><path d="M14.4,1.17a2.657,2.657,0,0,0-.33-.26A2.354,2.354,0,0,0,13.06.58S12.88.56,12.7.56a9.553,9.553,0,0,0-3.18.82A10.358,10.358,0,0,0,7.14,2.8,9.8,9.8,0,0,0,5.23,4.87a4.572,4.572,0,0,0-1.63.31,4.535,4.535,0,0,0-1.77,1.2A4.382,4.382,0,0,0,.96,7.75l2.69,1.5h0c.04.11.07.21.11.31L1.54,11.78a.471.471,0,0,0-.14.33.494.494,0,0,0,.14.34c.1.09.18.09.38.09s.29,0,.39-.09L4.25,10.5c.18.25.35.49.53.74L1.34,14.68a.6.6,0,0,0-.14.34.532.532,0,0,0,.25.46.618.618,0,0,0,.58-.07.922.922,0,0,1,.08-.05l3.51-3.51h.02a2.976,2.976,0,0,0,.78.2h.03l1.58,2.89.48-.39A8.477,8.477,0,0,0,9.8,13.16a5.968,5.968,0,0,0,1-2.49v-.31h.01a9.608,9.608,0,0,0,3.39-4c.75-1.75,1.4-4.07.21-5.17ZM13.24,5.86a10.293,10.293,0,0,1-4.81,4.62c-.04.03-.1.07-.17.13a1.13,1.13,0,0,0-.11.11.6.6,0,0,0,.33.69h.04c.25.04.45-.11.78-.29a3.157,3.157,0,0,1,.45-.22,7.457,7.457,0,0,1-.49,1.25c-.07.14-.15.28-.22.41H9.03a5.547,5.547,0,0,1-.6.8l-.02.03-.02-.03L7.2,11.07H6.91a2.252,2.252,0,0,1-.7-.1,1.668,1.668,0,0,1-.6-.3,1.488,1.488,0,0,1-.22-.21,2,2,0,0,1-.8-1.52V8.66L2.17,7.35l.03-.02A3.941,3.941,0,0,1,4.18,5.96a3.611,3.611,0,0,1,1.23-.14H5.7A10.072,10.072,0,0,1,6.89,4.33,8.462,8.462,0,0,1,9.9,2.22c2.13-.85,3.35-.98,3.83-.39.61.5.41,2.12-.49,4.02Z" fill="#fff"/><path d="M10.81,3.08A1.713,1.713,0,0,0,9.14,4.75a1.675,1.675,0,1,0,3.35,0A1.708,1.708,0,0,0,10.81,3.08Zm0,2.4a.707.707,0,0,1-.72-.73.7.7,0,0,1,.72-.72.725.725,0,1,1,0,1.45Z" fill="#fff"/></svg>