<svg xmlns="http://www.w3.org/2000/svg" width="110" height="110" viewBox="0 0 110 110">
  <g id="Layer_1_00000054241668782499471000000014549648170772981162_" transform="translate(-5)">
    <path id="Path_55482_00000163753784941751809450000007362948912651709570_" d="M113.114,48.793C114.245,71.781,90.392,84.2,69.584,91.14c-20.115,6.707-44.268,9.09-56.612-8.956C.707,64.255,9.287,39.8,23.07,23.141c10.466-12.648,27.557-9.411,42.923-5.033,19.7,5.613,46.063,9.187,47.121,30.685" fill="#f1f0ee"/>
    <ellipse id="Ellipse_3544" data-name="Ellipse 3544" cx="1.806" cy="1.78" rx="1.806" ry="1.78" transform="translate(105.789 0)" fill="#d2d2d2"/>
    <ellipse id="Ellipse_3545" data-name="Ellipse 3545" cx="0.903" cy="0.89" rx="0.903" ry="0.89" transform="translate(108.051 11.36)" fill="#d2d2d2"/>
    <g id="Group_62997" data-name="Group 62997">
      <g id="Group_62995" data-name="Group 62995">
        <rect id="Rectangle_18486" data-name="Rectangle 18486" width="2.132" height="0.627" transform="translate(5 4.958)" fill="#c1c0bf"/>
      </g>
      <g id="Group_62996" data-name="Group 62996">
        <rect id="Rectangle_18487" data-name="Rectangle 18487" width="0.629" height="2.102" transform="translate(5.752 4.22)" fill="#c1c0bf"/>
      </g>
    </g>
    <ellipse id="Ellipse_3546" data-name="Ellipse 3546" cx="0.903" cy="0.89" rx="0.903" ry="0.89" transform="translate(16.965 8.243)" fill="#d2d2d2"/>
    <ellipse id="Ellipse_3547" data-name="Ellipse 3547" cx="0.903" cy="0.89" rx="0.903" ry="0.89" transform="translate(5.939 17.676)" fill="#d2d2d2"/>
    <ellipse id="Ellipse_3548" data-name="Ellipse 3548" cx="1.806" cy="1.78" rx="1.806" ry="1.78" transform="translate(56.316 106.44)" fill="#d2d2d2"/>
    <ellipse id="Ellipse_3549" data-name="Ellipse 3549" cx="0.903" cy="0.89" rx="0.903" ry="0.89" transform="translate(39.104 104.248)" fill="#d2d2d2"/>
    <ellipse id="Ellipse_3550" data-name="Ellipse 3550" cx="0.903" cy="0.89" rx="0.903" ry="0.89" transform="translate(5.939 88.121)" fill="#d2d2d2"/>
    <g id="Group_63401_00000016781823452219193840000014487724862921915036_">
      <g id="Line_3298_00000154394900589655484820000012824155417673984923_">
        <rect id="Rectangle_18488" data-name="Rectangle 18488" width="3.099" height="0.627" transform="translate(111.901 86.139)" fill="#b4b3b2"/>
      </g>
      <g id="Line_3299_00000170977333911788415600000014160368406739561886_">
        <rect id="Rectangle_18489" data-name="Rectangle 18489" width="0.629" height="3.054" transform="translate(113.136 84.925)" fill="#b4b3b2"/>
      </g>
    </g>
    <g id="XMLID_00000114036174380981489930000016483985632334632076_">
      <g id="Group_62998" data-name="Group 62998">
        <path id="Path_55042" data-name="Path 55042" d="M84.731,91.18v2.38a1.677,1.677,0,0,1-1.68,1.68H30.941a1.684,1.684,0,0,1-1.68-1.68V91.18a1.684,1.684,0,0,1,1.68-1.68h1.68c-.42-10.58,5.83-21.29,15.96-26.79,3.36-1.82,3.25-2.78,2.88-3.53a6.841,6.841,0,0,0-2.52-2.03c-.24-.14-.48-.28-.69-.42-4.19-2.6-8.18-5.33-11.05-10.05-3.31-5.44-3.88-11.2-3.96-16.17h-2.3a1.692,1.692,0,0,1-1.68-1.69V26.44a1.684,1.684,0,0,1,1.68-1.68h52.11a1.677,1.677,0,0,1,1.68,1.68v2.38a1.686,1.686,0,0,1-1.68,1.69h-1.57c-.07,4.97-.64,10.73-3.95,16.17-2.87,4.72-6.87,7.45-11.05,10.05q-.33.21-.69.42a6.678,6.678,0,0,0-2.52,2.03c-.37.75-.49,1.71,2.87,3.53,10.13,5.5,16.38,16.21,15.96,26.79h.95A1.677,1.677,0,0,1,84.731,91.18Zm-6-1.68c.4-9.27-5.28-19-14.19-23.83-4.31-2.34-5.75-5.03-4.28-7.98a9,9,0,0,1,3.81-3.43c.22-.13.43-.26.63-.38,3.97-2.47,7.47-4.85,9.96-8.95,2.88-4.73,3.39-9.92,3.46-14.42H36.6c.08,4.5.59,9.69,3.47,14.42,2.49,4.1,5.98,6.48,9.95,8.95.2.12.41.25.63.38a9.077,9.077,0,0,1,3.82,3.43c1.46,2.95.02,5.64-4.28,7.98-8.91,4.83-14.59,14.56-14.2,23.83Z" fill="#a6a5a5"/>
        <path id="Path_55043" data-name="Path 55043" d="M64.541,65.67c8.91,4.83,14.59,14.56,14.19,23.83H35.991c-.39-9.27,5.29-19,14.2-23.83,4.3-2.34,5.74-5.03,4.28-7.98a9.077,9.077,0,0,0-3.82-3.43c-.22-.13-.43-.26-.63-.38-3.97-2.47-7.46-4.85-9.95-8.95-2.88-4.73-3.39-9.92-3.47-14.42h41.52c-.07,4.5-.58,9.69-3.46,14.42-2.49,4.1-5.99,6.48-9.96,8.95-.2.12-.41.25-.63.38a9,9,0,0,0-3.81,3.43C58.791,60.64,60.231,63.33,64.541,65.67Z" fill="#fff"/>
      </g>
    </g>
    <path id="Path_55044" data-name="Path 55044" d="M50.6,50.771a11.661,11.661,0,0,1,6.13,4.021v18A8.678,8.678,0,0,0,50.7,75.01a6.994,6.994,0,0,0-.891,1.073,10,10,0,0,0-7.285,2.854,10.179,10.179,0,0,0-2.669,8.352H75.19A4.954,4.954,0,0,0,75,85.515c-.918-3.086-4.651-4.111-5.087-4.224a21.54,21.54,0,0,0-1.911-2.571,10.658,10.658,0,0,0-.794-.867,7.2,7.2,0,0,0-5.139-1.769,4.754,4.754,0,0,1-1.582.066,3.332,3.332,0,0,1-2.043-1.582q-.132-9.821-.264-19.643a12.821,12.821,0,0,1,3.032-2.571c.408-.247.841-.457.841-.457a12.391,12.391,0,0,1,1.439-.6,8.174,8.174,0,0,0-5.782-.751,20.949,20.949,0,0,1-2.626.923A7.485,7.485,0,0,1,50.6,50.771Z" fill="#a6a5a5"/>
    <g id="Group_62999" data-name="Group 62999">
      <path id="Path_55045" data-name="Path 55045" d="M73.411,37.49a2.622,2.622,0,0,1-2.31-3.863L84.554,8.9a2.622,2.622,0,0,1,4.6-.008L102.6,33.623a2.614,2.614,0,0,1-2.3,3.867Z" fill="#d53d3d"/>
      <path id="Path_55046" data-name="Path 55046" d="M86.853,9.035a1.118,1.118,0,0,1,.989.585l13.44,24.72a1.114,1.114,0,0,1-.98,1.65H73.411a1.122,1.122,0,0,1-.99-1.65L85.871,9.62a1.1,1.1,0,0,1,.981-.585m0-3A4.108,4.108,0,0,0,83.23,8.2L69.786,32.906a4.122,4.122,0,0,0,3.625,6.084H100.3a4.136,4.136,0,0,0,3.549-2.028,4.07,4.07,0,0,0,.055-4.076L90.477,8.187a4.136,4.136,0,0,0-3.624-2.152Z" fill="#fff"/>
    </g>
    <path id="Path_55047" data-name="Path 55047" d="M87.6,27.518h-1.5a1,1,0,0,1-1-1V16.984a1,1,0,0,1,1-1h1.5a1,1,0,0,1,1,1v9.534A1,1,0,0,1,87.6,27.518Z" fill="#fff"/>
    <circle id="Ellipse_3551" data-name="Ellipse 3551" cx="1.937" cy="1.937" r="1.937" transform="translate(84.917 29.631)" fill="#fff"/>
  </g>
</svg>
