<svg id="No_Audit_Log-Search_Results_Found_-_Rows" data-name="No Audit Log-Search Results Found - Rows" xmlns="http://www.w3.org/2000/svg" xmlns:xlink="http://www.w3.org/1999/xlink" width="190" height="180" viewBox="0 0 190 180">
  <defs>
    <clipPath id="clip-path">
      <ellipse id="Ellipse_3392" data-name="Ellipse 3392" cx="32.463" cy="31.839" rx="32.463" ry="31.839" transform="translate(99.204 91.082)"/>
    </clipPath>
  </defs>
  <path id="Path_55482_00000106119530007528201360000013874132496900398208_" d="M177.451,77.639c1.867,37.576-37.515,57.88-71.868,69.22C72.373,157.822,32.5,161.718,12.114,132.22-8.135,102.914,6.03,62.938,28.786,35.71c17.281-20.674,45.5-15.382,70.869-8.228,32.527,9.171,76.052,15.016,77.8,50.157" fill="#efedec"/>
  <path id="Path_54374" data-name="Path 54374" d="M145.874,23.583H28.81a10.319,10.319,0,0,0-10.443,10.19v96.345a10.319,10.319,0,0,0,10.443,10.19H145.874a10.319,10.319,0,0,0,10.443-10.19V33.773A10.319,10.319,0,0,0,145.874,23.583ZM55.723,121.955a2.063,2.063,0,0,1-2.063,2.063H34.466a2.063,2.063,0,0,1-2.063-2.063V117.5a2.063,2.063,0,0,1,2.063-2.063H53.66a2.063,2.063,0,0,1,2.063,2.063v4.459Zm0-16.212a2.063,2.063,0,0,1-2.063,2.063H34.466a2.063,2.063,0,0,1-2.063-2.063v-4.459a2.063,2.063,0,0,1,2.063-2.063H53.66a2.063,2.063,0,0,1,2.063,2.063v4.459Zm0-16.212A2.063,2.063,0,0,1,53.66,91.6H34.466A2.063,2.063,0,0,1,32.4,89.532V85.073a2.063,2.063,0,0,1,2.063-2.063H53.66a2.063,2.063,0,0,1,2.063,2.063v4.459Zm0-16.212a2.063,2.063,0,0,1-2.063,2.063H34.466A2.063,2.063,0,0,1,32.4,73.32V68.861A2.063,2.063,0,0,1,34.466,66.8H53.66a2.063,2.063,0,0,1,2.063,2.063V73.32Zm52.692,48.635a2.063,2.063,0,0,1-2.063,2.063H65.5a2.063,2.063,0,0,1-2.063-2.063V117.5a2.063,2.063,0,0,1,2.063-2.063h40.849a2.063,2.063,0,0,1,2.063,2.063Zm0-16.212a2.063,2.063,0,0,1-2.063,2.063H65.5a2.063,2.063,0,0,1-2.063-2.063v-4.459A2.063,2.063,0,0,1,65.5,99.222h40.849a2.063,2.063,0,0,1,2.063,2.063Zm0-16.212a2.063,2.063,0,0,1-2.063,2.063H65.5a2.063,2.063,0,0,1-2.063-2.063V85.073A2.063,2.063,0,0,1,65.5,83.01h40.849a2.063,2.063,0,0,1,2.063,2.063Zm0-16.212a2.063,2.063,0,0,1-2.063,2.063H65.5A2.063,2.063,0,0,1,63.44,73.32V68.861A2.063,2.063,0,0,1,65.5,66.8h40.849a2.063,2.063,0,0,1,2.063,2.063ZM145.6,89.532a2.063,2.063,0,0,1-2.063,2.063H118.159a2.063,2.063,0,0,1-2.063-2.063V85.073a2.063,2.063,0,0,1,2.063-2.063h25.376a2.063,2.063,0,0,1,2.063,2.063Zm0-16.212a2.063,2.063,0,0,1-2.063,2.063H118.159A2.063,2.063,0,0,1,116.1,73.32V68.861a2.063,2.063,0,0,1,2.063-2.063h25.376a2.063,2.063,0,0,1,2.063,2.063Z" fill="#fff"/>
  <path id="Rectangle_16762_00000014633589221064543720000003469444456538622854_" d="M28.819,23.589H145.883a10.319,10.319,0,0,1,10.443,10.19V34.8H18.375V33.779A10.319,10.319,0,0,1,28.819,23.589Z" fill="#c9c9c9"/>
  <ellipse id="Ellipse_3499_00000128481516555906288930000010433134292570741135_" cx="2.797" cy="2.729" rx="2.797" ry="2.729" transform="translate(145.811 26.466)" fill="#fff"/>
  <ellipse id="Ellipse_3500_00000059301956746862318440000003501532081877953716_" cx="2.797" cy="2.729" rx="2.797" ry="2.729" transform="translate(137.428 26.466)" fill="#fff"/>
  <ellipse id="Ellipse_3504_00000106131722672163209010000017699081634996102571_" cx="2.982" cy="2.909" rx="2.982" ry="2.909" transform="translate(166.404)" fill="#c9c9c9"/>
  <ellipse id="Ellipse_3505_00000136397206280630674690000013072536902894612914_" cx="1.491" cy="1.455" rx="1.491" ry="1.455" transform="translate(170.139 18.569)" fill="#c9c9c9"/>
  <line id="Line_3296_00000060723762917630188490000017651289086863854988_" x1="3.52" transform="translate(0 8.616)" fill="none" stroke="#b5b4b3" stroke-miterlimit="10" stroke-width="1.032"/>
  <line id="Line_3297_00000034798447636767636400000014949495174239943090_" y2="3.435" transform="translate(1.762 6.899)" fill="none" stroke="#b5b4b3" stroke-miterlimit="10" stroke-width="1.032"/>
  <ellipse id="Ellipse_3506_00000145763841318175711960000007896163527020287379_" cx="1.491" cy="1.455" rx="1.491" ry="1.455" transform="translate(19.754 13.475)" fill="#c9c9c9"/>
  <ellipse id="Ellipse_3507_00000076568746712699547340000017275007664408997806_" cx="1.491" cy="1.455" rx="1.491" ry="1.455" transform="translate(1.549 28.893)" fill="#c9c9c9"/>
  <ellipse id="Ellipse_3508_00000042710304284860754740000006972031183264453511_" cx="2.982" cy="2.909" rx="2.982" ry="2.909" transform="translate(84.725 173.985)" fill="#c9c9c9"/>
  <ellipse id="Ellipse_3509_00000145048093649155460610000018341476677590451104_" cx="1.491" cy="1.455" rx="1.491" ry="1.455" transform="translate(56.307 170.403)" fill="#c9c9c9"/>
  <ellipse id="Ellipse_3510_00000136399731920895120920000002063083604679245477_" cx="1.491" cy="1.455" rx="1.491" ry="1.455" transform="translate(1.549 144.042)" fill="#c9c9c9"/>
  <path id="Path_54375" data-name="Path 54375" d="M118.159,59.172h25.376a2.063,2.063,0,0,0,2.063-2.063V52.65a2.063,2.063,0,0,0-2.063-2.063H118.159A2.063,2.063,0,0,0,116.1,52.65v4.459A2.063,2.063,0,0,0,118.159,59.172Z" fill="#d3d3d3"/>
  <path id="Path_54376" data-name="Path 54376" d="M65.5,59.172h40.849a2.063,2.063,0,0,0,2.063-2.063V52.65a2.063,2.063,0,0,0-2.063-2.063H65.5A2.063,2.063,0,0,0,63.44,52.65v4.459A2.063,2.063,0,0,0,65.5,59.172Z" fill="#d3d3d3"/>
  <path id="Path_54377" data-name="Path 54377" d="M34.466,59.172H53.66a2.063,2.063,0,0,0,2.063-2.063V52.65a2.063,2.063,0,0,0-2.063-2.063H34.466A2.063,2.063,0,0,0,32.4,52.65v4.459A2.063,2.063,0,0,0,34.466,59.172Z" fill="#d3d3d3"/>
  <path id="Path_54378" data-name="Path 54378" d="M118.159,107.807h25.376a2.063,2.063,0,0,0,2.063-2.063v-4.459a2.063,2.063,0,0,0-2.063-2.063H118.159a2.063,2.063,0,0,0-2.063,2.063v4.459A2.063,2.063,0,0,0,118.159,107.807Z" fill="#f2f1ef"/>
  <path id="Path_54379" data-name="Path 54379" d="M118.159,124.019h25.376a2.063,2.063,0,0,0,2.063-2.063V117.5a2.063,2.063,0,0,0-2.063-2.063H118.159A2.063,2.063,0,0,0,116.1,117.5v4.459A2.063,2.063,0,0,0,118.159,124.019Z" fill="#f2f1ef"/>
  <line id="Line_3298_00000125566858130347310560000008021622846853280677_" x1="5.116" transform="translate(173.445 140.799)" fill="none" stroke="#b5b4b3" stroke-miterlimit="10" stroke-width="1.032"/>
  <line id="Line_3299_00000135672544316750600720000011582985851732823722_" y2="4.992" transform="translate(176.004 138.303)" fill="none" stroke="#b5b4b3" stroke-miterlimit="10" stroke-width="1.032"/>
  <ellipse id="Ellipse_3391" data-name="Ellipse 3391" cx="29.272" cy="28.562" rx="29.272" ry="28.562" transform="translate(103.324 95.447)" fill="#fff"/>
  <path id="Path_55442_00000074427658089713502180000017250095513995405481_" d="M155.147,153.662l25.394,24.781a5.658,5.658,0,0,0,7.863-.064,5.332,5.332,0,0,0,0-7.608L163.01,145.993Z" fill="#b5b4b3"/>
  <path id="Path_54380" data-name="Path 54380" d="M188.4,170.771,163.01,145.993l-1.973,1.924-3.662-3.572a31.1,31.1,0,0,0,7.586-20.335c0-17.455-14.52-31.656-32.366-31.656s-32.366,14.2-32.366,31.656,14.52,31.657,32.366,31.657a32.641,32.641,0,0,0,21.256-7.814l3.626,3.537-2.329,2.272,25.394,24.781a5.658,5.658,0,0,0,7.863-.064A5.332,5.332,0,0,0,188.4,170.771Zm-81.985-46.762c0-14.042,11.743-25.467,26.177-25.467s26.177,11.425,26.177,25.467-11.743,25.468-26.177,25.468S106.419,138.052,106.419,124.009Z" fill="#b5b4b3"/>
  <g id="Group_60579" data-name="Group 60579">
    <g id="Group_60578" data-name="Group 60578">
      <g id="Group_63405_00000130624707928001070310000012806794113455144615_" transform="translate(-0.928 -1.088)" clip-path="url(#clip-path)">
        <g id="Group_63404_00000075863569010653149990000009888071992155574925_" transform="translate(123.572 109.056)" opacity="0.2">
          <path id="Path_55445_00000018195202426959237140000004002774516009677222_" d="M13.756-24.958l7.7,2.941L-9.812,56.7l-7.7-2.941Z" fill="#fff"/>
          <path id="Path_55446_00000017477038250788913250000009350762302154801569_" d="M24.76-20.754l5.172,1.976L-1.334,59.943l-5.172-1.976Z" fill="#fff"/>
          <path id="Path_55447_00000137853048502440050310000008870906492258890400_" d="M32.74-17.7l5.172,1.976L6.646,62.992,1.474,61.016Z" fill="#fff"/>
        </g>
      </g>
    </g>
  </g>
  <path id="Path_54381" data-name="Path 54381" d="M147.009,113.484l-2.881-2.953-11.057,10.789-11.057-10.789-2.881,2.953L130.117,124.2l-10.983,10.717,2.881,2.953,11.056-10.788,11.057,10.789,2.881-2.953L136.025,124.2Z" fill="#b5b4b3"/>
</svg>
