<svg width="16" height="16" viewBox="0 0 16 16" fill="none" xmlns="http://www.w3.org/2000/svg">
<g clip-path="url(#clip0_197_14368)">
<path d="M13.9199 9.30004V3.64004C13.9199 3.09004 13.4699 2.64004 12.9199 2.64004H11.4499V1.54004H10.4499V2.64004H5.54992V1.54004H4.54992V2.64004H2.91992C2.36992 2.64004 1.91992 3.09004 1.91992 3.64004V13.54C1.91992 14.09 2.36992 14.54 2.91992 14.54H9.89992C10.4099 14.83 10.9899 15 11.6199 15C13.4799 15 14.9999 13.52 14.9999 11.71C14.9999 10.76 14.5799 9.90004 13.9199 9.30004ZM2.91992 3.64004H12.9199V5.07004H2.91992V3.64004ZM8.22992 11.71C8.22992 12.3901 8.43992 13.02 8.79982 13.54H2.91992V6.07004H12.9199V8.67004C12.5199 8.51004 12.0799 8.42004 11.6199 8.42004C9.74992 8.42004 8.22992 9.89004 8.22992 11.71ZM12.9199 12.62L12.4099 13.21L10.9899 11.99V10.21H11.9899V11.53L12.92 12.32L13.07 12.45L12.9199 12.62Z" fill="#606060"/>
</g>
<defs>
<clipPath id="clip0_197_14368">
<rect width="16" height="16" fill="white"/>
</clipPath>
</defs>
</svg>
