<svg width="16" height="16" viewBox="0 0 16 16" fill="none" xmlns="http://www.w3.org/2000/svg">
<path fill-rule="evenodd" clip-rule="evenodd" d="M2 6.40012L2.6 7.20012L2.8 7.10012C3.2 6.80012 3.4 6.60012 3.6 6.50012C3.6 6.70012 3.6 6.80012 3.6 7.00012V11.4001H4.7V5.00012H3.8L2 6.40012Z" fill="#606060"/>
<path fill-rule="evenodd" clip-rule="evenodd" d="M6.4 11.8011C6.89706 11.8011 7.3 11.3982 7.3 10.9011C7.3 10.404 6.89706 10.0011 6.4 10.0011C5.90294 10.0011 5.5 10.404 5.5 10.9011C5.5 11.3982 5.90294 11.8011 6.4 11.8011Z" fill="white"/>
<path fill-rule="evenodd" clip-rule="evenodd" d="M6.39961 11.8011C5.99961 11.8011 5.59961 11.4011 5.59961 10.9011C5.59961 10.4011 5.99961 10.0011 6.39961 10.0011C6.79961 10.0011 7.29961 10.4011 7.29961 10.9011C7.29961 11.4011 6.89961 11.8011 6.39961 11.8011ZM6.39961 10.5011V11.5011V11.5011V10.5011Z" fill="#606060"/>
<path fill-rule="evenodd" clip-rule="evenodd" d="M8 6.4L8.6 7.2L8.8 7.1C9.2 6.8 9.4 6.6 9.6 6.5C9.6 6.7 9.6 6.8 9.6 7V11.4H10.7V5H9.8L8 6.4Z" fill="#606060"/>
<path fill-rule="evenodd" clip-rule="evenodd" d="M12 6.4L12.6 7.2L12.8 7.1C13.2 6.8 13.4 6.6 13.6 6.5C13.6 6.7 13.6 6.8 13.6 7V11.4H14.7V5H13.8L12 6.4Z" fill="#606060"/>
</svg>
