<svg width="16" height="16" viewBox="0 0 16 16" fill="none" xmlns="http://www.w3.org/2000/svg">
<path fill-rule="evenodd" clip-rule="evenodd" d="M2.9213 12.2145V4.76834C2.6687 4.80424 2.2064 4.81294 2 4.80744V3.71674C2.5867 3.66134 3.0505 3.37674 3.3102 3.06604H4.3673V12.2145H2.9213Z" fill="#606060"/>
<path fill-rule="evenodd" clip-rule="evenodd" d="M5.4043 12.2148V12.0432C5.4168 10.3169 6.098 9.2001 7.0257 7.8888C7.7807 6.8317 8.0447 6.4982 8.0447 5.4879C8.0447 4.571 7.942 4.2038 7.4151 4.2038C6.9501 4.2038 6.7687 4.5504 6.7687 5.2706V5.7453H5.4353V5.2304C5.4353 4.1809 5.7759 3 7.4804 3C9.0453 3 9.494 3.9691 9.494 5.3998C9.494 6.8501 9.0247 7.4639 8.2626 8.4873C7.6178 9.3553 7.0882 10.2451 7.0181 10.974H9.6694L9.4739 12.2147H5.4043V12.2148Z" fill="#606060"/>
<path fill-rule="evenodd" clip-rule="evenodd" d="M10.3355 5.4683V5.1706C10.3355 4.1418 10.6717 3 12.3383 3C13.8044 3 14.2873 3.9223 14.2873 5.1771V5.4856C14.2873 6.5253 13.9413 7.0315 13.3986 7.2532V7.2673C14.0602 7.502 14.4991 7.9865 14.4991 9.0903V9.8193C14.4991 11.2827 14.032 12.3386 12.3241 12.3386C10.789 12.3386 10.2285 11.5108 10.2285 10.1941V9.8953H11.5637V10.181C11.5637 10.6677 11.706 11.1598 12.3139 11.1598C12.9109 11.1598 13.0641 10.6894 13.0641 10.0202V9.1164C13.0641 8.2744 12.7811 7.9377 12.0201 7.9377H11.629V6.6992H12.0076C12.6757 6.6992 12.8903 6.4135 12.8903 5.6389V5.1565C12.8903 4.6242 12.8034 4.1907 12.2749 4.1907C11.7556 4.1907 11.6318 4.597 11.6318 5.0913V5.4683H10.3355Z" fill="#606060"/>
</svg>
