<svg width="16" height="16" viewBox="0 0 16 16" fill="none" xmlns="http://www.w3.org/2000/svg">
<path fill-rule="evenodd" clip-rule="evenodd" d="M13.9032 11.6825L12.1107 13.4825L11.5782 12.95L12.4557 12.0725H3.6132L4.4832 12.95L3.9507 13.4825L2.1582 11.6825L3.9207 9.92004L4.4532 10.4525L3.5832 11.3225H12.4857L11.6082 10.4525L12.1407 9.92004L13.9032 11.6825Z" fill="#606060"/>
<path fill-rule="evenodd" clip-rule="evenodd" d="M3.71225 9.33582V5.35032C3.54839 5.36812 3.38353 5.37514 3.21875 5.37132V4.78782C3.48874 4.76621 3.74008 4.64161 3.92075 4.43982H4.487V9.33582H3.71225Z" fill="#606060"/>
<path fill-rule="evenodd" clip-rule="evenodd" d="M5.04199 9.33588V9.24363C5.07284 8.42573 5.37886 7.64219 5.91049 7.01988C6.31474 6.45438 6.45574 6.27588 6.45574 5.73513C6.45574 5.24463 6.40099 5.04738 6.11899 5.04738C5.86999 5.04738 5.77249 5.23338 5.77249 5.61888V5.87313H5.05849V5.60013C5.05849 5.03838 5.24074 4.40613 6.15349 4.40613C6.99199 4.40613 7.23199 4.92438 7.23199 5.69088C7.23532 6.30571 6.99882 6.89761 6.57274 7.34088C6.24413 7.72402 6.01511 8.1823 5.90599 8.67513H7.32424L7.21924 9.33963L5.04199 9.33588Z" fill="#606060"/>
<path fill-rule="evenodd" clip-rule="evenodd" d="M7.68327 5.72531V5.56556C7.68327 5.01506 7.86327 4.40381 8.75652 4.40381C9.54177 4.40381 9.80052 4.89731 9.80052 5.56931V5.73506C9.80052 6.29081 9.61527 6.56006 9.32502 6.68081V6.68831C9.73151 6.82783 9.97956 7.23861 9.91377 7.66331V8.05256C9.91377 8.83631 9.66402 9.40256 8.74902 9.40256C7.92402 9.40256 7.62402 8.95931 7.62402 8.25431V8.09456H8.33952V8.24456C8.33952 8.50481 8.41452 8.76956 8.74077 8.76956C9.06702 8.76956 9.14277 8.51831 9.14277 8.15906V7.67756C9.14277 7.22756 8.99277 7.04681 8.58327 7.04681H8.37402V6.38381H8.57727C8.93502 6.38381 9.05052 6.23381 9.05052 5.81606V5.55806C9.05052 5.27306 9.00402 5.04131 8.72127 5.04131C8.43852 5.04131 8.37627 5.25881 8.37627 5.52356V5.72531H7.68327Z" fill="#606060"/>
<path fill-rule="evenodd" clip-rule="evenodd" d="M11.6949 9.33587V8.12237H10.3164V7.55012L11.3664 4.46387H12.4059V7.49087H12.7719L12.7142 8.12237H12.4059V9.33587H11.6979H11.6949ZM11.765 6.62533C11.765 6.13783 11.7875 5.64358 11.7966 5.15683H11.7883C11.5538 5.95633 11.3144 6.69433 11.0466 7.49083H11.7642V6.62533H11.765Z" fill="#606060"/>
</svg>
