<?xml version="1.0" encoding="UTF-8"?><svg id="Layer_6" xmlns="http://www.w3.org/2000/svg" viewBox="0 0 24 24"><rect width="24" height="24" style="fill:none;"/><g id="Layer_3"><g><path d="M19.65,6.11c-.13-1.71-4.02-2.5-7.65-2.5s-7.52,.78-7.65,2.5h-.01v11.7c0,1.78,3.97,2.59,7.66,2.59s7.66-.81,7.66-2.59V6.11h-.01Zm-7.65-1.3c4.27,0,6.38,1.01,6.46,1.38-.08,.38-2.19,1.39-6.46,1.39s-6.36-1-6.46-1.39c.1-.39,2.21-1.39,6.46-1.39Zm0,14.38c-4.27,0-6.38-1.01-6.46-1.39v-4.15c1.45,.76,4.02,1.11,6.46,1.11s5.01-.36,6.46-1.11v4.15c-.08,.38-2.19,1.39-6.46,1.39Zm0-5.62c-4.27,0-6.38-1.01-6.46-1.39V7.67c1.45,.76,4.02,1.11,6.46,1.11s5.01-.36,6.46-1.11v4.51c-.08,.38-2.19,1.39-6.46,1.39Z"/><path d="M7.93,9.59c-.66,0-1.2,.54-1.2,1.2s.54,1.2,1.2,1.2,1.2-.54,1.2-1.2-.54-1.2-1.2-1.2Zm-.6,1.2h.6s0,0,0,0h-.6Z"/><path d="M7.93,15.37c-.66,0-1.2,.54-1.2,1.2s.54,1.2,1.2,1.2,1.2-.54,1.2-1.2-.54-1.2-1.2-1.2Zm-.6,1.2h.6s0,0,0,0h-.6Z"/></g></g></svg>