<?xml version="1.0" encoding="utf-8"?>
<!-- Generator: Adobe Illustrator 27.3.1, SVG Export Plug-In . SVG Version: 6.00 Build 0)  -->
<svg version="1.1" id="Layer_1" xmlns="http://www.w3.org/2000/svg" xmlns:xlink="http://www.w3.org/1999/xlink" x="0px" y="0px"
	 viewBox="0 0 24 24" style="enable-background:new 0 0 24 24;" xml:space="preserve">
<g>
	<path style="fill:#0072C6;" d="M17.165001,5.325c-0.120001-1.6-3.809999-2.33-7.24-2.33s-7.12,0.73-7.24,2.33
		c-0.01,0.03-0.01,0.05-0.01,0.08v11.179999c0,1.66,3.76,2.41,7.25,2.41c1.309999,0,2.64-0.110001,3.809999-0.32
		c-0.04-0.24-0.06-0.49-0.06-0.74c0-0.09,0-0.18,0.01-0.27c-0.97,0.190001-2.22,0.33-3.76,0.33c-4.12,0-6.25-0.99-6.25-1.41v-4.45
		c1.35,0.75,3.86,1.11,6.25,1.11c0.49,0,0.99-0.01,1.48-0.04l-0.97-0.97c-0.17,0.01-0.34,0.01-0.51,0.01
		c-4.12,0-6.25-0.99-6.25-1.42v-4.11c1.35,0.75,3.86,1.11,6.25,1.11s4.900001-0.36,6.249999-1.11v7.14
		c0.030001-0.01,0.049999-0.03,0.08-0.04c0.290001-0.14,0.6-0.26,0.92-0.33v-8.08C17.174999,5.375,17.174999,5.355,17.165001,5.325z
		 M9.925,6.825c-4.12,0-6.25-0.9901-6.25-1.42c0-0.42,2.13-1.41,6.25-1.41c4.13,0,6.249999,0.99,6.249999,1.41
		C16.174999,5.835,14.055,6.825,9.925,6.825z"/>
</g>
<g id="XMLID_00000023965686305327185940000012514579484744727482_">
	<path style="fill:#616160;" d="M17.174999,5.325v0.08c0-0.03,0-0.05-0.01-0.08H17.174999z"/>
</g>
<g id="XMLID_00000105407578806612709120000018322306867820983959_">
	<path style="fill:#616160;" d="M2.685,5.325c-0.01,0.03-0.01,0.05-0.01,0.08v-0.08H2.685z"/>
</g>
<g>
	<path style="fill:#0072C6;" d="M7.275,9.855c0,0.59-0.47,1.07-1.06,1.07s-1.07-0.48-1.07-1.07c0-0.6,0.48-1.08,1.07-1.08
		S7.275,9.255,7.275,9.855z"/>
</g>
<g>
	<path style="fill:#0072C6;" d="M7.275,15.415c0,0.589999-0.47,1.070001-1.06,1.070001s-1.07-0.48-1.07-1.07s0.48-1.07,1.07-1.07
		C6.805,14.345,7.275,14.825,7.275,15.415z"/>
</g>
<g>
	<path style="fill:#0072C6;" d="M18.254999,14.855c-0.67,0-1.299999,0.22-1.799999,0.58l-3.5-3.5l1.26-1.26l-0.7-0.71l-1.26,1.26
		l-0.85-0.85l-0.71,0.71l5.059999,5.049999c-0.37,0.5-0.58,1.129999-0.58,1.799999c0,1.690001,1.379999,3.07,3.08,3.07
		c1.690001,0,3.07-1.379999,3.07-3.07C21.325001,16.235001,19.945,14.855,18.254999,14.855z M18.254999,20.004999
		c-1.15,0-2.08-0.93-2.08-2.07c0-1.15,0.93-2.08,2.08-2.08c1.139999,0,2.07,0.93,2.07,2.08
		C20.325001,19.075001,19.395,20.004999,18.254999,20.004999z"/>
</g>
<circle style="fill:#0072C6;" cx="18.250099" cy="17.930401" r="0.5716"/>
</svg>
