<svg width="30" height="28" viewBox="0 0 30 28" fill="none" xmlns="http://www.w3.org/2000/svg">
<g id="Group 1000007882" opacity="0.4">
<rect id="Rectangle 23765" x="0.5" y="0.5" width="28.2549" height="26.9495" rx="1.5" fill="white" stroke="#C4C4C4"/>
<g id="Group 1000007881">
<path id="Path 1468" fill-rule="evenodd" clip-rule="evenodd" d="M18.2857 16.34H13.0826V11.4016C13.0826 11.2965 13.1933 11.1914 13.304 11.1914H13.8576C13.9683 11.1914 14.079 11.2965 14.079 11.4016V15.2893H18.175C18.2857 15.2893 18.3964 15.3943 18.3964 15.4994V16.0248C18.6178 16.2349 18.5071 16.34 18.2857 16.34Z" fill="#606060"/>
<g id="Group 1000007880">
<path id="Path 1467" fill-rule="evenodd" clip-rule="evenodd" d="M14.6841 21.9634C11.2522 21.9634 8.15253 19.967 6.93479 16.8148C6.82408 16.7097 6.93479 16.4995 7.15619 16.4995L7.70971 16.2894C7.82042 16.2894 8.04183 16.2894 8.04183 16.3945C9.14886 19.0213 11.8058 20.8076 14.7948 20.8076C18.7801 20.8076 21.9905 17.7604 21.9905 13.8727C21.9905 10.0901 18.7801 6.93785 14.7948 6.93785C12.2486 6.93785 9.81309 8.3038 8.48464 10.4053L7.48831 9.98498C8.92746 7.56829 11.6951 5.99219 14.6841 5.99219C19.3336 5.99219 22.9869 9.56469 22.9869 13.9778C22.9869 18.3909 19.2229 21.9634 14.6841 21.9634Z" fill="#606060"/>
<path id="Path 1469" fill-rule="evenodd" clip-rule="evenodd" d="M7.26526 11.4553L6.26892 7.25233C6.26892 7.14725 6.37962 6.9371 6.49033 6.9371L6.93314 6.83203C7.04385 6.83203 7.26526 6.9371 7.26526 7.04218L8.04018 10.1944L11.3613 9.45887C11.472 9.45887 11.6934 9.56394 11.6934 9.66902L11.8041 10.1944C11.8041 10.2995 11.6934 10.5096 11.5827 10.5096L7.26526 11.4553Z" fill="#606060"/>
</g>
</g>
</g>
</svg>
