<svg width="30" height="28" viewBox="0 0 30 28" fill="none" xmlns="http://www.w3.org/2000/svg">
<rect x="0.5" y="0.5" width="28.2549" height="26.9495" rx="1.5" fill="white" stroke="#C4C4C4"/>
<path fill-rule="evenodd" clip-rule="evenodd" d="M18.2861 16.34H13.083V11.4016C13.083 11.2965 13.1937 11.1914 13.3044 11.1914H13.8579C13.9686 11.1914 14.0793 11.2965 14.0793 11.4016V15.2893H18.1754C18.2861 15.2893 18.3968 15.3943 18.3968 15.4994V16.0248C18.6182 16.2349 18.5075 16.34 18.2861 16.34Z" fill="#606060"/>
<path fill-rule="evenodd" clip-rule="evenodd" d="M14.6843 21.9634C11.2525 21.9634 8.15277 19.967 6.93503 16.8148C6.82433 16.7097 6.93503 16.4995 7.15644 16.4995L7.70996 16.2894C7.82066 16.2894 8.04207 16.2894 8.04207 16.3945C9.14911 19.0213 11.806 20.8076 14.795 20.8076C18.7803 20.8076 21.9908 17.7604 21.9908 13.8727C21.9908 10.0901 18.7803 6.93785 14.795 6.93785C12.2488 6.93785 9.81333 8.3038 8.48489 10.4053L7.48855 9.98498C8.9277 7.56829 11.6953 5.99219 14.6843 5.99219C19.3339 5.99219 22.9871 9.56469 22.9871 13.9778C22.9871 18.3909 19.2232 21.9634 14.6843 21.9634Z" fill="#606060"/>
<path fill-rule="evenodd" clip-rule="evenodd" d="M7.26538 11.4553L6.26904 7.25233C6.26904 7.14725 6.37975 6.9371 6.49045 6.9371L6.93327 6.83203C7.04397 6.83203 7.26538 6.9371 7.26538 7.04218L8.04031 10.1944L11.3614 9.45887C11.4721 9.45887 11.6935 9.56394 11.6935 9.66902L11.8042 10.1944C11.8042 10.2995 11.6935 10.5096 11.5828 10.5096L7.26538 11.4553Z" fill="#606060"/>
</svg>
