<svg width="16" height="16" viewBox="0 0 16 16" fill="none" xmlns="http://www.w3.org/2000/svg">
<path fill-rule="evenodd" clip-rule="evenodd" d="M7.99995 5.66641C8.44178 5.66641 8.79995 5.30823 8.79995 4.86641C8.79995 4.42458 8.44178 4.06641 7.99995 4.06641C7.55812 4.06641 7.19995 4.42458 7.19995 4.86641C7.19995 5.30823 7.55812 5.66641 7.99995 5.66641Z" fill="#606060"/>
<path fill-rule="evenodd" clip-rule="evenodd" d="M8.33296 11.7995H7.73296C7.59963 11.7995 7.53296 11.7328 7.53296 11.5995V7.33281C7.53296 7.19948 7.59963 7.13281 7.73296 7.13281H8.33296C8.46629 7.13281 8.53296 7.19948 8.53296 7.33281V11.5995C8.53296 11.7328 8.39963 11.7995 8.33296 11.7995Z" fill="#606060"/>
<path fill-rule="evenodd" clip-rule="evenodd" d="M7.99943 14.6693C4.33276 14.6693 1.33276 11.6693 1.33276 8.0026C1.33276 4.33594 4.33276 1.33594 7.99943 1.33594C11.6661 1.33594 14.6661 4.33594 14.6661 8.0026C14.6661 11.6693 11.6661 14.6693 7.99943 14.6693ZM7.99943 2.33594C4.8661 2.33594 2.33276 4.86927 2.33276 8.0026C2.33276 11.1359 4.8661 13.6693 7.99943 13.6693C11.1328 13.6693 13.6661 11.1359 13.6661 8.0026C13.6661 4.86927 11.1328 2.33594 7.99943 2.33594Z" fill="#606060"/>
</svg>
