<svg width="919" height="163" viewBox="0 0 919 163" fill="none" xmlns="http://www.w3.org/2000/svg">
<path fill-rule="evenodd" clip-rule="evenodd" d="M625.057 83.4906C625.057 66.1698 639.395 53.2637 658.875 53.2637C678.176 53.2637 692.601 66.088 692.601 83.4906C692.601 100.893 678.176 113.718 658.875 113.718C639.395 113.718 625.057 100.817 625.057 83.4906M685.804 83.487C685.804 69.3164 674.319 58.8629 658.877 58.8629C643.343 58.8629 631.772 69.3055 631.772 83.487C631.772 97.6685 643.343 108.117 658.877 108.117C674.319 108.117 685.804 97.6739 685.804 83.487V83.487Z" fill="#1E1E1E"/>
<path fill-rule="evenodd" clip-rule="evenodd" d="M757.003 53.7832V113.191H751.399L710.048 64.9671V113.191H703.248V53.7832H708.857L750.301 102.007V53.7832L757.003 53.7832Z" fill="#1E1E1E"/>
<path fill-rule="evenodd" clip-rule="evenodd" d="M818.839 107.78V113.23H773.357V53.7734H817.47V59.2237H780.162V80.3651H813.426V85.7172H780.162V107.796L818.839 107.78Z" fill="#1E1E1E"/>
<path fill-rule="evenodd" clip-rule="evenodd" d="M253.199 60.0648C257.947 65.2296 260.349 72.1354 259.836 79.1406V111.782C259.836 112.203 259.495 112.545 259.075 112.545H246.998C246.577 112.545 246.237 112.203 246.237 111.782V80.9337C246.546 76.7779 245.261 72.6605 242.644 69.4228C239.948 66.7173 236.221 65.3056 232.415 65.5477C228.002 65.3163 223.696 66.9605 220.555 70.0769C217.446 73.6767 215.883 78.363 216.207 83.1138V111.782C216.207 112.203 215.866 112.545 215.446 112.545H203.363C202.943 112.545 202.602 112.203 202.602 111.782V55.0452C202.602 54.6237 202.943 54.2821 203.363 54.2821H214.777C215.197 54.2821 215.538 54.6237 215.538 55.0452V59.8577C215.528 60.276 215.857 60.6236 216.274 60.6341C216.486 60.6394 216.69 60.5555 216.837 60.4027C218.896 58.3745 221.339 56.7808 224.023 55.7155C227.698 54.2863 231.615 53.583 235.556 53.6444C242.054 53.336 248.404 55.6548 253.183 60.0812" fill="#1E1E1E"/>
<path fill-rule="evenodd" clip-rule="evenodd" d="M286.438 68.4074C283.63 70.8324 281.745 74.1556 281.1 77.8145C281.025 78.2291 281.299 78.6262 281.713 78.7015C281.76 78.7101 281.808 78.7142 281.856 78.7137H313.016C313.436 78.7164 313.779 78.377 313.782 77.9556C313.782 77.912 313.779 77.8684 313.772 77.8253C313.175 74.1957 311.34 70.8863 308.581 68.4618C305.503 65.8032 301.542 64.4007 297.482 64.5322C293.451 64.4191 289.519 65.7986 286.438 68.4073M325.942 87.7715H281.992C281.569 87.7732 281.227 88.1187 281.229 88.5431C281.229 88.6064 281.237 88.6694 281.253 88.7307C282.081 92.4546 284.234 95.7484 287.308 97.996C290.974 100.595 295.388 101.916 299.874 101.757C305.509 101.938 310.984 99.8656 315.093 95.9958C315.399 95.7066 315.881 95.7206 316.169 96.027C316.173 96.0311 316.177 96.0352 316.18 96.0394L322.507 103.332C322.755 103.62 322.755 104.046 322.507 104.335C319.917 107.251 316.671 109.508 313.039 110.919C303.141 114.551 292.202 114.04 282.683 109.501C277.988 107.112 274.079 103.419 271.421 98.8626C268.73 94.1699 267.357 88.8343 267.448 83.4221C267.368 78.0615 268.701 72.7747 271.312 68.0961C273.821 63.6132 277.534 59.9269 282.03 57.4573C286.765 54.871 292.087 53.5567 297.477 53.6421C302.778 53.5516 308.011 54.8497 312.658 57.4082C317.072 59.8698 320.696 63.5411 323.105 67.9926C325.679 72.8385 326.97 78.2655 326.855 83.7546C326.855 84.5721 326.803 85.684 326.698 87.0901C326.666 87.488 326.335 87.7944 325.937 87.7932" fill="#1E1E1E"/>
<path fill-rule="evenodd" clip-rule="evenodd" d="M423.639 55.3262L402.752 112.058C402.643 112.358 402.358 112.556 402.04 112.554H390.055C389.737 112.555 389.452 112.36 389.337 112.063L375.206 74.2984C375.057 73.9041 374.618 73.7049 374.225 73.8536C374.02 73.931 373.859 74.093 373.782 74.2984L359.454 112.068C359.339 112.369 359.047 112.563 358.726 112.554H346.768C346.449 112.554 346.164 112.356 346.051 112.058L325.266 55.3262C325.122 54.9303 325.325 54.4922 325.72 54.3478C325.804 54.3169 325.894 54.3012 325.983 54.3015H337.197C337.517 54.302 337.803 54.5019 337.914 54.803L352.372 95.3199C352.516 95.7158 352.953 95.9194 353.348 95.7748C353.558 95.6976 353.724 95.5312 353.801 95.3199L368.884 54.7812C368.998 54.4865 369.281 54.2931 369.596 54.2961H379.961C380.281 54.294 380.567 54.4953 380.673 54.7975L395.452 95.5325C395.596 95.9283 396.033 96.1319 396.428 95.9873C396.639 95.9102 396.805 95.7437 396.882 95.5325L411.758 54.7812C411.866 54.4811 412.152 54.2823 412.47 54.2852H422.928C423.348 54.2868 423.687 54.6296 423.686 55.0511C423.685 55.1393 423.67 55.2269 423.64 55.3098" fill="#1E1E1E"/>
<path fill-rule="evenodd" clip-rule="evenodd" d="M465.642 93.7373C468.952 90.6245 470.757 86.2286 470.594 81.6814C470.751 77.1831 468.942 72.84 465.642 69.7891C458.248 63.6778 447.572 63.6778 440.178 69.7891C436.879 72.841 435.073 77.184 435.232 81.6814C435.066 86.2279 436.869 90.624 440.178 93.7373C447.545 99.9227 458.275 99.9227 465.642 93.7373V93.7373ZM483.197 54.2966C483.617 54.2966 483.958 54.6382 483.958 55.0596V103.719C483.958 124.234 473.513 134.491 452.624 134.491C447.255 134.522 441.908 133.804 436.736 132.36C432.441 131.237 428.406 129.286 424.855 126.616C424.552 126.379 424.475 125.952 424.675 125.624L429.98 116.691C430.193 116.331 430.656 116.212 431.015 116.425C431.045 116.443 431.073 116.462 431.1 116.484C433.811 118.489 436.839 120.022 440.057 121.018C443.867 122.278 447.852 122.922 451.863 122.926C456.929 123.365 461.966 121.801 465.897 118.566C469.136 114.927 470.748 110.118 470.359 105.256V104.041C470.357 103.622 470.018 103.284 469.601 103.286C469.407 103.287 469.222 103.362 469.082 103.496C466.983 105.437 464.535 106.961 461.869 107.987C458.361 109.328 454.633 109.995 450.879 109.954C445.677 110.029 440.538 108.81 435.921 106.406C431.547 104.125 427.892 100.667 425.366 96.4214C422.747 91.9682 421.409 86.8747 421.501 81.7058C421.403 76.5481 422.741 71.4651 425.366 67.0283C427.897 62.8151 431.553 59.396 435.921 57.158C440.549 54.7895 445.684 53.5902 450.879 53.6644C454.802 53.6133 458.699 54.3163 462.358 55.7355C465.118 56.8263 467.619 58.4842 469.701 60.6025C469.992 60.9066 470.474 60.9167 470.777 60.625C470.931 60.477 471.016 60.2712 471.011 60.0575V55.0596C471.011 54.6382 471.352 54.2966 471.772 54.2966H483.186" fill="#1E1E1E"/>
<path fill-rule="evenodd" clip-rule="evenodd" d="M510.577 68.4074C507.767 70.8306 505.882 74.1546 505.24 77.8145C505.164 78.2291 505.439 78.6262 505.852 78.7015C505.899 78.7101 505.947 78.7142 505.995 78.7137H537.156C537.576 78.7164 537.919 78.377 537.921 77.9556C537.922 77.912 537.918 77.8684 537.911 77.8253C537.314 74.1957 535.479 70.8863 532.72 68.4618C529.643 65.8032 525.682 64.4007 521.621 64.5322C517.59 64.4186 513.658 65.7982 510.577 68.4073M550.081 87.7714H506.131C505.708 87.7762 505.369 88.1241 505.374 88.5485C505.374 88.6099 505.383 88.6711 505.398 88.7307C506.226 92.4546 508.378 95.7484 511.453 97.996C515.118 100.595 519.533 101.916 524.019 101.757C529.654 101.938 535.129 99.8656 539.238 95.9958C539.544 95.7066 540.025 95.7206 540.314 96.0271C540.317 96.0312 540.321 96.0353 540.325 96.0394L546.652 103.332C546.902 103.619 546.902 104.047 546.652 104.335C544.061 107.251 540.816 109.508 537.183 110.919C527.285 114.551 516.346 114.04 506.827 109.501C502.133 107.112 498.223 103.419 495.565 98.8626C492.875 94.1699 491.502 88.8343 491.592 83.4221C491.513 78.0615 492.846 72.7747 495.457 68.0961C497.965 63.6134 501.679 59.9272 506.175 57.4573C510.91 54.871 516.231 53.5567 521.622 53.6421C526.923 53.5516 532.156 54.8497 536.803 57.4082C541.216 59.8687 544.838 63.5404 547.244 67.9926C549.822 72.8372 551.115 78.2647 551 83.7546C551 84.5721 550.946 85.684 550.837 87.0901C550.808 87.4871 550.478 87.7943 550.081 87.7932" fill="#1E1E1E"/>
<path fill-rule="evenodd" clip-rule="evenodd" d="M609.209 60.0648C613.957 65.2296 616.36 72.1354 615.846 79.1406V111.782C615.846 112.203 615.505 112.545 615.085 112.545H603.008C602.587 112.545 602.247 112.203 602.247 111.782V80.9337C602.556 76.7779 601.271 72.6605 598.654 69.4228C595.96 66.7182 592.235 65.3065 588.43 65.5477C584.017 65.3156 579.711 66.96 576.57 70.0769C573.462 73.6767 571.899 78.363 572.222 83.1138V111.782C572.222 112.203 571.882 112.545 571.461 112.545H559.379C558.958 112.545 558.618 112.203 558.618 111.782V55.0452C558.618 54.6237 558.958 54.2821 559.379 54.2821H570.793C571.213 54.2821 571.554 54.6237 571.554 55.0452V59.8577C571.548 60.2791 571.883 60.6256 572.303 60.6317C572.512 60.6348 572.712 60.552 572.858 60.4027C574.914 58.3736 577.356 56.7795 580.038 55.7155C583.714 54.2868 587.63 53.5835 591.572 53.6445C598.07 53.336 604.42 55.6548 609.199 60.0812" fill="#1E1E1E"/>
<path fill-rule="evenodd" clip-rule="evenodd" d="M90.5506 116.178C90.1765 118.298 88.1599 119.711 86.0465 119.336C83.9331 118.961 82.523 116.939 82.8972 114.82C83.2713 112.701 85.2879 111.287 87.4013 111.662C88.5577 111.867 89.5595 112.586 90.1267 113.617C90.5517 114.398 90.7011 115.301 90.5506 116.178V116.178ZM174.52 50.1265C172.846 45.69 164.595 45.1232 152.208 47.7284C156.231 47.1452 162.655 49.3035 163.682 52.0123C167.172 61.2776 137.626 85.6456 97.7196 106.444C96.0238 107.332 94.3225 108.188 92.6213 109.043C89.0339 105.725 83.4426 105.95 80.1329 109.548C76.8232 113.145 77.0482 118.751 80.6356 122.07C84.223 125.389 89.8143 125.163 93.124 121.566C95.0348 119.489 95.8434 116.623 95.3009 113.85C96.801 113.104 98.2903 112.357 99.8013 111.572C114.008 104.23 127.742 96.0007 140.919 86.9318C141.012 88.3761 141.061 89.8423 141.061 91.292C141.061 130.691 109.209 162.63 69.918 162.63C69.9162 162.63 69.9144 162.63 69.9126 162.63H69.0647C71.5051 162.864 73.9565 163.001 76.4947 163.001C118.914 163.047 153.339 128.604 153.385 86.0684C153.388 83.3658 153.25 80.665 152.969 77.9771C168.128 65.9866 176.597 55.6312 174.52 50.0938" fill="#FB8B23"/>
<path fill-rule="evenodd" clip-rule="evenodd" d="M29.053 115.229C28.59 117.339 26.5082 118.674 24.4033 118.21C22.2983 117.745 20.9672 115.658 21.4302 113.547C21.8932 111.436 23.975 110.102 26.08 110.566C27.1598 110.804 28.0882 111.49 28.6345 112.454C29.1127 113.295 29.2619 114.284 29.053 115.229V115.229ZM175.205 15.299C173.107 9.91414 161.34 10.3338 144.224 15.348C155.399 12.8518 162.856 13.2987 164.4 17.2883C166.411 22.4497 152.073 35.601 132.163 50.0169C131.489 50.5019 130.826 50.9707 130.136 51.4503V51.4503C114.063 62.8713 97.3923 73.4235 80.1965 83.0616C64.8689 91.6075 48.0195 100.606 31.6267 108.345C28.2837 104.771 22.6839 104.59 19.1192 107.943C15.5545 111.295 15.3747 116.91 18.7177 120.484C22.0607 124.059 27.6605 124.239 31.2252 120.887C33.3502 118.889 34.3582 115.97 33.9204 113.081C48.911 106.301 65.1516 97.7663 82.3326 88.1684C98.9972 78.854 116.76 67.741 132.272 56.9441C135.241 62.3368 137.494 68.0956 138.974 74.0742V74.1069C142.99 71.1515 146.79 67.9112 150.344 64.4109C148.765 58.927 146.578 53.6381 143.822 48.6434C163.704 33.8461 177.331 20.7546 175.211 15.2935" fill="#FB8B23"/>
<path fill-rule="evenodd" clip-rule="evenodd" d="M45.7409 75.1318C45.3367 77.2516 43.2953 78.6415 41.1813 78.2362C39.0673 77.8309 37.6812 75.7839 38.0853 73.6641C38.4895 71.5443 40.5309 70.1543 42.645 70.5596C43.7811 70.7774 44.762 71.4901 45.3224 72.5048C45.7609 73.3054 45.9088 74.2339 45.7409 75.1318M137.323 38.6172C133.43 33.5634 128.93 29.0108 123.925 25.0625C131.811 17.3286 135.73 10.8919 134.252 6.96776C133.203 4.27535 129.768 3 124.468 3C119.961 3.11238 115.478 3.69507 111.092 4.73862C117.886 4.84218 122.283 5.91587 123.392 8.85354C126.882 18.1189 97.3353 42.4814 57.4293 63.2849C54.2877 64.92 51.1244 66.506 47.9665 68.0648C44.4471 64.6908 38.8665 64.8166 35.5018 68.3456C32.1371 71.8746 32.2625 77.4706 35.7819 80.8445C39.3012 84.2184 44.8819 84.0927 48.2466 80.5636C50.1896 78.5256 51.0467 75.6805 50.5537 72.9046C53.5105 71.4766 56.4981 69.9796 59.5165 68.4136C78.3877 58.7875 96.3316 47.4336 113.119 34.4968C117.882 38.1457 122.168 42.3811 125.876 47.1032L125.925 47.1577C130.855 43.7077 133.279 41.871 137.339 38.6445L137.312 38.6063" fill="#1E1E1E"/>
<path fill-rule="evenodd" clip-rule="evenodd" d="M113.212 18.1564C75.8901 -2.17328 29.1995 11.6846 8.92547 49.1088C4.07147 58.069 1.03782 67.9054 0 78.0489C7.3189 39.3243 44.5586 13.8812 83.1772 21.2202C89.8879 22.4955 96.3805 24.7327 102.455 27.8632C106.34 24.9771 109.942 21.7268 113.212 18.1564" fill="#1E1E1E"/>
<g filter="url(#filter0_d_1541_5890)">
<circle cx="870.684" cy="47.0008" r="44.0008" fill="#1E1E1E"/>
</g>
<path d="M846.403 28.3542C845.476 27.4238 845.153 26.0511 845.567 24.8051L845.679 24.467C846.128 23.1137 847.255 22.0956 848.647 21.7855L848.712 21.7709C850.092 21.4634 851.534 21.8752 852.543 22.865L871.175 41.1348L876.284 36.3779L881.326 41.2081L873.899 47.8309C873.101 48.5429 872.068 48.9364 870.999 48.9364C869.917 48.9364 868.874 48.5339 868.072 47.8073L850.833 32.1813L850.936 32.2592L846.403 28.3542Z" fill="white"/>
<path d="M884.514 38.3648L879.406 33.471L890.827 22.8365C891.618 22.0997 892.659 21.6901 893.74 21.6901C896.102 21.6901 898.016 23.6043 898.016 25.9654V68.8844C898.016 70.792 896.469 72.3385 894.562 72.3385C892.656 72.3385 891.111 70.7958 891.107 68.8905L891.043 32.5431L884.514 38.3648Z" fill="white"/>
<path fill-rule="evenodd" clip-rule="evenodd" d="M856.259 66.7771C856.259 66.3954 856.22 66.0229 856.145 65.6633L860.97 60.5084C861.605 60.7673 862.3 60.9099 863.028 60.9099C866.041 60.9099 868.483 58.4677 868.483 55.4551C868.483 52.4425 866.041 50.0002 863.028 50.0002C862.364 50.0002 861.728 50.1189 861.139 50.3361L856.209 45.4057C856.242 45.1631 856.259 44.9154 856.259 44.6638C856.259 41.6511 853.817 39.2089 850.804 39.2089C847.791 39.2089 845.349 41.6511 845.349 44.6638C845.349 46.5403 846.297 48.1955 847.739 49.177L847.74 62.2638C846.297 63.2453 845.349 64.9005 845.349 66.7771C845.349 69.7897 847.791 72.2319 850.804 72.2319C853.817 72.2319 856.259 69.7897 856.259 66.7771ZM852.902 44.6638C852.902 45.8227 851.963 46.7621 850.804 46.7621C849.645 46.7621 848.706 45.8227 848.706 44.6638C848.706 43.5048 849.645 42.5654 850.804 42.5654C851.963 42.5654 852.902 43.5048 852.902 44.6638ZM852.252 49.9243L852.252 61.5166C852.655 61.6273 853.04 61.7831 853.4 61.9782L857.862 57.2108C857.675 56.6599 857.573 56.0693 857.573 55.4551C857.573 54.7731 857.698 54.1203 857.927 53.5185L853.697 49.2888C853.254 49.5666 852.769 49.7824 852.252 49.9243ZM863.028 57.5535C862.554 57.5535 862.117 57.3965 861.766 57.1318L861.428 56.8123C861.117 56.4464 860.93 55.9726 860.93 55.4551C860.93 54.2962 861.869 53.3567 863.028 53.3567C864.187 53.3567 865.126 54.2962 865.126 55.4551C865.126 56.614 864.187 57.5535 863.028 57.5535ZM850.804 68.8755C851.963 68.8755 852.902 67.936 852.902 66.7771C852.902 65.6182 851.963 64.6787 850.804 64.6787C849.645 64.6787 848.706 65.6182 848.706 66.7771C848.706 67.936 849.645 68.8755 850.804 68.8755Z" fill="white"/>
<defs>
<filter id="filter0_d_1541_5890" x="822.875" y="0.884615" width="95.6168" height="95.6173" filterUnits="userSpaceOnUse" color-interpolation-filters="sRGB">
<feFlood flood-opacity="0" result="BackgroundImageFix"/>
<feColorMatrix in="SourceAlpha" type="matrix" values="0 0 0 0 0 0 0 0 0 0 0 0 0 0 0 0 0 0 127 0" result="hardAlpha"/>
<feOffset dy="1.69231"/>
<feGaussianBlur stdDeviation="1.90385"/>
<feComposite in2="hardAlpha" operator="out"/>
<feColorMatrix type="matrix" values="0 0 0 0 0 0 0 0 0 0 0 0 0 0 0 0 0 0 0.17 0"/>
<feBlend mode="normal" in2="BackgroundImageFix" result="effect1_dropShadow_1541_5890"/>
<feBlend mode="normal" in="SourceGraphic" in2="effect1_dropShadow_1541_5890" result="shape"/>
</filter>
</defs>
</svg>
