<svg width="146" height="17" viewBox="0 0 146 17" fill="none" xmlns="http://www.w3.org/2000/svg">
<path d="M97.204 5.49615C97.0247 5.31596 96.962 5.05011 97.0421 4.8088L97.0639 4.74331C97.1509 4.48122 97.3691 4.28405 97.6386 4.22399L97.6513 4.22116C97.9186 4.16161 98.1978 4.24135 98.3933 4.43305L102.002 7.97137L102.991 7.05011L103.968 7.98558L102.529 9.26823C102.375 9.40612 102.175 9.48232 101.968 9.48232C101.758 9.48232 101.556 9.40438 101.401 9.26366L98.062 6.23734L98.0821 6.25243L97.204 5.49615Z" fill="url(#paint0_linear_1279_5486)"/>
<path d="M104.585 7.43491L103.596 6.48712L105.808 4.42753C105.961 4.28485 106.163 4.20551 106.372 4.20551C106.829 4.20551 107.2 4.57622 107.2 5.03352V13.3457C107.2 13.7151 106.9 14.0146 106.531 14.0146C106.162 14.0146 105.863 13.7159 105.862 13.3469L105.849 6.30743L104.585 7.43491Z" fill="url(#paint1_linear_1279_5486)"/>
<path fill-rule="evenodd" clip-rule="evenodd" d="M99.1129 12.9376C99.1129 12.8636 99.1053 12.7915 99.0908 12.7219L100.025 11.7235C100.148 11.7736 100.283 11.8012 100.424 11.8012C101.007 11.8012 101.48 11.3283 101.48 10.7448C101.48 10.1613 101.007 9.68836 100.424 9.68836C100.295 9.68836 100.172 9.71134 100.058 9.75342L99.1032 8.79853C99.1096 8.75155 99.1129 8.70358 99.1129 8.65484C99.1129 8.07138 98.6399 7.5984 98.0564 7.5984C97.473 7.5984 97 8.07138 97 8.65484C97 9.01827 97.1835 9.33884 97.4629 9.52893L97.4629 12.0635C97.1835 12.2535 97 12.5741 97 12.9376C97 13.521 97.473 13.994 98.0564 13.994C98.6399 13.994 99.1129 13.521 99.1129 12.9376ZM98.4628 8.65484C98.4628 8.87929 98.2809 9.06124 98.0564 9.06124C97.832 9.06124 97.65 8.87929 97.65 8.65484C97.65 8.43039 97.832 8.24844 98.0564 8.24844C98.2809 8.24844 98.4628 8.43039 98.4628 8.65484ZM98.3369 9.67365L98.3369 11.9187C98.415 11.9402 98.4894 11.9704 98.5591 12.0081L99.4234 11.0848C99.3871 10.9781 99.3675 10.8638 99.3675 10.7448C99.3675 10.6127 99.3917 10.4863 99.436 10.3697L98.6168 9.55058C98.531 9.60438 98.4369 9.64618 98.3369 9.67365ZM100.424 11.1512C100.332 11.1512 100.248 11.1208 100.18 11.0695L100.114 11.0077C100.054 10.9368 100.018 10.845 100.018 10.7448C100.018 10.5204 100.199 10.3384 100.424 10.3384C100.648 10.3384 100.83 10.5204 100.83 10.7448C100.83 10.9693 100.648 11.1512 100.424 11.1512ZM98.0564 13.344C98.2809 13.344 98.4628 13.162 98.4628 12.9376C98.4628 12.7131 98.2809 12.5312 98.0564 12.5312C97.832 12.5312 97.65 12.7131 97.65 12.9376C97.65 13.162 97.832 13.344 98.0564 13.344Z" fill="url(#paint2_linear_1279_5486)"/>
<path d="M114.162 13.9984V12.4304L114.092 12.1364V9.46239C114.092 8.89306 113.924 8.45439 113.588 8.14639C113.261 7.82906 112.767 7.67039 112.104 7.67039C111.665 7.67039 111.236 7.74506 110.816 7.89439C110.396 8.03439 110.041 8.22572 109.752 8.46839L109.192 7.46039C109.575 7.15239 110.032 6.91906 110.564 6.76039C111.105 6.59239 111.67 6.50839 112.258 6.50839C113.275 6.50839 114.059 6.75572 114.61 7.25039C115.161 7.74506 115.436 8.50106 115.436 9.51839V13.9984H114.162ZM111.726 14.0824C111.175 14.0824 110.69 13.9891 110.27 13.8024C109.859 13.6157 109.542 13.3591 109.318 13.0324C109.094 12.6964 108.982 12.3184 108.982 11.8984C108.982 11.4971 109.075 11.1331 109.262 10.8064C109.458 10.4797 109.771 10.2184 110.2 10.0224C110.639 9.82639 111.227 9.72839 111.964 9.72839H114.316V10.6944H112.02C111.348 10.6944 110.895 10.8064 110.662 11.0304C110.429 11.2544 110.312 11.5251 110.312 11.8424C110.312 12.2064 110.457 12.5004 110.746 12.7244C111.035 12.9391 111.437 13.0464 111.95 13.0464C112.454 13.0464 112.893 12.9344 113.266 12.7104C113.649 12.4864 113.924 12.1597 114.092 11.7304L114.358 12.6544C114.181 13.0931 113.868 13.4431 113.42 13.7044C112.972 13.9564 112.407 14.0824 111.726 14.0824Z" fill="url(#paint3_linear_1279_5486)"/>
<path d="M118.306 13.9984V6.57839H119.594V8.59439L119.468 8.09039C119.673 7.57706 120.019 7.18506 120.504 6.91439C120.989 6.64372 121.587 6.50839 122.296 6.50839V7.81039C122.24 7.80106 122.184 7.79639 122.128 7.79639C122.081 7.79639 122.035 7.79639 121.988 7.79639C121.269 7.79639 120.7 8.01106 120.28 8.44039C119.86 8.86972 119.65 9.49039 119.65 10.3024V13.9984H118.306Z" fill="url(#paint4_linear_1279_5486)"/>
<path d="M126.668 13.9984L123.42 6.57839H124.82L127.704 13.2984H127.032L129.972 6.57839H131.288L128.04 13.9984H126.668Z" fill="url(#paint5_linear_1279_5486)"/>
<path d="M132.306 13.9984V6.57839H133.65V13.9984H132.306ZM132.978 5.15039C132.717 5.15039 132.497 5.06639 132.32 4.89839C132.152 4.73039 132.068 4.52506 132.068 4.28239C132.068 4.03039 132.152 3.82039 132.32 3.65239C132.497 3.48439 132.717 3.40039 132.978 3.40039C133.239 3.40039 133.454 3.48439 133.622 3.65239C133.799 3.81106 133.888 4.01172 133.888 4.25439C133.888 4.50639 133.804 4.72106 133.636 4.89839C133.468 5.06639 133.249 5.15039 132.978 5.15039Z" fill="url(#paint6_linear_1279_5486)"/>
<path d="M140.351 6.50839C140.958 6.50839 141.49 6.62506 141.947 6.85839C142.414 7.09172 142.778 7.44639 143.039 7.92239C143.3 8.39839 143.431 9.00039 143.431 9.72839V13.9984H142.087V9.88239C142.087 9.16372 141.91 8.62239 141.555 8.25839C141.21 7.89439 140.72 7.71239 140.085 7.71239C139.609 7.71239 139.194 7.80572 138.839 7.99239C138.484 8.17906 138.209 8.45439 138.013 8.81839C137.826 9.18239 137.733 9.63506 137.733 10.1764V13.9984H136.389V6.57839H137.677V8.58039L137.467 8.04839C137.71 7.56306 138.083 7.18506 138.587 6.91439C139.091 6.64372 139.679 6.50839 140.351 6.50839Z" fill="url(#paint7_linear_1279_5486)"/>
<path d="M1.47 14V4.2H2.618L9.1 12.25H8.498V4.2H9.898V14H8.75L2.268 5.95H2.87V14H1.47ZM15.9393 14.084C15.146 14.084 14.446 13.9207 13.8393 13.594C13.242 13.2673 12.7753 12.8193 12.4393 12.25C12.1127 11.6807 11.9493 11.0273 11.9493 10.29C11.9493 9.55267 12.108 8.89933 12.4253 8.33C12.752 7.76067 13.1953 7.31733 13.7553 7C14.3247 6.67333 14.964 6.51 15.6733 6.51C16.392 6.51 17.0267 6.66867 17.5773 6.986C18.128 7.30333 18.5573 7.75133 18.8653 8.33C19.1827 8.89933 19.3413 9.56667 19.3413 10.332C19.3413 10.388 19.3367 10.4533 19.3273 10.528C19.3273 10.6027 19.3227 10.6727 19.3133 10.738H12.9993V9.772H18.6133L18.0673 10.108C18.0767 9.632 17.9787 9.20733 17.7733 8.834C17.568 8.46067 17.2833 8.17133 16.9193 7.966C16.5647 7.75133 16.1493 7.644 15.6733 7.644C15.2067 7.644 14.7913 7.75133 14.4273 7.966C14.0633 8.17133 13.7787 8.46533 13.5733 8.848C13.368 9.22133 13.2653 9.65067 13.2653 10.136V10.36C13.2653 10.8547 13.3773 11.298 13.6013 11.69C13.8347 12.0727 14.1567 12.3713 14.5673 12.586C14.978 12.8007 15.4493 12.908 15.9813 12.908C16.42 12.908 16.8167 12.8333 17.1713 12.684C17.5353 12.5347 17.8527 12.3107 18.1233 12.012L18.8653 12.88C18.5293 13.272 18.1093 13.5707 17.6053 13.776C17.1107 13.9813 16.5553 14.084 15.9393 14.084ZM22.6389 14L19.8809 6.58H21.1549L23.6049 13.3H23.0029L25.5509 6.58H26.6849L29.1769 13.3H28.5889L31.0949 6.58H32.2989L29.5269 14H28.2389L25.9009 7.868H26.2929L23.9269 14H22.6389ZM36.7056 16.8C36.0243 16.8 35.3616 16.702 34.7176 16.506C34.0829 16.3193 33.5649 16.0487 33.1636 15.694L33.8076 14.658C34.1529 14.9567 34.5776 15.19 35.0816 15.358C35.5856 15.5353 36.1129 15.624 36.6636 15.624C37.5409 15.624 38.1849 15.4187 38.5956 15.008C39.0063 14.5973 39.2116 13.972 39.2116 13.132V11.564L39.3516 10.094L39.2816 8.61V6.58H40.5556V12.992C40.5556 14.2987 40.2289 15.26 39.5756 15.876C38.9223 16.492 37.9656 16.8 36.7056 16.8ZM36.5376 13.692C35.8189 13.692 35.1749 13.5427 34.6056 13.244C34.0456 12.936 33.5976 12.5113 33.2616 11.97C32.9349 11.4287 32.7716 10.8033 32.7716 10.094C32.7716 9.37533 32.9349 8.75 33.2616 8.218C33.5976 7.67667 34.0456 7.25667 34.6056 6.958C35.1749 6.65933 35.8189 6.51 36.5376 6.51C37.1723 6.51 37.7509 6.64067 38.2736 6.902C38.7963 7.154 39.2116 7.546 39.5196 8.078C39.8369 8.61 39.9956 9.282 39.9956 10.094C39.9956 10.8967 39.8369 11.564 39.5196 12.096C39.2116 12.628 38.7963 13.0293 38.2736 13.3C37.7509 13.5613 37.1723 13.692 36.5376 13.692ZM36.6916 12.516C37.1863 12.516 37.6249 12.4133 38.0076 12.208C38.3903 12.0027 38.6889 11.718 38.9036 11.354C39.1276 10.99 39.2396 10.57 39.2396 10.094C39.2396 9.618 39.1276 9.198 38.9036 8.834C38.6889 8.47 38.3903 8.19 38.0076 7.994C37.6249 7.78867 37.1863 7.686 36.6916 7.686C36.1969 7.686 35.7536 7.78867 35.3616 7.994C34.9789 8.19 34.6756 8.47 34.4516 8.834C34.2369 9.198 34.1296 9.618 34.1296 10.094C34.1296 10.57 34.2369 10.99 34.4516 11.354C34.6756 11.718 34.9789 12.0027 35.3616 12.208C35.7536 12.4133 36.1969 12.516 36.6916 12.516ZM46.4276 14.084C45.6343 14.084 44.9343 13.9207 44.3276 13.594C43.7303 13.2673 43.2636 12.8193 42.9276 12.25C42.6009 11.6807 42.4376 11.0273 42.4376 10.29C42.4376 9.55267 42.5963 8.89933 42.9136 8.33C43.2403 7.76067 43.6836 7.31733 44.2436 7C44.8129 6.67333 45.4523 6.51 46.1616 6.51C46.8803 6.51 47.5149 6.66867 48.0656 6.986C48.6163 7.30333 49.0456 7.75133 49.3536 8.33C49.6709 8.89933 49.8296 9.56667 49.8296 10.332C49.8296 10.388 49.8249 10.4533 49.8156 10.528C49.8156 10.6027 49.8109 10.6727 49.8016 10.738H43.4876V9.772H49.1016L48.5556 10.108C48.5649 9.632 48.4669 9.20733 48.2616 8.834C48.0563 8.46067 47.7716 8.17133 47.4076 7.966C47.0529 7.75133 46.6376 7.644 46.1616 7.644C45.6949 7.644 45.2796 7.75133 44.9156 7.966C44.5516 8.17133 44.2669 8.46533 44.0616 8.848C43.8563 9.22133 43.7536 9.65067 43.7536 10.136V10.36C43.7536 10.8547 43.8656 11.298 44.0896 11.69C44.3229 12.0727 44.6449 12.3713 45.0556 12.586C45.4663 12.8007 45.9376 12.908 46.4696 12.908C46.9083 12.908 47.3049 12.8333 47.6596 12.684C48.0236 12.5347 48.3409 12.3107 48.6116 12.012L49.3536 12.88C49.0176 13.272 48.5976 13.5707 48.0936 13.776C47.5989 13.9813 47.0436 14.084 46.4276 14.084ZM55.6579 6.51C56.2645 6.51 56.7965 6.62667 57.2539 6.86C57.7205 7.09333 58.0845 7.448 58.3459 7.924C58.6072 8.4 58.7379 9.002 58.7379 9.73V14H57.3939V9.884C57.3939 9.16533 57.2165 8.624 56.8619 8.26C56.5165 7.896 56.0265 7.714 55.3919 7.714C54.9159 7.714 54.5005 7.80733 54.1459 7.994C53.7912 8.18067 53.5159 8.456 53.3199 8.82C53.1332 9.184 53.0399 9.63667 53.0399 10.178V14H51.6959V6.58H52.9839V8.582L52.7739 8.05C53.0165 7.56467 53.3899 7.18667 53.8939 6.916C54.3979 6.64533 54.9859 6.51 55.6579 6.51ZM65.8452 14.112C65.0985 14.112 64.4032 13.986 63.7592 13.734C63.1245 13.482 62.5738 13.132 62.1072 12.684C61.6405 12.2267 61.2765 11.6947 61.0152 11.088C60.7538 10.4813 60.6232 9.81867 60.6232 9.1C60.6232 8.38133 60.7538 7.71867 61.0152 7.112C61.2765 6.50533 61.6405 5.978 62.1072 5.53C62.5738 5.07267 63.1245 4.718 63.7592 4.466C64.3938 4.214 65.0892 4.088 65.8452 4.088C66.5918 4.088 67.2778 4.214 67.9032 4.466C68.5378 4.70867 69.0885 5.05867 69.5552 5.516C70.0312 5.964 70.3952 6.49133 70.6472 7.098C70.9085 7.70467 71.0392 8.372 71.0392 9.1C71.0392 9.828 70.9085 10.4953 70.6472 11.102C70.3952 11.7087 70.0312 12.2407 69.5552 12.698C69.0885 13.146 68.5378 13.496 67.9032 13.748C67.2778 13.9907 66.5918 14.112 65.8452 14.112ZM65.8452 12.866C66.3865 12.866 66.8858 12.7727 67.3432 12.586C67.8098 12.3993 68.2112 12.138 68.5472 11.802C68.8925 11.4567 69.1585 11.0553 69.3452 10.598C69.5412 10.1407 69.6392 9.64133 69.6392 9.1C69.6392 8.55867 69.5412 8.05933 69.3452 7.602C69.1585 7.14467 68.8925 6.748 68.5472 6.412C68.2112 6.06667 67.8098 5.80067 67.3432 5.614C66.8858 5.42733 66.3865 5.334 65.8452 5.334C65.2945 5.334 64.7858 5.42733 64.3192 5.614C63.8618 5.80067 63.4605 6.06667 63.1152 6.412C62.7698 6.748 62.4992 7.14467 62.3032 7.602C62.1165 8.05933 62.0232 8.55867 62.0232 9.1C62.0232 9.64133 62.1165 10.1407 62.3032 10.598C62.4992 11.0553 62.7698 11.4567 63.1152 11.802C63.4605 12.138 63.8618 12.3993 64.3192 12.586C64.7858 12.7727 65.2945 12.866 65.8452 12.866ZM73.179 14V4.2H74.327L80.809 12.25H80.207V4.2H81.607V14H80.459L73.977 5.95H74.579V14H73.179ZM85.8143 8.428H90.8543V9.618H85.8143V8.428ZM85.9403 12.782H91.6523V14H84.5403V4.2H91.4563V5.418H85.9403V12.782Z" fill="#1E1E1E"/>
<defs>
<linearGradient id="paint0_linear_1279_5486" x1="91.807" y1="3.40039" x2="155.124" y2="15.108" gradientUnits="userSpaceOnUse">
<stop stop-color="#51087E"/>
<stop offset="0.674211" stop-color="#A14653"/>
<stop offset="1" stop-color="#FB8B23"/>
</linearGradient>
<linearGradient id="paint1_linear_1279_5486" x1="91.807" y1="3.40039" x2="155.124" y2="15.108" gradientUnits="userSpaceOnUse">
<stop stop-color="#51087E"/>
<stop offset="0.674211" stop-color="#A14653"/>
<stop offset="1" stop-color="#FB8B23"/>
</linearGradient>
<linearGradient id="paint2_linear_1279_5486" x1="91.807" y1="3.40039" x2="155.124" y2="15.108" gradientUnits="userSpaceOnUse">
<stop stop-color="#51087E"/>
<stop offset="0.674211" stop-color="#A14653"/>
<stop offset="1" stop-color="#FB8B23"/>
</linearGradient>
<linearGradient id="paint3_linear_1279_5486" x1="91.807" y1="3.40039" x2="155.124" y2="15.108" gradientUnits="userSpaceOnUse">
<stop stop-color="#51087E"/>
<stop offset="0.674211" stop-color="#A14653"/>
<stop offset="1" stop-color="#FB8B23"/>
</linearGradient>
<linearGradient id="paint4_linear_1279_5486" x1="91.807" y1="3.40039" x2="155.124" y2="15.108" gradientUnits="userSpaceOnUse">
<stop stop-color="#51087E"/>
<stop offset="0.674211" stop-color="#A14653"/>
<stop offset="1" stop-color="#FB8B23"/>
</linearGradient>
<linearGradient id="paint5_linear_1279_5486" x1="91.807" y1="3.40039" x2="155.124" y2="15.108" gradientUnits="userSpaceOnUse">
<stop stop-color="#51087E"/>
<stop offset="0.674211" stop-color="#A14653"/>
<stop offset="1" stop-color="#FB8B23"/>
</linearGradient>
<linearGradient id="paint6_linear_1279_5486" x1="91.807" y1="3.40039" x2="155.124" y2="15.108" gradientUnits="userSpaceOnUse">
<stop stop-color="#51087E"/>
<stop offset="0.674211" stop-color="#A14653"/>
<stop offset="1" stop-color="#FB8B23"/>
</linearGradient>
<linearGradient id="paint7_linear_1279_5486" x1="91.807" y1="3.40039" x2="155.124" y2="15.108" gradientUnits="userSpaceOnUse">
<stop stop-color="#51087E"/>
<stop offset="0.674211" stop-color="#A14653"/>
<stop offset="1" stop-color="#FB8B23"/>
</linearGradient>
</defs>
</svg>
