<svg width="17" height="16" viewBox="0 0 17 16" fill="none" xmlns="http://www.w3.org/2000/svg">
<path fill-rule="evenodd" clip-rule="evenodd" d="M15.9465 14.5025L8.55148 0.907203C8.31824 0.478849 7.70348 0.478849 7.47025 0.907203L0.0757995 14.5025C-0.147585 14.9124 0.149645 15.4122 0.616106 15.4122H15.4056C15.8727 15.4122 16.1693 14.9124 15.9465 14.5025ZM7.39573 5.17817C7.39573 5.09324 7.46465 5.02431 7.54958 5.02431H8.47265C8.55757 5.02431 8.6265 5.09324 8.6265 5.17817V10.5541C8.6265 10.6391 8.55757 10.708 8.47265 10.708H7.54958C7.46465 10.708 7.39573 10.6391 7.39573 10.5541V5.17817ZM8.01123 14.0417C7.48816 14.0417 7.06416 13.6176 7.06416 13.0945C7.06416 12.5713 7.48816 12.1467 8.01123 12.1467C8.53431 12.1467 8.95831 12.5707 8.95831 13.0939C8.95831 13.617 8.53431 14.0417 8.01123 14.0417Z" fill="#AD6503"/>
</svg>
